<svg width="1045" height="901" viewBox="0 0 1045 901" fill="none" xmlns="http://www.w3.org/2000/svg">
<path d="M953.644 501.009C956.822 513.477 960.978 525.619 964.727 537.924C979.477 585.678 994.227 633.432 1009.06 681.105C1009.95 683.957 1008.98 684.527 1006.53 685.098C994.471 687.705 982.492 690.476 970.431 693.165C969.209 693.41 968.068 693.736 967.009 694.388C963.097 696.832 958.452 696.995 954.133 697.973C937.59 701.64 921.048 705.47 904.505 709.056C902.631 709.464 900.919 710.36 899.045 710.767C895.622 711.012 892.363 712.071 889.022 712.56C885.191 713.049 884.132 712.153 883.888 708.323C883.317 699.522 882.991 690.802 882.258 682.001C881.85 676.623 881.932 676.623 876.635 676.541C855.203 675.971 833.852 677.763 812.501 677.438C811.523 677.438 810.627 677.438 809.649 677.438C805.167 674.096 804.841 669.288 805.085 664.399C805.248 660.487 806.145 656.576 806.797 652.746C814.131 606.296 821.302 559.764 828.555 513.314C828.799 512.01 829.125 510.625 829.207 509.321C829.533 506.143 831.244 504.757 834.341 504.839C836.786 504.92 839.149 504.187 841.594 504.105C846.32 503.942 847.298 504.513 848.602 508.995C851.047 517.714 853.247 526.597 855.447 535.398C863.433 566.772 871.827 598.146 879.569 629.602C879.813 630.498 880.057 631.476 880.139 632.373C880.139 633.269 880.302 634.166 880.465 635.062C880.057 632.373 880.057 629.684 879.243 627.076C878.265 611.43 877.45 595.702 876.39 580.055C875.331 564.572 874.516 549.007 873.457 533.524C872.723 522.359 872.153 511.114 871.501 499.868C870.849 488.704 870.279 477.458 869.382 466.293C869.138 463.034 869.056 459.774 869.219 456.596C868.649 452.195 868.486 447.713 868.404 443.231C868.404 439.646 867.752 439.238 864.248 440.216C855.121 442.742 846.239 446.084 837.193 448.936C831.896 450.647 831.163 450.321 828.636 445.269C827.74 443.476 826.844 441.683 825.866 439.809C820.976 429.052 814.783 418.947 809.73 408.19C808.997 406.642 808.019 405.175 807.775 403.382C808.182 400.285 810.871 399.959 813.072 399.063C821.873 395.64 830.837 392.462 839.719 389.203C842.897 388.062 843.142 386.839 841.675 383.987C837.764 376.571 834.667 368.748 830.674 361.333C829.94 360.029 829.37 358.643 829.614 357.095C832.222 352.532 832.141 347.968 830.429 343.079C826.273 331.262 822.28 319.283 818.206 307.385C815.272 298.747 809.16 295.651 800.441 298.177C797.344 293.858 795.388 289.05 793.351 284.16C792.699 282.612 791.884 281.064 791.313 279.434C791.069 278.863 790.987 278.13 790.58 277.641C788.787 275.604 788.95 272.833 787.972 270.551C786.18 266.64 791.884 268.432 791.639 265.743C792.291 265.173 792.862 264.521 793.84 264.439C801.174 263.136 807.938 260.039 814.783 257.268C815.598 257.105 816.576 257.839 817.228 256.779C826.844 253.275 836.215 248.875 846.809 249.119C847.624 249.038 848.439 249.363 849.254 249.363C852.35 250.83 855.855 250.586 859.114 251.319C873.212 254.334 883.48 263.054 892.444 273.648C901.653 284.486 901.653 284.405 915.914 284.405C915.506 286.687 913.55 285.872 912.165 286.198C910.372 286.605 908.335 285.383 906.624 286.931C908.987 289.783 911.758 292.228 914.365 294.836C914.854 295.325 915.425 296.14 916.321 295.243C916.403 290.028 916.81 284.894 916.81 279.76C916.81 226.057 916.81 172.436 916.891 118.733C916.891 116.859 915.914 114.577 918.195 113.191C920.314 114.903 919.744 117.429 919.744 119.629C919.825 141.306 919.744 163.064 919.744 184.741C919.744 220.679 919.825 256.616 919.662 292.635C919.662 297.199 920.803 300.622 924.307 303.637C929.441 308.037 934.738 312.356 939.628 317.001C942.887 320.098 946.962 319.446 950.71 320.179C952.911 321.402 951.933 322.054 950.221 322.543C948.592 323.032 946.717 321.809 945.332 323.439C952.748 331.507 959.43 340.063 964.727 349.679C968.394 356.443 970.839 363.451 970.676 371.193C971.002 371.763 971.409 372.252 971.491 372.904C971.735 386.187 966.194 396.944 956.496 405.664C950.14 411.368 942.235 414.302 934.168 416.665C928.626 418.295 928.626 418.458 930.501 423.999C932.049 428.318 932.945 432.882 934.657 437.12C934.901 437.69 935.064 438.342 935.227 438.912C940.931 457.574 946.717 476.235 952.503 494.815C952.992 497.016 952.829 499.134 953.644 501.009Z" fill="#A8D8E8"/>
<path d="M555.396 91.5147C578.947 111.969 602.499 132.505 626.05 152.959C629.065 155.648 632.243 158.256 635.258 160.864C636.725 160.864 637.214 161.842 637.621 163.064C661.091 182.622 660.52 214.567 636.562 233.31C623.768 243.333 609.425 249.852 594.023 254.579C580.903 258.572 567.946 263.299 555.396 269.003C554.826 269.573 554.337 270.225 553.522 270.633C548.144 273.078 542.765 275.522 537.305 277.885C534.535 278.7 531.682 278.456 528.83 278.456C441.227 278.456 353.624 278.456 266.02 278.456C258.523 278.456 251.108 278.456 244.018 281.145C242.062 281.308 240.677 280.249 239.617 278.782C234.646 272.181 231.468 264.847 231.061 256.535C230.979 253.601 231.061 250.749 231.061 247.815C231.305 241.296 233.261 235.266 236.602 229.724C255.101 198.594 273.436 167.383 291.853 136.253C292.342 135.439 292.913 134.705 293.32 133.809C294.787 130.875 296.906 129.979 300.002 131.446C302.04 132.423 304.24 133.157 306.44 133.972C318.827 139.187 331.458 143.832 343.763 149.211C346.29 150.514 345.801 152.389 344.578 154.263C343.926 155.241 343.356 156.219 342.867 157.278C341.156 161.108 338.874 164.612 336.999 168.361C336.103 169.991 335.37 171.702 334.555 173.414C324.042 192.238 313.937 211.226 303.507 230.05C303.018 231.028 302.529 232.006 302.04 232.984C301.306 234.532 301.877 235.266 303.507 235.266C305.951 235.347 308.396 235.428 310.841 235.266C328.28 233.717 345.719 234.777 363.24 234.532C374.73 234.369 386.302 234.369 397.792 234.532C407.245 234.695 416.698 233.147 426.151 233.717C436.582 233.962 446.85 231.761 457.199 230.865C462.007 230.702 466.489 229.317 471.053 227.85C490.692 221.412 510.006 214.322 529.645 208.047C530.623 207.803 531.601 207.395 532.579 207.069C539.343 204.38 546.351 202.262 553.278 199.898C554.011 199.654 554.744 199.409 555.478 199.165C563.22 196.802 570.717 193.786 578.459 191.26C581.311 190.364 580.985 189.467 579.11 187.593C571.613 180.096 563.464 173.169 555.885 165.672C555.233 164.775 554.337 164.124 553.441 163.553C546.514 157.278 539.75 150.84 532.905 144.484C531.927 143.343 530.623 142.61 529.564 141.55C525.163 136.824 519.866 133.075 515.466 128.349C511.799 124.356 511.717 124.356 515.547 120.77C516.688 119.629 517.829 118.488 519.214 117.673C520.926 116.533 522.881 117.266 524.756 117.022C527.445 116.696 528.015 115.555 526.467 113.273C524.022 109.687 521.415 106.265 518.888 102.761C517.91 101.375 516.444 99.6639 518.481 98.197C520.437 96.8117 521.74 98.523 522.881 99.8269C525.652 103.168 528.015 106.835 530.542 110.339C531.927 112.214 533.068 112.702 535.105 111.154C537.061 109.687 537.794 108.383 536.083 106.265C533.394 102.842 530.868 99.3379 528.423 95.8338C527.445 94.3669 526.223 92.6556 528.097 91.1888C530.053 89.7219 531.357 91.5147 532.416 92.8186C535.105 96.1597 537.387 99.9083 540.158 103.249C542.358 105.857 543.499 105.613 545.129 102.598C546.514 100.071 545.617 97.2191 546.677 94.7744C548.633 92.7371 550.262 90.1294 553.441 89.7219C554.663 89.7219 554.826 90.7813 555.396 91.5147Z" fill="#3A3A49"/>
<path d="M242.632 280.575C248.989 277.397 255.834 277.152 262.842 277.152C352.645 277.234 442.449 277.234 532.334 277.234C534.371 277.234 536.408 277.478 538.283 276.5C543.417 276.011 548.469 275.767 553.603 276.256C554.337 276.337 554.988 276.745 555.64 277.234C567.131 277.234 578.702 277.315 590.193 277.315C607.876 277.315 617.411 286.768 617.411 304.37C617.411 392.136 617.411 479.902 617.411 567.669C617.411 584.945 607.795 594.479 590.437 594.561C560.693 594.561 531.03 594.561 501.286 594.561C499.819 594.561 498.352 594.724 496.804 594.805C495.581 596.109 493.951 596.191 492.322 596.191C472.438 596.191 452.635 596.354 432.751 596.109C424.358 596.191 415.964 596.272 407.571 596.109C407.082 596.109 406.511 596.109 406.022 596.109C384.183 596.354 362.343 597.005 340.585 596.028C312.307 594.724 284.03 595.865 255.752 595.213C244.099 596.68 230.49 586.004 230.246 569.054C230.083 558.949 230.164 548.763 230.246 538.658C230.246 537.924 230.246 537.109 230.164 536.376C230.001 467.108 229.92 397.759 230.164 328.492C230.164 327.677 230.164 326.943 230.164 326.128C230.083 319.609 230.001 313.008 230.246 306.489C230.816 303.8 231.142 301.111 231.06 298.34C232.283 290.517 235.135 283.997 242.632 280.575Z" fill="#4A5380"/>
<path d="M879.65 632.862C869.057 591.709 858.381 550.637 847.869 509.484C846.972 505.817 845.506 504.92 841.92 505.165C831.163 505.898 831 505.735 829.37 516.411C823.259 555.689 817.228 595.05 811.116 634.41C809.649 643.944 808.264 653.397 806.471 662.85C805.493 668.066 807.286 672.385 809.405 676.786C810.872 677.6 811.198 679.149 811.687 680.453C822.444 708.649 833.037 736.926 843.713 765.122C843.957 766.1 844.365 767.078 844.772 767.974C847.869 776.368 851.128 784.68 854.144 793.155C854.47 794.133 854.796 795.111 855.203 796.007C859.685 807.009 863.76 818.173 867.834 829.337C868.405 830.967 869.708 832.923 867.101 834.145C865.552 834.634 863.923 834.634 862.293 834.634C842.409 834.634 822.525 834.634 802.641 834.634C800.522 834.634 798.241 835.042 796.529 833.249C794.166 826.078 791.64 819.069 788.625 812.224C787.728 811.654 787.239 810.757 786.832 809.861C784.958 805.053 783.246 800.163 781.291 795.355C781.046 794.785 780.883 794.215 780.72 793.644C777.623 785.25 774.364 776.857 771.349 768.463C771.104 767.404 770.778 766.426 770.289 765.448C763.525 748.742 757.577 731.711 751.139 714.842C747.39 704.982 743.723 695.04 739.974 685.179C736.47 675.971 735.411 666.762 737.041 656.902C746.005 604.258 754.48 551.533 763.362 498.808C763.607 497.342 763.607 495.793 764.014 494.408C764.503 493.104 765.481 492.126 766.704 491.474C778.357 485.607 789.521 478.843 801.419 473.383C802.234 472.976 803.212 472.731 804.108 472.487C824.318 467.353 844.202 461.404 864.33 456.107C866.204 455.618 868.079 454.477 870.197 455.536C870.849 465.234 871.583 475.013 872.153 484.71C874.842 529.531 877.532 574.269 880.221 619.09C880.384 622.105 880.465 625.039 880.547 628.054C880.465 629.602 881.932 631.558 879.65 632.862Z" fill="#3A3A49"/>
<path d="M432.344 594.561C453.858 594.561 475.29 594.561 496.804 594.561C496.722 618.682 496.722 642.804 496.478 667.007C496.07 705.389 495.582 743.771 494.93 782.072C494.604 799.023 493.707 815.973 492.974 832.841C492.974 833.819 492.974 834.716 493.789 835.368C492.566 837.079 490.692 836.916 488.981 836.916C468.119 836.998 447.257 836.998 426.395 836.916C424.929 836.916 423.38 836.916 422.076 836.101C419.876 833.738 420.528 830.723 420.773 828.033C421.424 820.292 421.832 812.469 422.484 804.727C422.81 803.586 423.136 802.445 422.973 801.223C423.38 781.094 425.255 761.048 425.743 740.919C425.906 734.563 426.151 728.207 426.395 721.932C426.395 721.198 426.395 720.383 426.477 719.65C427.862 710.115 427.292 700.418 427.618 690.884C428.107 678.171 428.596 665.458 428.84 652.746C429.248 635.714 430.144 618.682 430.47 601.569C430.551 599.124 430.796 596.598 432.344 594.561Z" fill="#D1D1D1"/>
<path d="M796.529 833.167C820.324 833.249 844.201 833.249 867.997 833.33C869.463 834.227 869.545 835.775 869.952 837.16C872.234 844.658 873.946 852.236 875.82 859.897C876.472 862.667 877.45 863.156 879.894 861.608C887.718 856.8 895.541 852.073 903.445 847.428C904.668 846.858 905.972 846.287 907.031 845.391C913.224 841.642 919.499 837.894 925.774 834.145C927.811 832.923 929.849 832.026 932.212 832.026C953.889 831.782 975.565 831.945 997.242 831.945C999.035 831.945 1000.75 832.108 1002.29 833.249C1005.39 840.583 1006.61 848.488 1008.73 856.148C1011.83 867.394 1014.44 878.721 1017.53 889.885C1018.43 893.226 1017.53 893.634 1014.52 893.552C998.138 893.389 981.677 893.471 965.297 893.471C886.088 893.471 806.878 893.471 727.669 893.471C722.861 893.471 722.861 893.471 723.676 888.581C725.468 878.721 730.195 871.142 739.159 866.09C757.005 855.903 774.689 845.391 792.454 835.042C793.84 834.308 795.225 833.819 796.529 833.167Z" fill="black"/>
<path d="M421.913 835.531C444.568 835.531 467.141 835.531 489.796 835.531C491.181 835.531 492.485 835.449 493.789 835.368C507.724 843.435 521.659 851.422 535.594 859.489C541.217 862.749 546.84 866.008 552.381 869.35C561.508 874.891 565.338 883.448 566.398 893.634C566.561 895.019 566.153 895.671 564.686 895.671C563.709 895.671 562.812 895.671 561.834 895.671C526.141 895.671 490.448 895.59 454.754 895.671C429.655 895.671 404.556 895.916 379.456 895.997C378.641 896.731 377.582 896.975 376.523 897.057C362.669 897.138 348.897 897.301 335.043 896.975C334.229 896.894 333.577 896.486 332.843 896.079C314.1 895.997 295.276 895.997 276.533 895.916C275.066 895.916 273.599 895.916 271.725 895.916C274.251 885.729 276.614 875.787 279.059 865.927C278.733 865.275 278.57 864.623 278.651 863.971C280.444 856.148 282.481 848.325 284.437 840.502C284.926 838.709 285.252 836.753 287.208 835.775C289.327 835.042 291.527 835.205 293.646 835.205C312.796 835.694 331.947 834.39 351.179 834.39C353.379 834.39 355.498 834.308 357.617 834.96C367.151 839.524 376.197 845.065 385.324 850.281C395.755 856.311 406.023 862.749 416.453 868.698C424.195 873.098 428.677 879.617 430.388 888.174C430.551 889.07 430.47 890.048 431.611 890.945C431.203 882.307 427.455 875.624 421.017 870.572C418.246 868.372 417.676 866.334 418.002 862.993C418.654 855.741 419.713 848.488 420.039 841.154C420.121 839.116 420.284 837.079 421.913 835.531Z" fill="black"/>
<path d="M67.8338 895.101C67.6708 881.166 66.4485 867.231 68.3228 853.377C71.012 833.249 84.4581 819.64 104.423 815.076C104.912 814.995 105.401 814.669 105.972 814.506C106.542 814.017 107.113 813.691 107.846 813.528C113.388 812.632 118.929 812.224 124.47 812.713C126.1 813.121 127.648 814.18 129.441 812.958C132.701 812.306 136.042 812.795 139.302 812.469C141.013 812.387 142.561 814.18 144.436 812.876C153.807 812.224 163.179 812.306 172.387 813.935C193.982 817.684 212.725 838.057 210.362 864.134C210.281 864.868 209.873 865.438 209.547 866.008C209.466 875.706 209.303 885.403 209.221 895.101C202.784 896.079 196.264 895.182 189.826 895.59C174.18 896.568 158.452 896.812 142.806 896.242C118.603 895.264 94.4 895.834 70.1971 895.59C69.3822 895.508 68.5672 895.671 67.8338 895.101Z" fill="#202B6D"/>
<path d="M1002.38 833.249C978.662 833.249 954.866 833.249 931.152 833.249C928.463 829.908 928.626 825.589 927.404 821.758C927.241 820.944 926.915 820.129 926.67 819.232C922.27 802.364 917.869 785.576 913.632 768.626C913.469 767.567 913.061 766.507 912.817 765.448C908.335 748.661 904.016 731.792 899.778 714.923C899.371 713.294 898.637 711.582 899.452 709.789C904.016 707.263 909.231 707.019 914.202 705.878C931.071 701.966 947.94 698.299 964.808 694.469C965.623 694.306 966.357 693.98 967.172 694.388C978.906 740.675 990.641 786.962 1002.38 833.249Z" fill="#3A3A49"/>
<path d="M128.789 813.772C127.729 815.973 126.67 814.424 125.611 813.772C122.432 810.513 122.025 806.031 120.477 802.119C118.032 795.6 115.669 788.999 113.468 782.398C113.142 781.42 112.898 780.443 112.49 779.465C110.698 774.738 109.068 770.012 107.519 765.204C106.867 763.085 105.89 761.129 105.156 759.01C100.919 746.787 96.2736 734.726 92.199 722.421C91.9545 721.606 91.9545 720.791 92.036 719.976C89.7542 710.93 86.1686 702.292 83.072 693.573C60.1729 629.032 37.1108 564.49 14.2117 499.868C13.3967 497.668 12.3373 496.201 10.3816 494.978C-0.619797 488.133 -3.06451 477.132 3.94376 466.049C53.1646 387.817 102.385 309.586 151.606 231.354C157.637 221.819 166.193 217.745 175.157 221.168C186.322 225.487 193.819 232.087 193.167 243.822C192.922 247.734 191.374 251.156 189.255 254.334C188.44 255.557 187.462 256.616 189.174 258.165C194.878 263.136 200.501 268.188 206.206 273.24C207.591 273.403 208.406 274.544 209.384 275.359C216.148 281.553 223.156 287.501 229.757 293.858C231.386 295.325 231.957 296.791 230.164 298.503C228.697 299.236 227.556 298.421 226.578 297.525C220.467 292.065 214.355 286.605 208.324 281.064C207.346 280.086 206.45 279.108 205.391 278.293C200.094 273.811 194.96 269.247 189.989 264.439C186.811 261.424 186.159 261.506 183.877 265.091C158.94 304.859 133.923 344.545 108.905 384.232C87.065 419.028 65.1438 453.825 43.2226 488.541C41.1853 491.8 38.985 494.897 35.8884 497.179C33.8511 498.645 33.7696 500.357 34.5031 502.476C43.7116 527.656 52.5126 553.082 61.5582 578.344C69.5443 600.673 77.4491 623.083 85.4352 645.411C92.199 664.48 98.9628 683.468 105.727 702.537C105.971 703.27 106.216 704.085 106.379 704.9C106.949 706.856 107.845 708.649 108.497 710.523C116.646 733.34 124.796 756.24 132.945 779.057C133.189 780.035 133.434 781.094 133.841 781.991C137.182 790.792 140.36 799.674 143.376 808.557C143.946 810.187 144.924 811.817 143.783 813.528C142.072 816.543 141.501 813.772 140.605 812.876C139.138 812.306 138.812 810.92 138.323 809.698C135.064 800.652 131.641 791.688 128.707 782.561C128.3 781.176 127.892 779.791 127.24 778.487C120.558 760.07 113.957 741.571 107.519 723.073C106.949 721.117 106.216 719.161 105.319 717.368C89.2653 672.059 73.2115 626.831 57.0762 581.604C48.1936 556.586 39.311 531.486 30.347 506.469C28.7171 501.987 29.3691 500.275 23.1757 501.172C22.1163 501.335 21.057 500.846 19.2641 501.09C21.3014 505.98 22.6868 510.869 24.3981 515.677C32.7102 538.658 40.7779 561.72 49.0085 584.7C61.5582 619.823 74.0264 655.027 86.4946 690.15C89.9987 700.011 93.5843 709.789 97.007 719.65C97.3329 720.628 97.5774 721.606 97.9849 722.584C100.837 730.488 103.526 738.393 106.379 746.298C107.03 748.416 107.682 750.535 108.579 752.572C111.675 761.292 115.017 769.93 117.787 778.731C118.032 779.953 118.602 781.013 119.091 782.154C122.595 791.281 125.611 800.652 129.033 809.861C129.278 811.165 129.767 812.469 128.789 813.772Z" fill="#3A3A49"/>
<path d="M684.234 380.728C685.701 376.816 683.827 373.067 683.256 369.4C680.404 351.228 677.226 333.137 674.129 315.046C673.151 309.423 673.07 309.504 678.285 307.793C678.937 307.63 679.589 307.304 680.16 307.141C680.893 306.326 681.789 305.674 682.849 305.348C691.813 302.822 700.777 300.214 709.822 297.932C710.474 297.769 711.126 297.769 711.86 297.932C713.653 298.91 713.816 300.785 714.305 302.414C716.994 312.356 719.764 322.298 722.372 332.24C722.78 333.707 723.024 335.174 724.002 336.396C723.513 332.811 722.698 329.307 721.639 325.802C719.275 317.572 717.32 309.341 714.956 301.111C714.549 299.644 714.142 298.258 714.386 296.71C715.853 293.532 717.727 290.924 721.802 291.495C724.491 294.917 725.224 299.073 726.528 302.985C732.151 319.202 738.019 335.255 743.641 351.472C744.212 353.102 744.945 354.732 745.027 356.525C744.782 358.806 742.908 359.54 741.278 360.436C730.277 366.548 719.031 372.334 707.867 378.201C705.34 379.505 702.814 380.809 700.369 382.357C695.806 385.291 694.747 388.714 697.273 393.44C701.836 402.078 706.4 410.716 710.963 419.354C719.683 435.653 728.321 451.869 736.878 468.249C738.263 470.857 739.974 473.383 741.197 476.072C741.767 477.376 743.234 478.925 741.278 480.391C733.862 481.614 726.528 481.043 719.52 478.191C717.972 477.295 716.097 477.05 714.956 475.502C714.875 474.768 714.467 474.279 713.897 473.954C702.896 466.864 697.68 456.351 695.725 443.72C692.546 423.755 689.042 403.871 685.701 383.906C685.212 382.928 683.908 382.194 684.234 380.728Z" fill="#6DB5DE"/>
<path d="M829.859 357.014C834.585 366.548 839.23 376.164 844.12 385.617C845.342 387.98 844.446 388.551 842.49 389.284C832.059 393.114 821.709 396.944 811.36 400.856C810.137 401.345 808.1 401.263 808.752 403.545C807.937 404.849 806.796 405.093 805.411 404.767C804.107 404.36 803.537 403.219 802.966 402.16C793.921 384.965 784.794 367.77 775.585 350.657C774.852 349.19 774.281 347.724 773.711 346.175C772.977 344.138 772.325 342.019 771.266 340.145C769.31 336.478 766.295 334.196 762.057 335.011C758.553 335.663 757.249 334.196 756.19 331.181C751.301 317.409 746.9 303.392 741.929 289.702C740.299 285.301 740.951 283.916 745.352 282.367C746.737 281.879 748.122 281.39 749.589 280.982C758.39 277.641 767.436 274.789 776.318 271.774C778.111 271.203 779.904 270.551 781.86 271.04C783.816 270.144 784.957 270.551 785.69 272.833C788.379 281.145 791.231 289.457 794.165 297.769C794.817 299.644 794.491 300.214 792.617 300.948C781.86 305.022 779.415 310.482 783.164 321.483C787.32 333.626 791.394 345.768 795.713 357.828C797.914 364.103 804.515 367.526 810.708 366.059C811.93 365.733 813.316 365.489 812.827 363.777C812.419 362.31 811.197 362.799 810.137 362.962C803.863 363.696 800.277 361.577 798.24 355.791C793.921 343.323 789.602 330.773 785.364 318.305C783.164 311.786 785.609 306.815 792.046 304.452C795.469 303.229 798.973 302.17 802.396 301.029C804.189 301.844 804.759 303.555 805.574 305.104C812.908 319.446 819.835 333.951 826.843 348.457C827.577 349.924 827.821 351.554 828.31 353.02C827.495 355.791 825.458 357.502 823.013 358.643C821.954 359.132 820.976 359.621 821.628 360.925C822.28 362.31 823.258 361.822 824.317 361.414C826.517 360.518 828.066 358.643 829.859 357.014Z" fill="black"/>
<path d="M781.861 270.959C771.267 274.544 760.755 278.13 750.161 281.634C747.879 280.249 747.308 277.722 746.168 275.685C743.234 270.144 744.456 270.47 738.507 272.589C731.744 275.033 724.817 276.989 717.483 275.604C714.141 275.033 711.126 273.648 707.459 271.774C709.822 280.412 712.675 288.153 713.082 296.384C713.082 297.28 712.675 298.014 711.86 298.34C701.347 301.273 690.753 304.126 680.241 307.059C673.151 290.843 670.707 273.322 666.795 256.29C664.839 247.652 667.202 242.6 674.862 238.036C678.285 235.999 682.278 234.695 685.13 231.68C688.309 234.125 689.368 237.058 687.494 239.666C683.582 245.044 683.664 250.586 686.027 256.453C687.168 261.75 688.879 266.884 690.346 272.1C690.509 272.752 690.753 273.403 690.998 273.974C691.405 274.87 692.057 275.685 693.117 275.522C694.583 275.278 694.583 274.055 694.42 272.996C694.094 270.144 693.524 267.373 693.28 264.521C693.198 263.706 693.198 262.891 693.687 262.158C694.584 261.424 695.643 261.343 696.784 261.343C703.059 261.261 706.726 257.757 708.845 252.216C710.556 247.652 710.719 247.571 715.282 248.956C721.965 251.075 729.054 247.652 731.173 241.459C733.455 234.777 730.114 227.279 723.757 224.998C717.157 222.634 709.985 225.894 707.541 232.576C705.829 237.14 705.585 238.851 699.717 236.406C697.68 235.51 695.48 235.754 693.28 236.406C690.346 237.221 689.042 235.673 688.227 233.147C687.331 230.621 688.553 229.235 690.672 228.339C701.347 223.694 711.534 217.908 722.291 213.426C734.188 208.455 746.086 209.922 757.495 215.952C762.629 215.463 767.111 216.93 769.474 221.738C772 226.872 770.045 231.598 766.215 235.347C764.177 237.384 764.259 238.933 765.563 241.296C770.452 250.26 775.179 259.387 779.987 268.432C780.475 269.329 781.209 270.144 781.861 270.959Z" fill="#FBC4B4"/>
<path d="M757.494 216.034C750.975 214.241 744.619 211.877 737.773 211.796C731.254 211.633 725.142 212.692 719.356 215.789C710.066 220.841 700.45 225.161 690.834 229.561C689.531 230.131 687.656 230.457 688.96 232.576C689.857 233.962 689.449 236.977 692.79 235.673C697.028 233.962 701.021 235.347 705.258 237.629C705.91 231.68 708.192 226.79 713.896 224.427C717.401 222.96 720.986 222.879 724.572 224.264C731.906 227.198 735.247 235.673 731.988 242.844C728.483 250.586 720.334 252.868 710.963 248.386C710.229 252.542 709.17 256.535 705.747 259.468C702.243 262.402 698.25 262.891 693.931 262.647C689.286 263.217 686.923 260.202 685.048 256.698C682.115 250.423 682.278 244.637 686.923 239.014C689.042 236.488 685.782 234.288 685.212 231.843C685.049 230.457 683.745 230.457 682.848 229.969C674.944 225.812 670.299 217.256 671.195 208.455C672.01 200.469 679.833 194.194 689.857 193.46C695.235 193.053 700.45 193.868 705.177 196.394C707.459 197.535 708.844 197.291 710.8 195.661C719.275 188.734 728.646 186.208 739.077 190.934C743.152 192.808 746.412 195.661 748.612 199.491C751.79 204.788 755.457 210.003 757.494 216.034Z" fill="black"/>
<path d="M714.956 475.665C716.504 475.828 717.971 476.154 719.112 477.295C717.156 479.414 714.548 478.762 712.185 478.762C686.678 478.843 661.171 478.762 635.664 478.762C634.279 478.762 632.975 478.843 631.59 478.762C628.901 478.68 627.515 479.821 627.597 482.592C627.597 483.814 627.597 485.036 627.597 486.259C627.597 576.47 627.597 666.681 627.597 756.81C627.597 764.307 627.597 764.307 635.257 764.307C678.121 764.307 720.986 764.307 763.85 764.307C766.377 764.307 769.066 763.737 771.266 765.774C772 766.345 772.081 767.159 772 767.974C770.37 769.686 768.251 769.36 766.295 769.36C755.701 769.441 745.107 769.36 734.513 769.36C729.705 769.36 729.379 769.767 729.379 774.412C729.298 778.487 729.379 782.561 729.379 786.636C729.461 791.607 729.705 792.014 734.676 792.014C748.204 792.096 761.813 792.014 775.341 792.014C777.541 792.014 779.741 791.851 781.615 793.237C781.778 793.807 782.023 794.378 782.186 794.866C780.638 796.415 778.682 796.089 776.808 796.089C772.081 796.17 767.273 796.17 762.547 796.089C759.857 796.089 758.798 797.23 758.635 800C758.146 808.965 758.146 808.883 767.192 809.046C774.118 809.209 781.045 808.313 787.89 809.616C788.135 810.431 788.379 811.165 788.542 811.98C778.519 812.061 768.495 812.061 758.472 812.143C756.027 812.143 754.968 811.491 755.131 808.883C755.294 805.46 754.968 802.119 755.212 798.697C755.457 795.518 754.153 794.785 751.219 794.866C744.129 795.029 737.121 794.785 730.031 795.029C726.853 795.111 725.712 794.215 725.794 790.955C726.038 784.354 725.794 777.672 725.875 770.99C725.957 768.545 725.223 767.73 722.697 767.73C709.822 767.811 696.946 767.811 684.07 767.73C681.707 767.73 680.729 768.219 680.811 770.827C680.892 785.495 680.974 800.163 680.811 814.75C680.729 817.847 682.603 818.173 684.559 819.069C699.391 825.915 708.029 837.323 708.599 853.785C709.17 870.653 701.428 883.04 686.515 890.619C667.039 900.398 643.325 891.678 633.953 871.794C624.826 852.481 633.383 828.767 652.941 819.966C657.015 818.173 658.401 816.136 658.319 811.654C657.912 798.208 658.075 784.762 658.238 771.397C658.238 768.545 657.504 767.648 654.652 767.73C645.932 767.893 637.294 767.648 628.575 767.893C624.989 767.974 623.93 766.915 624.011 763.329C624.174 736.03 624.093 708.812 624.093 681.512C624.093 614.526 624.093 547.459 624.011 480.473C624.011 476.398 624.907 475.258 629.145 475.258C657.667 475.746 686.352 475.583 714.956 475.665Z" fill="#3A3A49"/>
<path d="M208.325 275.522C207.591 274.707 206.776 273.974 206.043 273.159C206.043 271.285 206.124 269.329 206.124 267.455C206.124 180.096 206.124 92.7371 206.124 5.29694C206.124 0 206.124 0 211.34 0C324.287 0 437.152 0 550.099 0C555.396 0 555.396 2.33149e-06 555.396 5.13396C555.396 33.9004 555.315 62.6668 555.315 91.4333C554.744 90.8628 554.255 90.2924 553.685 89.722C551.974 87.7662 552.462 85.3214 552.462 83.1212C552.462 58.9997 552.462 34.7968 552.462 10.6754C552.462 9.29002 552.462 7.98616 552.381 6.6008C552.3 4.48203 551.403 3.34114 549.203 3.25965C547.817 3.17816 546.514 3.17816 545.128 3.17816C435.767 3.17816 326.324 3.17816 216.963 3.17816C209.873 3.17816 209.873 3.17816 209.873 10.4309C209.873 96.0783 209.873 181.726 209.792 267.292C209.792 270.144 210.688 273.159 208.325 275.522Z" fill="#3A3A49"/>
<path d="M918.603 113.517C917.218 114.903 917.87 116.614 917.87 118.162C917.87 176.836 917.87 235.591 917.87 294.265C917.87 295.488 918.195 296.873 917.707 297.851C917.055 299.236 916.647 297.769 916.158 297.362C915.017 295.732 914.936 293.858 915.017 291.983C915.18 289.05 913.795 287.909 910.943 288.072C909.069 288.153 907.194 287.99 905.564 286.931C904.424 286.198 903.609 285.464 905.89 285.22C909.313 284.894 912.817 286.035 916.158 284.486C916.24 282.856 916.321 281.227 916.321 279.597C916.321 225.161 916.403 170.806 916.24 116.37C916.24 112.377 917.299 111.317 921.211 111.48C930.582 111.725 939.954 111.725 949.325 111.48C952.829 111.399 953.889 112.214 953.889 115.881C953.726 140.736 953.807 165.509 953.807 190.364C953.807 232.576 953.807 274.707 953.807 316.92C953.807 324.254 954.622 323.195 947.614 323.358C946.962 323.358 946.228 323.439 945.576 323.439C944.436 322.624 943.621 322.054 945.902 321.809C947.94 321.565 950.14 322.706 952.014 320.994C950.303 318.713 950.792 316.023 950.792 313.497C950.792 250.178 950.792 186.86 950.792 123.541C950.792 113.925 951.281 114.74 941.991 114.658C936.042 114.658 930.093 114.658 924.063 114.658C922.107 114.821 920.233 114.903 918.603 113.517Z" fill="#3A3A49"/>
<path d="M934.249 439.32C934.249 438.749 934.168 438.097 934.168 437.527C936.287 435.734 938.813 436.305 941.176 436.305C972.143 436.305 1003.03 436.305 1033.99 436.305C1042.06 436.305 1042.06 436.305 1042.06 428.237C1042.06 412.754 1042.06 397.352 1042.06 381.868C1042.06 374.616 1042.06 374.616 1034.97 374.616C1015.74 374.616 996.427 374.616 977.195 374.616C975.076 374.616 972.795 374.942 970.92 373.475C970.92 372.823 970.92 372.171 970.92 371.438C993.982 371.519 1017.04 371.6 1040.11 371.438C1044.02 371.438 1045.08 372.497 1045 376.408C1044.83 395.966 1044.83 415.443 1045 435.001C1045 438.342 1044.18 439.32 1040.76 439.32C1013.38 439.157 985.996 439.32 958.615 439.157C955.03 439.157 953.807 439.89 953.889 443.72C954.052 462.871 953.889 481.94 953.807 501.09C952.422 499.379 952.259 497.342 952.177 495.304C951.281 491.637 950.955 487.889 950.955 484.059C951.037 471.346 951.037 458.552 950.955 445.839C950.955 440.868 950.548 440.705 945.577 440.461C941.665 440.298 937.754 441.194 934.249 439.32Z" fill="#3A3A49"/>
<path d="M817.065 257.35C816.576 258.328 815.924 257.839 815.272 257.594C812.99 257.594 812.175 255.557 811.116 254.171C802.152 242.6 792.943 231.272 783.735 219.375C787.239 232.739 790.01 245.941 793.269 259.061C793.758 260.935 794.899 262.891 793.432 264.847C793.351 265.825 793.025 266.395 791.884 265.743C787.565 247.571 783.246 229.48 779.008 211.307C776.075 198.757 784.061 188.489 796.04 189.141C800.93 189.386 804.923 191.586 807.856 195.416C821.791 213.426 835.645 231.435 849.498 249.445C849.009 250.178 848.276 250.178 847.542 250.178C843.549 247.571 841.43 243.333 838.578 239.747C827.496 225.731 816.739 211.388 805.574 197.372C801.989 192.89 797.262 190.69 791.558 192.32C785.772 193.949 782.35 197.942 781.453 203.891C780.801 208.373 782.757 212.04 785.446 215.463C795.388 228.176 805.574 240.725 815.353 253.52C816.331 254.66 817.717 255.557 817.065 257.35Z" fill="#3A3A49"/>
<path d="M92.0363 719.976C92.6882 720.383 92.8512 720.954 92.8512 721.687C91.3029 723.236 89.3471 722.91 87.4727 722.91C81.1979 722.991 75.0045 722.991 68.7296 722.91C65.5514 722.828 64.003 723.806 64.003 727.31C64.0845 750.209 64.0031 773.19 64.0845 796.089C64.0845 800.408 64.655 800.897 69.1371 800.978C79.4865 801.06 89.7545 800.897 100.104 801.06C103.445 801.06 104.668 799.837 104.668 796.496C104.586 786.065 104.586 775.635 104.668 765.204C104.668 763.085 104.26 760.803 106.053 759.092C106.786 761.048 107.52 762.922 108.253 764.878C108.009 767.159 108.987 769.441 108.661 771.723C108.172 775.553 108.987 778.65 113.306 779.628C114.039 780.198 114.039 781.013 114.039 781.909C108.579 783.376 108.416 787.451 108.661 792.177C108.987 797.963 108.742 803.749 108.742 809.535C108.742 811.246 108.905 813.039 107.683 814.506C107.112 814.587 106.46 814.587 105.89 814.669C105.808 811.328 106.949 806.846 105.238 804.89C103.201 802.527 98.6371 804.157 95.133 804.075C84.9465 803.994 74.76 803.994 64.5735 804.075C61.9657 804.075 61.0693 803.423 61.0693 800.652C61.1508 774.901 61.1508 749.068 61.0693 723.317C61.0693 720.872 61.7213 719.976 64.2475 720.057C73.5376 720.057 82.8277 719.976 92.0363 719.976Z" fill="#3A3A49"/>
<path d="M828.148 352.857C820.325 336.967 812.42 320.994 804.597 305.104C803.864 303.637 803.049 302.251 802.315 300.866C808.101 299.318 813.072 301.599 815.028 307.059C819.591 320.179 823.992 333.381 828.474 346.583C829.207 348.783 829.044 350.82 828.148 352.857Z" fill="#6DB5DE"/>
<path d="M67.834 895.101C114.936 895.101 162.038 895.101 209.14 895.101C207.999 896.242 206.614 895.671 205.31 895.671C198.383 895.753 191.456 895.671 184.529 895.671C182.492 895.671 180.292 895.264 180.536 898.523C180.618 900.235 179.07 900.153 177.847 900.153C164.157 900.153 150.466 900.153 136.694 900.153C135.635 900.153 134.086 900.316 134.086 898.849C134.086 894.856 131.316 895.671 129.034 895.671C110.046 895.671 91.059 895.671 71.9901 895.671C70.6862 895.671 69.1378 896.323 67.834 895.101Z" fill="#5982AF"/>
<path d="M209.466 865.927C209.466 865.275 209.466 864.623 209.547 863.971C211.014 862.749 212.889 862.83 214.6 862.83C234.402 862.83 254.205 862.83 274.007 862.83C275.882 862.83 277.837 862.586 279.386 864.134C279.304 864.705 279.223 865.275 279.141 865.927C255.916 865.927 232.691 865.927 209.466 865.927Z" fill="#5881AE"/>
<path d="M377.175 895.997C377.99 895.997 378.805 895.997 379.538 895.997C379.864 899.175 378.642 900.316 375.219 900.235C362.425 899.99 349.631 899.99 336.756 900.235C333.333 900.316 332.437 899.012 332.926 896.079C333.496 896.079 334.148 896.079 334.718 895.997C335.859 897.301 337.408 897.138 338.874 897.138C350.202 897.138 361.61 897.138 372.938 897.138C374.486 897.138 376.034 897.301 377.175 895.997Z" fill="#5982AF"/>
<path d="M794.002 283.671C796.366 288.398 799.299 292.961 800.685 298.095C798.892 298.747 797.588 299.155 796.936 296.466C795.958 292.472 794.491 288.561 793.187 284.568C792.698 283.671 793.269 283.59 794.002 283.671Z" fill="#08090A"/>
<path d="M684.234 380.727C685.293 381.624 686.108 382.52 685.701 384.069C680.811 380.564 676.411 376.571 672.418 371.926C676.981 373.964 680.404 377.549 684.234 380.727Z" fill="#3A3A49"/>
<path d="M637.621 162.983C636.806 162.249 636.073 161.516 635.258 160.782C638.843 158.338 640.473 153.856 645.199 151.085C643.57 156.463 638.599 158.501 637.621 162.983Z" fill="#3A3A49"/>
<path d="M555.559 277.07C554.907 277.07 554.336 277.07 553.684 276.989C552.217 274.626 552.217 272.262 553.766 269.899C554.336 269.573 554.907 269.329 555.396 269.003C555.477 271.692 555.477 274.381 555.559 277.07Z" fill="#567FAB"/>
<path d="M794.003 283.671C793.759 283.997 793.433 284.323 793.188 284.649C792.455 283.019 790.987 281.553 791.639 279.515C793.025 280.493 793.433 282.123 794.003 283.671Z" fill="#20272A"/>
<path d="M918.602 113.517C928.463 113.517 938.405 113.599 948.265 113.354C951.444 113.273 952.014 114.414 952.014 117.266C951.933 143.832 951.932 170.398 951.932 196.965C951.932 238.281 951.933 279.678 951.851 320.994C945.576 322.298 940.768 320.179 936.286 315.697C931.478 310.808 926.1 306.407 920.803 302.007C919.173 300.703 918.439 299.318 918.439 297.199C918.602 235.999 918.602 174.799 918.602 113.517Z" fill="#FEFEFE"/>
<path d="M899.452 709.789C904.26 728.451 908.987 747.113 913.795 765.774C912.409 766.996 910.779 766.833 909.15 766.833C888.695 766.833 868.16 766.833 847.705 766.833C846.075 766.833 844.446 766.915 842.979 765.856C833.2 740.023 823.421 714.271 813.642 688.439C812.175 684.527 810.79 680.534 809.404 676.622C813.397 675.482 817.472 676.134 821.465 676.052C840.778 675.645 860.173 675.4 879.487 674.993C882.584 674.911 883.643 675.726 883.724 678.986C884.05 689.009 884.865 698.951 885.273 708.975C885.354 711.582 886.169 712.071 888.695 711.582C892.281 710.93 895.704 709.056 899.452 709.789Z" fill="#FEFEFE"/>
<path d="M805.493 404.36C806.552 404.116 807.693 403.871 808.753 403.627C814.783 415.524 820.813 427.422 826.844 439.401C826.762 440.461 825.947 440.868 825.132 441.194C802.722 449.099 780.231 456.84 757.495 463.849C750.975 465.886 744.945 464.908 739.648 460.345C738.018 458.959 736.388 457.411 736.714 454.885C737.855 453.092 739.811 452.847 741.522 452.195C747.879 449.995 754.398 448.121 761.162 445.106C759.45 444.617 758.391 445.269 757.413 445.513C751.464 447.306 745.76 449.751 739.811 451.625C738.344 452.114 736.796 452.929 735.166 452.114C733.536 449.995 732.558 447.632 733.373 444.943C734.514 443.394 736.307 443.068 737.937 442.498C743.152 440.705 748.449 439.075 753.664 437.201C754.968 436.712 756.598 436.631 757.658 435.082C749.427 437.038 742.011 440.787 733.862 442.335C731.58 442.09 731.499 440.542 731.825 438.749C732.477 435.327 734.025 432.23 736.877 430.274C741.767 426.933 746.819 423.836 752.279 421.555C754.479 421.718 756.598 421.229 758.554 420.414C765.155 417.725 772.082 415.932 778.519 412.917C773.059 414.058 767.925 416.095 762.629 417.643C761.162 418.132 759.45 419.517 757.983 417.399C763.036 409.738 770.289 405.012 779.171 404.034C787.891 403.219 796.773 403.382 805.493 404.36Z" fill="#FBC4B4"/>
<path d="M817.064 257.35C805.982 243.17 794.736 228.991 783.735 214.73C776.726 205.684 781.045 193.542 791.965 191.179C797.507 189.956 802.396 191.749 805.819 196.068C819.835 213.996 833.689 232.087 847.542 250.178C839.149 250.097 831.325 252.623 823.584 255.638C821.546 256.453 819.509 257.676 817.064 257.35Z" fill="#FEFEFE"/>
<path d="M824.888 440.216C825.54 439.89 826.192 439.646 826.762 439.32C827.822 441.357 829.207 443.231 829.94 445.35C831.244 449.099 833.282 449.262 836.704 448.039C846.483 444.535 856.425 441.52 866.204 438.097C868.567 437.282 869.301 437.69 869.382 440.135C869.545 445.269 869.871 450.403 870.034 455.455C848.52 461.404 827.007 467.271 805.411 473.22C804.759 473.383 804.107 473.383 803.374 473.465C803.374 471.183 805.248 470.612 806.797 469.961C812.42 467.353 817.717 464.012 823.258 461.241C829.288 458.226 830.348 454.396 827.496 448.202C826.518 445.676 823.421 443.639 824.888 440.216Z" fill="black"/>
<path d="M793.351 264.928C790.01 250.423 786.588 235.917 783.247 221.493C782.921 220.19 782.676 218.886 783.084 217.256C793.759 230.783 804.515 244.23 815.191 257.757C814.702 259.387 813.153 259.468 811.931 259.876C806.96 261.669 801.989 263.38 797.018 265.173C795.796 265.499 794.574 266.232 793.351 264.928Z" fill="#FEFEFE"/>
<path d="M934.249 439.32C939.22 439.238 944.273 439.32 949.244 439.157C951.688 439.075 952.177 439.972 952.177 442.172C952.096 459.855 952.096 477.539 952.096 495.304C948.021 485.851 945.821 475.828 942.561 466.049C939.546 457.166 936.938 448.202 934.249 439.32Z" fill="#FEFEFE"/>
<path d="M905.646 286.931C905.808 286.931 905.89 286.931 906.053 286.849C916.81 286.442 916.81 286.442 916.158 297.362C912.328 294.265 908.824 290.761 905.646 286.931Z" fill="#FDFDFE"/>
<path d="M879.65 632.862C881.036 631.395 879.813 629.521 880.465 627.972C881.525 630.661 881.036 633.514 881.199 637.344C880.139 635.388 879.569 634.247 879.65 632.862Z" fill="#83614C"/>
<path d="M519.785 118.081C519.622 118.244 519.459 118.488 519.214 118.651C512.614 124.356 512.614 124.356 519.296 130.468C523.126 133.972 526.793 137.557 530.46 141.061C531.275 142.936 531.438 144.973 531.438 147.01C531.438 165.753 531.438 184.496 531.438 203.158C531.438 205.032 531.683 206.988 530.297 208.618C508.947 215.952 487.514 223.286 466.163 230.539C463.474 231.435 460.622 231.68 457.77 231.517C455.325 225.975 455.651 220.19 456.059 214.404C456.221 212.448 457.851 211.877 459.563 211.633C462.822 211.225 465.919 210.329 469.097 209.514C483.44 205.521 489.959 196.15 488.9 180.177C488.655 176.836 488.329 173.414 488.329 170.072C488.248 168.769 488.003 167.465 487.677 166.161C486.944 161.108 485.558 156.137 485.803 151.003C491.263 144.729 491.344 144.077 485.966 137.313C484.499 135.52 484.907 133.809 485.558 132.016C486.455 129.408 485.721 128.593 482.951 128.919C467.06 130.957 451.251 132.912 435.36 135.357C426.314 136.742 420.61 142.284 417.921 151.003C417.432 152.552 417.187 154.182 415.394 154.996C407.327 155.893 399.178 155.404 391.11 155.322C387.85 155.322 387.361 152.796 387.361 150.188C387.361 141.55 387.361 132.912 387.361 124.274C387.361 118.896 387.28 118.896 381.901 118.814C378.56 118.733 375.138 119.303 371.796 118.325C369.759 116.859 370.493 114.74 370.737 112.784C371.063 110.258 371.145 107.732 371.878 105.287C372.448 103.087 373.752 101.131 373.263 98.686C373.671 95.2633 374.812 92.0852 376.197 88.9885C379.212 82.3877 378.805 76.1944 374.975 70.164C374.404 69.2676 373.508 69.1861 372.611 69.2676C370.411 68.7787 368.455 67.7193 366.988 66.0079C366.174 64.6226 364.87 64.4596 363.403 64.6226C354.602 62.7483 348.164 65.9265 343.519 73.5866C333.169 90.7813 323.228 108.22 313.123 125.497C311.9 127.615 310.678 129.734 309.456 131.853C308.641 133.157 308.152 134.95 306.114 135.031C305.462 134.868 304.811 134.705 304.159 134.461C295.846 131.201 295.846 131.201 291.364 138.78C273.599 168.932 255.753 199.083 237.988 229.235C234.728 234.776 232.446 240.644 231.957 247.163C230.164 246.756 230.327 245.207 230.164 243.904C230.001 242.437 230.083 240.888 230.083 239.422C230.083 170.072 230.083 100.805 230.083 31.4556C230.083 22.7361 230.083 22.736 238.965 22.736C333.414 22.736 427.781 22.736 522.23 22.736C523.615 22.736 524.919 22.6546 526.304 22.736C530.053 22.899 531.275 23.9584 531.275 27.707C531.275 43.2719 531.601 58.9182 531.112 74.483C530.786 76.3573 529.238 76.9278 527.689 77.5797C519.622 80.6764 512.777 85.8103 506.583 91.6777C501.449 96.5672 501.286 102.353 506.013 107.894C508.783 111.236 511.962 114.169 516.281 115.636C517.747 116.044 519.377 116.288 519.785 118.081Z" fill="#FEFEFE"/>
<path d="M425.906 234.777C408.304 235.673 390.702 235.347 373.1 235.591C349.223 235.917 325.427 236.08 301.55 236.243C300.899 236.243 300.247 236.243 298.698 236.243C310.677 214.485 322.331 193.216 333.984 171.947C344.985 171.376 355.905 171.784 366.907 171.784C370.166 171.784 370.9 173.984 370.981 176.755C371.063 184.089 370.981 191.423 370.981 198.757C370.981 209.188 370.981 209.188 381.575 209.107C382.227 209.107 382.96 209.025 383.612 209.107C386.464 209.433 387.361 208.129 387.361 205.358C387.279 196.231 387.279 187.186 387.361 178.059C387.361 172.354 388.013 171.702 393.636 171.702C399.503 171.702 405.289 171.702 411.156 171.702C412.868 171.702 414.742 171.458 416.209 172.68C417.513 174.799 416.046 176.184 414.905 177.733C408.956 185.393 410.423 191.016 419.631 194.52C423.217 195.905 424.521 198.024 424.684 201.773C425.091 211.389 425.988 220.923 426.477 230.458C426.64 232.087 427.129 233.554 425.906 234.777Z" fill="#FEFEFE"/>
<path d="M425.907 234.776C425.092 223.205 424.277 211.551 423.543 199.98C423.38 197.942 422.81 196.72 420.691 196.313C419.387 196.068 418.083 195.498 416.861 194.927C409.201 191.179 407.897 183.437 413.846 177.325C414.824 176.266 416.372 175.614 416.454 173.902C416.78 173.658 417.106 173.658 417.432 173.74C418.735 173.984 419.795 173.332 420.773 172.599C432.833 164.042 444.65 155.322 454.184 143.832C455.895 141.795 457.851 140.654 460.54 141.55C468.69 144.077 476.594 147.255 484.662 149.944C485.314 150.189 485.884 150.514 486.129 151.248C487.351 156.3 487.922 161.434 488.41 166.568C487.759 167.546 485.721 167.546 486.047 169.013C486.373 170.724 488.248 169.257 489.144 169.991C488.981 176.429 490.611 182.785 489.633 189.386C488.003 200.306 481.484 206.743 471.542 210.166C467.63 211.551 463.556 212.692 459.318 212.937C457.199 213.018 456.466 213.915 456.629 215.952C457.036 221.167 457.281 226.464 457.607 231.761C447.176 233.065 436.663 235.102 425.907 234.776Z" fill="#FDD1C1"/>
<path d="M367.232 65.4375C369.188 66.5784 371.144 67.6377 373.099 68.7786C373.588 71.3049 371.959 73.0977 370.818 75.0535C367.477 80.7578 364.135 86.4622 361.365 92.4111C366.743 84.9139 370.899 76.7648 375.707 68.9416C376.522 70.5714 377.174 72.2828 378.07 73.8311C379.863 76.9278 380.108 80.1874 379.048 83.5286C377.418 88.6625 375.626 93.715 373.914 98.7674C368.943 106.672 364.38 114.74 360.224 123.133C361.854 122.237 362.587 120.526 363.402 119.059C365.602 114.903 368.373 110.991 370.492 106.754C370.981 105.857 371.225 104.309 372.936 104.716C372.447 108.954 371.959 113.11 371.388 117.347C371.714 119.222 371.225 120.852 370.41 122.481C367.965 127.697 364.624 132.016 360.061 135.602C354.356 140.084 349.141 145.055 343.844 149.944C331.295 144.892 318.745 139.921 306.195 134.868C312.633 125.171 318.011 114.821 323.96 104.879C330.643 93.715 337.08 82.4692 343.844 71.3863C348.652 63.6447 355.334 61.3629 364.135 63.8891C364.624 66.4154 362.995 68.2082 361.854 70.164C358.594 75.6239 355.416 81.0838 352.319 86.6252C352.156 86.8697 352.156 87.1142 352.238 87.6031C353.46 87.3586 353.786 86.2993 354.275 85.4843C357.453 80.3504 360.387 74.972 363.483 69.7565C364.38 68.1267 364.787 65.8449 367.232 65.4375Z" fill="#FDD1C1"/>
<path d="M336.266 168.035C338.222 164.205 340.259 160.375 342.215 156.626C343.845 155.404 345.719 155.485 347.675 155.485C353.868 155.485 360.143 155.485 366.336 155.485C370.818 155.485 370.981 155.322 370.981 151.003C370.981 142.202 370.981 133.401 370.981 124.6C370.981 118.896 371.47 118.488 377.256 118.407C379.131 118.407 381.086 118.407 382.961 118.407C387.361 118.488 387.606 118.651 387.606 122.97C387.687 132.179 387.606 141.387 387.606 150.596C387.606 155.322 387.687 155.404 392.332 155.404C398.525 155.404 404.8 155.404 410.994 155.404C412.705 155.404 414.498 155.241 416.128 156.3C417.839 158.419 417.35 160.864 417.35 163.227C417.105 173.006 417.676 172.028 408.06 172.028C402.519 172.028 396.977 172.11 391.436 172.028C388.665 171.947 387.606 172.925 387.606 175.777C387.687 185.148 387.687 194.438 387.606 203.81C387.606 208.373 387.035 208.944 382.472 209.107C380.434 209.188 378.397 209.188 376.36 209.107C371.959 209.025 370.981 208.047 370.9 203.484C370.818 194.927 370.9 186.452 370.9 177.896C370.9 172.11 370.9 172.11 365.114 172.11C356.557 172.11 348.082 172.11 339.526 172.11C336.674 172.11 335.044 171.295 336.266 168.035Z" fill="#FEFEFE"/>
<path d="M229.023 294.184C229.919 292.635 229.431 291.006 229.431 289.376C229.431 201.854 229.431 114.414 229.431 26.8921C229.431 21.5952 229.431 21.5952 234.646 21.5952C332.191 21.5952 429.736 21.5952 527.281 21.5137C531.356 21.5137 532.578 22.4916 532.497 26.6476C532.253 43.1904 532.334 59.7331 532.334 76.2758C531.519 77.3352 530.867 77.1723 530.297 76.1129C530.297 60.1406 530.215 44.0868 530.378 28.1145C530.378 24.9363 529.808 23.7139 526.222 23.7139C429.166 23.7954 332.191 23.7954 235.135 23.7139C232.201 23.7139 231.223 24.3659 231.223 27.544C231.305 99.4194 231.305 171.376 231.305 243.252C231.305 244.555 231.06 246.022 231.957 247.163C231.957 250.423 231.957 253.601 231.957 256.861C231.142 260.283 232.609 263.543 232.527 266.884C232.283 276.582 233.424 286.279 231.712 295.976C231.631 296.547 231.794 297.036 232.038 297.525C232.364 300.377 232.201 303.148 231.305 305.837C228.453 306.407 228.86 304.207 228.616 302.659C228.453 301.192 228.534 299.725 229.675 298.584C231.386 296.71 230.164 295.488 229.023 294.184Z" fill="#3A3A49"/>
<path d="M530.379 76.0315C531.031 76.439 531.683 76.5204 532.416 76.1945C539.343 78.9652 542.766 84.7511 545.455 91.1074C545.944 92.3298 546.514 93.5521 547.085 94.7745C547.003 98.3601 547.574 102.027 544.722 105.124C543.092 106.917 541.869 107.65 540.24 105.042C537.469 100.886 534.454 96.8933 531.438 92.9002C530.705 91.8408 529.809 90.2925 528.26 91.5963C526.957 92.7372 528.26 93.7966 528.912 94.693C531.683 98.5231 534.291 102.516 537.306 106.102C539.425 108.628 539.017 110.095 536.165 111.399C535.432 111.725 534.78 112.214 534.128 112.784C532.661 114.006 531.846 113.843 530.705 112.132C528.016 108.058 525.082 104.227 522.149 100.316C521.334 99.2565 520.763 97.0563 518.889 98.2786C516.933 99.5825 518.889 100.886 519.622 101.946C522.23 105.694 525.001 109.361 527.69 113.11C529.809 116.044 529.401 117.103 525.653 117.674C523.697 117.918 521.66 117.918 519.622 118C514.57 115.962 509.843 113.68 506.095 109.443C499.983 102.516 499.82 95.5894 506.828 89.722C513.999 84.0176 520.682 77.4983 530.379 76.0315Z" fill="#FDD1C1"/>
<path d="M553.766 200.469C546.757 202.913 539.749 205.358 532.659 207.721C531.192 206.336 531.437 204.462 531.437 202.75C531.437 184.741 531.437 166.65 531.437 148.64C531.437 146.766 530.785 144.484 533.311 143.425C540.157 149.944 547.002 156.382 553.929 162.901C554.907 164.287 554.988 165.916 554.988 167.546C554.988 176.999 554.988 186.452 554.988 195.905C554.988 197.535 554.988 199.246 553.766 200.469Z" fill="#FDFEFE"/>
<path d="M556.129 164.694C565.175 173.169 574.22 181.563 583.837 190.445C573.895 193.623 564.93 197.291 555.477 199.817C554.499 198.839 554.662 197.535 554.662 196.394C554.662 187.104 554.581 177.733 554.662 168.443C554.662 167.057 554.092 165.264 556.129 164.694Z" fill="#FEFEFE"/>
<path d="M343.763 150.026C347.104 143.914 353.134 140.491 358.105 136.091C362.75 132.097 366.825 127.778 369.677 122.4C370.899 123.541 370.899 125.008 370.899 126.556C370.899 134.379 370.981 142.202 370.899 150.026C370.818 154.345 369.922 155.323 365.684 155.404C359.735 155.485 353.786 155.404 347.838 155.404C346.371 155.404 344.822 155.404 343.682 154.182C343.519 152.796 346.371 151.411 343.763 150.026Z" fill="#FEFEFE"/>
<path d="M343.763 154.182C351.505 154.182 359.246 154.182 366.988 154.345C369.351 154.426 370.003 153.53 369.922 151.248C369.759 141.632 369.759 132.016 369.759 122.318C370.329 120.689 370.329 118.814 371.47 117.347C376.115 117.347 380.679 117.51 385.324 117.347C388.013 117.266 388.828 118.162 388.746 120.852C388.583 130.631 388.828 140.41 388.665 150.107C388.583 153.122 389.235 154.426 392.658 154.263C400.481 153.937 408.386 154.1 416.29 154.1C417.024 154.915 417.024 155.73 416.29 156.463C407.897 156.382 399.503 156.219 391.109 156.3C387.931 156.382 386.872 155.485 386.953 152.144C387.198 142.284 386.953 132.342 387.116 122.481C387.116 119.874 386.383 118.733 383.694 119.059C379.945 119.466 375.056 117.429 372.774 119.955C370.981 121.911 372.122 126.637 372.122 130.142C372.04 137.639 371.959 145.055 372.203 152.552C372.285 155.404 371.225 156.3 368.455 156.219C359.817 156.137 351.097 156.3 342.459 156.382C342.703 155.811 343.274 154.996 343.763 154.182Z" fill="#6DB5DE"/>
<path d="M336.266 168.035C335.94 170.643 337.162 171.376 339.688 171.376C348.734 171.213 357.861 171.539 366.906 171.213C370.737 171.132 372.122 172.028 371.959 176.103C371.633 185.556 371.959 195.09 371.796 204.543C371.714 207.395 372.611 208.455 375.463 208.21C379.049 207.884 383.694 209.677 386.057 207.477C388.257 205.358 386.709 200.795 386.709 197.291C386.79 189.712 386.872 182.133 386.709 174.554C386.627 172.028 387.361 171.295 389.887 171.295C397.221 171.458 404.556 171.132 411.808 171.458C415.475 171.621 416.698 170.48 416.046 166.976C415.801 165.835 416.127 164.531 416.209 163.39C418.654 165.916 418.817 170.072 416.779 174.066C416.616 174.066 416.453 173.984 416.29 173.984C413.927 172.354 411.319 173.332 408.793 173.251C403.252 173.088 397.71 173.414 392.169 173.088C388.991 172.925 388.339 174.066 388.42 176.999C388.583 186.86 388.42 196.802 388.583 206.662C388.665 209.514 387.768 210.492 384.916 210.329C381.249 210.085 377.582 210.085 373.915 210.329C370.329 210.574 369.596 209.025 369.677 205.847C369.84 196.639 369.759 187.43 369.759 178.222C369.759 172.517 370.411 173.169 364.462 173.088C355.824 173.088 347.104 173.088 338.466 173.088C336.836 173.088 335.206 173.332 333.902 172.028C334.31 170.48 335.288 169.258 336.266 168.035Z" fill="#6DB5DE"/>
<path d="M232.038 297.443C231.224 296.71 231.305 295.732 231.305 294.836C231.305 283.019 231.305 271.285 231.305 259.468C231.305 258.572 231.224 257.513 232.038 256.779C233.098 265.825 236.439 273.811 242.632 280.575C237.335 285.057 232.853 290.109 232.038 297.443Z" fill="#FDFDFD"/>
<path d="M533.394 143.506C532.66 143.832 532.498 144.484 532.498 145.218C532.579 166.079 532.66 186.941 532.66 207.803C531.846 208.129 531.031 208.373 530.216 208.699C530.297 188.489 530.297 168.28 530.379 148.07C530.379 145.788 530.379 143.425 530.46 141.143C531.438 141.876 532.416 142.691 533.394 143.506Z" fill="#3A3A49"/>
<path d="M553.766 269.899C553.766 272.263 553.685 274.626 553.685 276.989C548.551 276.826 543.335 278.048 538.201 276.337C543.498 274.381 548.306 271.366 553.766 269.899Z" fill="#F9F9FA"/>
<path d="M556.129 164.694C554.826 165.753 555.478 167.22 555.478 168.524C555.396 178.955 555.478 189.386 555.478 199.817C555.07 200.387 554.418 200.55 553.767 200.469C553.848 187.919 553.93 175.451 553.93 162.901C554.826 163.309 555.722 163.716 556.129 164.694Z" fill="#3A3A49"/>
<path d="M131.967 779.628C123.574 756.647 115.18 733.666 107.52 710.36C106.705 707.1 106.379 703.759 106.379 700.336C106.379 652.501 106.379 604.666 106.379 556.83C106.379 553.571 106.46 550.311 108.009 547.296C111.105 541.184 115.75 537.354 123.003 537.354C157.556 537.354 192.108 537.354 226.742 537.354C228.372 537.354 230.001 537.272 231.387 538.413C231.468 548.029 231.794 557.645 231.55 567.261C230.979 584.13 242.959 594.479 256.486 594.316C281.341 594.235 306.196 594.316 330.969 594.316C335.696 594.316 336.348 594.968 335.451 599.858C332.518 615.83 329.258 631.802 326.08 647.775C317.686 689.661 309.293 731.629 300.899 773.516C300.41 775.96 300.492 778.813 297.721 780.279C296.009 780.931 294.217 780.768 292.505 780.768C241.003 780.768 189.419 780.768 137.916 780.768C135.797 780.687 133.679 781.094 131.967 779.628Z" fill="#FEFEFE"/>
<path d="M105.319 705.389C81.1974 637.507 57.1574 569.624 32.9545 501.824C32.058 499.379 31.9766 498.157 34.5028 496.771C37.9255 494.978 39.8812 491.474 41.9185 488.296C89.1835 413.161 136.53 338.026 183.714 262.891C185.343 260.283 186.24 259.55 188.766 261.995C194.389 267.455 200.338 272.67 206.124 277.967C207.265 279.76 207.265 281.797 207.265 283.834C207.265 296.628 207.346 309.504 207.183 322.298C207.183 325.476 208.08 326.617 211.339 326.536C216.31 326.373 221.363 326.454 226.334 326.536C228.045 326.536 229.919 326.373 231.305 327.677C231.386 329.062 231.549 330.366 231.549 331.751C231.549 398.656 231.549 465.56 231.549 532.383C231.549 533.85 231.386 535.317 231.223 536.865C229.593 538.332 227.637 537.761 225.763 537.761C191.7 537.761 157.718 538.006 123.654 537.598C114.201 537.517 106.541 545.666 106.623 554.793C106.786 603.199 106.704 651.605 106.623 700.01C106.704 701.803 107.682 704.085 105.319 705.389Z" fill="#FEFEFE"/>
<path d="M298.128 779.79C300.817 766.67 303.588 753.55 306.277 740.43C314.915 697.403 323.472 654.375 332.028 611.348C332.925 606.947 333.658 602.547 334.718 598.228C335.451 595.05 334.392 594.316 331.295 594.316C306.359 594.398 281.341 594.316 256.404 594.316C283.134 594.316 309.863 594.316 336.592 594.316C358.269 594.316 380.027 594.316 401.704 594.316C403.334 594.316 404.963 594.479 406.593 594.561C407.979 597.494 406.186 600.265 406.023 603.199C403.578 617.052 400.807 630.906 398.2 644.759C391.11 681.919 384.183 719.079 376.604 756.158C375.056 763.9 373.426 771.56 371.715 779.22C371.47 780.279 370.981 781.339 370.9 782.48C367.64 799.267 363.647 815.891 359.899 832.515C359.654 833.819 359.491 835.286 358.106 835.938C334.392 836.101 310.759 836.182 287.045 836.345C286.23 835.286 286.393 834.064 286.638 832.841C289.816 815.891 293.075 798.941 296.743 782.072C297.069 781.257 297.313 780.361 298.128 779.79Z" fill="#C4C4C4"/>
<path d="M424.358 295.08C479.201 295.08 533.964 295.08 588.807 294.999C592.556 294.999 593.86 295.814 593.86 299.888C593.778 387.654 593.778 475.42 593.86 563.187C593.86 566.854 592.963 567.995 589.133 567.995C478.957 567.913 368.781 567.913 258.605 567.995C254.611 567.995 254.041 566.609 254.041 563.105C254.123 475.502 254.123 387.817 254.041 300.214C254.041 296.221 254.774 294.917 259.093 294.917C314.182 295.162 369.27 295.08 424.358 295.08Z" fill="#FEFEFE"/>
<path d="M432.344 594.561C430.958 634.573 429.654 674.667 428.269 714.679C428.188 716.39 427.862 718.183 427.699 719.894C426.395 721.198 424.765 721.117 423.135 721.117C419.468 721.117 415.801 721.198 412.134 721.117C406.837 721.035 406.185 720.383 406.104 714.923C406.104 714.109 406.104 713.294 406.104 712.479C406.104 676.785 406.104 641.174 406.104 605.481C406.104 601.813 406.267 598.146 407.244 594.642C415.638 593.99 423.95 594.235 432.344 594.561Z" fill="#FEFEFE"/>
<path d="M229.594 298.421C230.246 300.866 227.557 303.963 231.224 305.674C231.631 312.356 231.794 319.12 231.142 325.802C230.327 326.699 229.268 326.699 228.127 326.699C222.586 326.699 217.044 326.617 211.421 326.699C208.406 326.78 207.265 325.313 207.265 322.543C207.184 309.504 207.184 296.547 207.265 283.508C207.265 282.286 207.51 281.064 208.488 280.167C214.274 285.301 219.978 290.354 225.764 295.488C226.986 296.628 227.964 297.932 229.594 298.421Z" fill="#FEFEFE"/>
<path d="M407.245 594.724C407.326 615.341 407.326 635.958 407.408 656.576C407.408 676.378 407.489 696.18 407.326 715.983C407.326 719.243 408.304 720.139 411.482 719.976C416.861 719.731 422.32 719.894 427.78 719.894C427.78 720.465 427.78 721.035 427.699 721.606C424.195 723.888 420.283 722.747 416.616 722.828C408.304 722.991 408.63 722.258 408.63 730.733C408.63 752.002 408.63 773.19 408.63 794.459C408.63 800.652 408.874 800.734 414.986 800.897C417.92 800.978 420.935 800.163 423.706 801.956C424.195 802.608 423.869 803.179 423.624 803.749C420.609 806.031 417.105 804.89 413.764 805.053C409.037 805.297 408.63 805.46 408.63 810.187C408.548 822.818 408.63 835.449 408.63 847.999C408.63 850.851 408.467 853.703 407.082 856.311C406.267 857.778 405.207 859.408 403.333 858.674C401.296 857.859 402.518 856.066 403.007 854.844C404.148 851.584 404.474 848.243 404.474 844.821C404.474 826.078 404.474 807.416 404.474 788.673C404.474 783.376 404.229 783.132 399.014 783.05C391.272 783.05 383.531 783.05 375.789 783.05C373.833 783.05 371.633 783.458 370.166 781.502C370.41 780.85 370.573 780.198 370.818 779.546C372.366 777.835 374.485 778.079 376.522 778.079C383.938 777.998 391.435 778.079 398.851 778.079C404.066 778.079 404.392 777.753 404.392 772.538C404.474 755.506 404.392 738.393 404.392 721.361C404.392 686.972 404.474 652.583 404.311 618.112C404.311 612.978 405.452 607.925 405.044 602.791C405.533 600.021 406.104 597.25 406.593 594.479C406.756 594.561 407 594.561 407.245 594.724Z" fill="#3A3A49"/>
<path d="M105.318 705.389C106.215 703.922 105.889 702.211 105.889 700.581C105.889 652.175 105.889 603.769 105.889 555.445C105.889 543.14 112.408 536.621 124.713 536.702C160.243 536.702 195.774 536.784 231.304 536.784C231.304 537.354 231.385 537.924 231.385 538.495C196.1 538.495 160.895 538.495 125.61 538.495C113.305 538.495 107.682 544.118 107.682 556.341C107.682 606.377 107.682 656.413 107.682 706.367C107.682 707.752 107.6 709.056 107.519 710.442C106.785 708.73 106.052 707.019 105.318 705.389Z" fill="#3A3A49"/>
<path d="M208.488 280.249C208.406 294.428 208.406 308.608 208.243 322.787C208.243 325.15 209.058 325.802 211.34 325.802C217.941 325.721 224.541 325.884 231.142 325.884C231.224 326.454 231.224 327.025 231.305 327.677C224.297 327.677 217.289 327.514 210.28 327.758C206.776 327.921 206.043 326.617 206.043 323.358C206.206 308.282 206.124 293.124 206.124 278.048C207.102 278.537 207.999 279.189 208.488 280.249Z" fill="#7194BA"/>
<path d="M765.074 493.593C753.746 500.031 750.324 496.853 745.923 487.237C744.782 484.711 743.234 482.266 741.849 479.821C728.321 454.314 714.793 428.889 701.266 403.382C699.555 400.123 697.762 396.944 696.132 393.685C693.524 388.388 694.828 384.232 700.044 381.38C713.734 373.964 727.506 366.711 741.278 359.377C742.419 358.725 743.886 358.48 744.456 357.014C745.923 355.628 748.042 355.058 748.938 353.021C750.161 352.369 751.709 353.265 752.768 352.124C758.554 349.272 764.177 346.094 770.208 343.812C772.326 343.731 772.815 346.42 774.771 346.501C780.639 357.747 786.506 368.993 792.373 380.157C796.692 388.306 801.093 396.292 805.412 404.442C798.974 405.664 792.536 405.012 786.098 404.768C774.282 404.36 765.4 409.576 758.065 418.214C757.006 420.74 753.828 420.495 752.279 422.37C747.716 424.977 743.234 427.667 738.67 430.356C735.085 432.475 733.129 435.653 732.477 439.809C732.314 440.868 732.314 441.683 733.455 442.172C733.455 443.231 732.559 444.291 733.618 445.269C733.537 447.795 734.922 449.832 735.492 452.195C735.492 453.418 736.552 453.988 736.959 455.048C740.382 462.382 748.286 465.805 756.761 463.034C779.498 455.618 802.152 447.958 824.807 440.379C825.214 443.72 827.659 446.165 828.963 449.099C831.489 454.722 830.104 458.959 824.562 461.893C817.473 465.723 810.057 468.983 803.375 473.628C790.336 479.414 777.786 486.666 765.074 493.593Z" fill="#A3A9D9"/>
<path d="M914.448 767.974C918.848 785.088 923.167 802.201 927.568 819.314C926.916 820.455 925.775 820.944 924.716 821.514C915.751 826.73 909.151 833.901 906.135 844.087C905.728 845.554 905.076 846.858 904.098 847.999C895.46 853.214 886.822 858.43 878.266 863.727C876.147 865.031 875.902 864.053 875.413 862.26C872.969 852.562 870.442 842.946 867.998 833.33C863.597 821.433 859.197 809.453 854.796 797.556C854.552 796.904 854.389 796.252 854.226 795.6C855.366 793.155 857.648 793.889 859.523 793.889C869.627 793.644 868.568 795.274 868.649 784.762C868.649 780.606 868.568 776.368 868.649 772.212C868.731 767.974 869.709 766.996 874.028 766.996C886.089 766.915 898.149 766.996 910.129 766.996C911.758 766.915 913.225 766.915 914.448 767.974Z" fill="#FEFEFE"/>
<path d="M781.616 793.318C764.828 793.318 748.041 793.318 731.254 793.481C728.483 793.481 727.831 792.585 727.913 789.977C728.076 783.784 728.076 777.509 727.913 771.315C727.831 768.545 728.891 767.974 731.417 767.974C744.945 768.056 758.472 767.974 772 767.974C775.259 776.368 778.438 784.843 781.616 793.318Z" fill="#FEFEFE"/>
<path d="M853.491 793.4C849.905 785.087 846.809 776.612 843.875 768.056C844.853 766.915 846.238 766.834 847.624 766.834C853.165 766.834 858.706 766.752 864.248 766.834C868.241 766.915 868.974 767.648 868.974 771.641C869.056 777.753 868.893 783.784 869.056 789.895C869.137 793.074 867.833 794.377 864.737 794.051C860.988 793.807 857.158 794.948 853.491 793.4Z" fill="#FEFEFE"/>
<path d="M787.891 809.779C785.935 811.083 783.653 810.35 781.616 810.35C774.689 810.431 767.844 810.268 760.917 810.431C758.228 810.513 756.843 809.942 757.169 806.927C757.576 803.179 755.62 798.371 757.902 795.926C760.184 793.481 765.073 795.274 768.822 795.111C773.304 794.948 777.704 794.948 782.186 794.866C784.142 799.919 786.017 804.89 787.891 809.779Z" fill="#FEFEFE"/>
<path d="M853.491 793.4C857.402 793.4 861.314 793.237 865.225 793.4C867.263 793.481 868.078 792.829 868.078 790.629C867.996 784.028 867.915 777.427 868.078 770.827C868.159 768.3 867.018 767.974 864.899 767.974C857.891 768.056 850.883 768.056 843.874 768.056C843.63 767.322 843.304 766.589 843.06 765.856C866.611 765.856 890.243 765.774 913.795 765.774C914.039 766.508 914.202 767.241 914.447 767.974C900.919 767.974 887.391 768.137 873.864 767.893C870.604 767.811 869.789 768.871 869.87 771.967C870.115 778.487 869.789 784.925 870.033 791.444C870.115 794.215 869.382 795.274 866.448 795.192C862.455 795.111 858.38 794.622 854.306 795.518C853.491 795.029 853.572 794.215 853.491 793.4Z" fill="#678DB5"/>
<path d="M370.004 781.665C380.598 781.665 391.192 781.828 401.785 781.665C404.882 781.583 405.616 782.48 405.616 785.576C405.453 806.438 405.534 827.381 405.616 848.243C405.616 851.829 404.312 855.007 402.845 858.185C405.208 858.919 405.29 857.126 405.86 856.066C407.245 853.377 407.408 850.362 407.408 847.347C407.408 834.064 407.49 820.781 407.327 807.498C407.327 804.645 408.06 803.668 410.912 803.831C415.069 804.075 419.306 803.912 423.544 803.912C423.707 813.039 422.321 822.085 421.914 831.13C421.832 832.597 421.914 834.064 421.914 835.531C420.936 845.473 420.039 855.496 418.899 865.438C418.736 867.231 419.388 868.046 420.773 869.024C428.515 874.239 431.937 881.981 432.997 890.945C433.16 892.086 433.241 893.145 431.611 893.226C429.9 893.389 430.063 892.086 429.981 891.108C428.841 880.514 423.218 873.506 414.009 868.29C395.348 857.615 377.012 846.45 358.188 836.02C362.099 817.847 366.092 799.756 370.004 781.665Z" fill="#FEFEFE"/>
<path d="M423.625 802.119C419.143 802.119 414.661 802.038 410.178 802.119C408.141 802.201 407.326 801.386 407.326 799.267C407.408 774.331 407.408 749.394 407.326 724.458C407.326 722.339 408.06 721.606 410.097 721.687C415.964 721.769 421.75 721.687 427.618 721.687C427.618 738.8 426.314 755.914 425.581 773.027C425.255 781.094 424.684 789.162 424.277 797.311C424.195 798.941 424.44 800.571 423.625 802.119Z" fill="#FEFEFE"/>
<path d="M928.137 821.107C929.115 825.181 930.093 829.174 931.071 833.249C929.359 833.167 927.974 834.064 926.589 834.879C920.151 838.79 913.632 842.62 907.112 846.451C905.645 846.288 905.808 845.31 906.053 844.413C909.476 833.738 915.995 825.67 926.426 821.188C927.078 820.862 927.648 820.944 928.137 821.107Z" fill="#FDFDFD"/>
<path d="M928.138 821.107C918.604 825.344 911.758 832.271 907.847 842.05C907.276 843.435 905.973 844.821 907.195 846.451C906.217 847.021 905.158 847.51 904.18 848.08C907.032 834.471 914.855 824.937 927.568 819.395C927.731 819.884 927.975 820.455 928.138 821.107Z" fill="#6289B3"/>
<path d="M297.802 781.828C294.216 800 290.63 818.173 287.045 836.346C284.111 844.739 282.644 853.459 280.2 861.934C279.955 862.667 279.629 863.401 279.385 864.134C256.078 864.053 232.772 864.053 209.465 863.971C209.709 853.459 207.835 843.435 201.805 834.634C192.27 820.781 178.906 814.18 162.119 814.017C155.925 813.935 149.65 814.669 143.539 813.528C140.116 803.749 136.775 793.97 133.352 784.191C133.108 783.458 132.945 782.643 132.7 781.909C134.086 780.524 135.96 780.769 137.671 780.769C189.337 780.769 241.002 780.769 292.749 780.769C294.542 780.769 296.416 780.443 297.802 781.828Z" fill="#FEFEFE"/>
<path d="M377.175 895.997C377.745 897.872 376.849 898.36 375.137 898.36C362.425 898.36 349.712 898.279 336.999 898.36C335.206 898.36 334.473 897.709 334.799 895.997C348.897 896.079 362.995 895.997 377.175 895.997Z" fill="#FEFEFE"/>
<path d="M107.683 814.343C107.683 805.623 107.683 796.822 107.602 788.103C107.602 781.746 107.602 781.746 114.039 781.746C118.277 792.259 121.944 803.016 125.448 813.691C119.581 813.935 113.632 814.18 107.683 814.343Z" fill="#FDFDFD"/>
<path d="M129.359 781.991C133.026 792.34 136.693 802.69 140.442 813.039C136.693 815.321 132.7 813.935 128.87 813.772C125.448 803.912 122.107 794.133 118.684 784.273C118.44 783.539 118.277 782.724 118.032 781.909C121.699 779.954 125.529 780.198 129.359 781.991Z" fill="#FDFDFD"/>
<path d="M169.29 223.368C180.699 223.368 190.885 233.88 189.907 244.474C189.663 247 188.929 249.282 187.381 251.238C186.566 252.216 186.729 255.149 184.284 253.682C182.573 252.705 180.78 251.727 182.247 248.63C185.262 242.192 182.817 235.265 176.95 231.68C171.653 228.502 164.4 229.561 160.244 234.206C155.844 239.096 155.518 246.348 160.081 251.645C162.281 254.253 160.489 255.557 159.429 257.187C128.137 306.733 96.8438 356.28 65.5511 405.745C53.7348 424.488 41.8371 443.231 30.0208 462.056C29.0429 463.604 28.3095 464.745 25.9463 464.175C17.8786 462.382 10.5444 467.516 9.72944 475.257C8.83303 483.488 14.456 489.926 22.9311 490.333C24.3979 490.415 25.6203 490.089 26.3537 492.126C27.9835 496.69 27.8206 497.097 22.9311 496.853C6.79575 496.119 -1.67935 480.31 6.79576 466.864C55.9351 388.795 105.075 310.726 154.214 232.576C157.799 227.035 162.363 223.368 169.29 223.368Z" fill="#FEFEFE"/>
<path d="M183.224 257.839C182.898 258.409 182.409 259.224 181.92 260.039C140.686 325.558 99.5327 390.995 58.2982 456.514C51.7789 466.945 45.1782 477.376 38.5774 487.726C37.192 489.926 35.8882 492.208 33.6879 493.593C32.71 494.163 31.2432 496.282 30.5097 494.408C29.7763 492.615 26.8426 490.415 30.1838 488.133C35.1547 484.71 36.9475 479.902 35.8881 474.035C35.5622 472.405 35.1548 470.612 33.9324 469.634C30.3468 466.864 32.0581 464.419 33.8509 461.648C76.7152 393.848 119.58 326.047 162.362 258.246C163.666 256.209 164.726 255.068 167.333 255.964C170.756 257.187 174.016 256.127 177.112 254.497C178.905 253.519 183.061 255.557 183.224 257.839Z" fill="#FEFEFE"/>
<path d="M106.054 759.092C105.972 772.13 105.891 785.169 105.972 798.126C105.972 801.386 105.076 802.201 101.898 802.201C90.2444 802.038 78.5911 802.038 66.8563 802.201C63.9226 802.201 62.8633 801.549 62.8633 798.371C62.9448 773.923 62.9448 749.557 62.8633 725.11C62.8633 722.421 63.5967 721.687 66.2859 721.687C75.087 721.85 83.8881 721.769 92.7706 721.769C97.4971 734.074 102.061 746.461 106.054 759.092Z" fill="#FEFEFE"/>
<path d="M96.0286 720.139C90.8132 707.508 86.6571 694.551 82.0936 681.757C60.8244 622.023 39.6366 562.372 18.3674 502.638C18.0414 501.661 17.7155 500.683 17.2266 499.379C20.8937 499.868 24.1533 500.601 27.576 499.786C29.6947 499.216 29.5317 501.416 29.8577 502.394C36.7845 521.626 43.5482 540.858 50.3935 560.09C68.4031 610.778 86.4126 661.465 104.341 712.153C104.993 713.946 105.482 715.738 105.97 717.531C106.541 719.324 106.133 720.872 104.015 721.035C101.407 721.28 98.5548 721.85 96.0286 720.139Z" fill="#FEFEFE"/>
<path d="M108.172 722.584C114.854 741.327 121.455 760.07 128.138 778.731C125.611 781.176 121.048 781.502 116.81 779.383C113.714 770.419 110.617 761.455 107.52 752.573C105.401 743.445 106.624 734.155 106.542 724.947C106.542 723.969 106.705 722.828 108.172 722.584Z" fill="#FDFDFD"/>
<path d="M297.802 781.828C257.79 781.828 217.859 781.746 177.847 781.746C162.771 781.746 147.777 781.828 132.701 781.909C131.967 781.257 131.886 780.524 131.886 779.628C176.461 779.628 220.956 779.709 265.531 779.709C276.37 779.709 287.208 779.791 298.047 779.791C298.047 780.443 297.965 781.176 297.802 781.828Z" fill="#5881AE"/>
<path d="M105.238 747.031C102.386 738.882 99.4518 730.651 96.5996 722.502C98.311 721.035 103.934 720.302 105.564 721.361C106.297 721.85 106.623 722.584 106.623 723.399C106.705 730.733 106.786 737.986 106.623 745.32C106.623 746.135 106.216 746.868 105.238 747.031Z" fill="#FDFDFD"/>
<path d="M105.238 747.031C106.705 742.875 105.564 738.474 105.89 734.237C106.053 732.363 105.89 730.488 105.89 728.533C105.89 721.117 104.015 719.894 96.5997 722.502C95.7033 721.85 96.1923 720.954 96.0293 720.139C98.474 720.057 100.919 719.894 103.364 720.057C105.401 720.22 105.971 719.243 106.053 717.531C107.194 719.08 107.601 720.872 108.09 722.665C106.949 729.592 107.846 736.519 107.601 743.445C107.52 746.542 107.52 749.557 107.438 752.654C106.786 750.78 105.971 748.905 105.238 747.031Z" fill="#3A3A49"/>
<path d="M113.387 779.546C107.682 779.954 107.519 779.954 107.682 774.331C107.764 771.153 106.867 767.974 108.253 764.878C109.964 769.767 111.676 774.657 113.387 779.546Z" fill="#F3F5F7"/>
<path d="M116.809 779.465C120.557 779.465 124.469 780.687 128.136 778.813C129.114 779.628 128.87 780.931 129.359 781.991C125.528 781.991 121.78 781.991 117.949 781.991C117.053 781.339 117.135 780.279 116.809 779.465Z" fill="#5881AC"/>
<path d="M749.346 352.939C749.264 356.199 746.982 356.688 744.375 356.932C736.714 335.255 729.136 313.497 721.476 291.82C725.876 287.827 731.499 286.85 736.959 285.546C739.241 284.975 740.056 287.42 740.626 289.213C742.908 296.14 745.597 302.903 747.879 309.912C750.323 317.327 752.768 324.824 755.376 332.24C756.191 334.522 756.354 336.396 753.909 337.782C749.183 340.552 747.716 344.627 749.509 349.924C749.835 350.902 750.16 351.961 749.346 352.939Z" fill="black"/>
<path d="M749.345 352.939C749.019 351.798 748.693 350.576 748.367 349.435C746.574 343.567 748.041 339.33 753.501 336.559C755.375 335.581 755.294 334.848 754.805 333.218C749.589 318.224 744.537 303.148 739.403 288.072C738.914 286.523 738.425 285.464 736.306 286.36C731.417 288.316 726.446 289.946 721.556 291.739C718.541 292.309 716.504 294.102 714.955 296.628C714.141 297.362 713.326 297.28 712.511 296.628C711.044 287.664 708.681 278.863 706.154 269.981C710.392 271.937 714.059 274.137 718.46 274.707C726.446 275.685 733.78 273.403 740.87 270.47C743.314 269.41 744.618 269.329 745.678 272.1C746.982 275.359 748.693 278.456 750.241 281.634C747.552 283.101 743.152 282.612 742.174 285.301C741.359 287.583 743.559 290.843 744.455 293.695C748.774 306.326 753.175 318.957 757.413 331.588C758.146 333.707 758.635 334.848 761.406 334.114C766.54 332.892 770.696 335.337 772.733 340.308C773.548 342.264 774.118 344.382 774.852 346.42C772.081 348.049 771.755 345.279 770.533 344.056C770.288 343.975 770.044 343.812 769.881 343.567C765.317 336.967 764.013 336.641 756.353 340.063C752.768 341.693 751.545 343.893 752.197 347.805C752.442 349.516 753.664 351.065 752.768 352.857C751.708 354.324 750.567 354.976 749.345 352.939Z" fill="#FEFEFE"/>
<path d="M712.43 296.71C713.245 296.71 714.06 296.71 714.875 296.71C718.216 309.341 721.638 322.054 724.98 334.685C725.143 335.337 725.469 335.989 725.55 336.641C725.713 337.7 726.039 339.004 724.654 339.33C723.268 339.656 722.779 338.434 722.535 337.374C721.394 333.055 720.253 328.736 719.112 324.417C716.749 315.697 714.304 306.978 711.859 298.258C712.022 297.851 712.267 297.28 712.43 296.71Z" fill="#020304"/>
<path d="M685.049 256.616C687.493 259.387 690.427 261.424 693.931 262.565C694.501 266.314 694.909 270.062 695.724 273.729C696.131 275.604 695.805 276.5 693.931 276.989C691.975 277.478 690.509 277.234 689.938 274.952C688.308 268.84 686.679 262.728 685.049 256.616Z" fill="#FEFCFC"/>
<path d="M719.356 226.22C725.223 226.138 730.276 231.191 730.276 236.977C730.276 242.681 725.468 247.571 719.764 247.734C713.815 247.897 708.844 243.089 708.681 237.14C708.518 231.354 713.489 226.301 719.356 226.22Z" fill="#FC9993"/>
<path d="M689.286 241.133C694.013 237.547 698.169 237.058 702.325 239.585C705.992 241.785 708.192 246.267 707.459 250.341C706.644 255.149 703.792 258.083 698.658 259.142C696.213 257.431 695.072 255.068 694.991 252.134C695.154 251.645 695.479 251.238 695.887 250.83C696.539 250.178 697.435 249.526 696.702 248.467C696.131 247.652 695.317 247.815 694.502 247.978C694.013 248.06 693.442 248.223 692.872 248.06C690.834 246.185 690.427 243.496 689.286 241.133Z" fill="#FC9993"/>
<path d="M695.398 251.89C695.969 254.579 697.68 256.698 698.74 259.142C693.443 259.794 689.694 258.083 687.494 254.09C685.131 249.771 685.701 245.615 689.287 241.133C691.894 242.681 691.813 245.696 693.28 247.897C694.176 249.119 695.072 250.341 695.398 251.89Z" fill="#FDFDFD"/>
<path d="M669.565 892.819C649.029 892.819 632.16 876.113 632.16 855.659C632.079 834.96 648.948 818.255 669.81 818.336C690.508 818.418 706.97 835.042 706.97 855.659C706.888 876.276 690.264 892.738 669.565 892.819Z" fill="#FEFEFE"/>
<path d="M679.101 792.422C679.101 799.593 679.019 806.764 679.182 813.936C679.264 816.462 678.449 817.44 675.922 816.788C671.766 815.81 667.529 815.891 663.454 816.788C660.765 817.358 660.276 816.217 660.276 813.773C660.358 799.512 660.358 785.332 660.276 771.071C660.276 768.545 661.091 767.73 663.536 767.811C667.692 767.974 671.929 767.974 676.167 767.811C678.856 767.648 679.345 768.789 679.264 771.153C679.019 778.324 679.101 785.413 679.101 792.422Z" fill="#FEFEFE"/>
<path d="M157.066 898.442C151.117 898.442 145.168 898.524 139.138 898.442C137.997 898.442 136.041 899.257 136.041 897.057C136.041 895.182 137.834 895.753 138.893 895.753C151.117 895.753 163.259 895.753 175.483 895.753C176.542 895.753 178.335 895.182 178.417 896.975C178.498 899.257 176.461 898.361 175.401 898.361C169.29 898.442 163.178 898.442 157.066 898.442Z" fill="#F2F3F6"/>
<path d="M737.041 454.803C735.085 454.64 733.7 454.151 735.574 451.951C743.642 449.262 751.628 446.491 759.695 443.802C760.918 443.394 762.466 442.254 763.118 444.128C763.77 445.921 761.977 446.165 760.755 446.654C752.85 449.343 744.945 452.114 737.041 454.803Z" fill="#050303"/>
<path d="M752.361 422.288C752.687 418.621 756.273 419.599 758.147 418.132C764.503 416.013 770.86 413.813 777.297 411.776C778.438 411.368 780.149 410.309 780.883 412.102C781.779 414.302 779.497 414.383 778.275 414.791C770.941 417.399 763.525 419.843 756.11 422.37C754.887 422.696 753.665 423.592 752.361 422.288Z" fill="#050303"/>
<path d="M733.699 445.024C732.802 445.106 731.824 445.432 731.498 444.209C731.009 442.416 732.802 442.742 733.536 442.009C741.196 439.401 748.775 436.793 756.435 434.186C757.657 433.778 759.124 432.637 759.857 434.593C760.509 436.468 758.635 436.63 757.413 437.038C749.508 439.727 741.603 442.416 733.699 445.024Z" fill="#050303"/>
<path d="M416.942 173.903C416.86 170.317 417.431 166.731 416.371 163.227C416.29 161.027 416.208 158.827 416.127 156.545C416.127 155.73 416.127 154.915 416.127 154.182C418.898 141.062 425.336 135.357 438.7 133.727C453.857 131.853 469.015 129.653 484.172 127.697C485.394 127.534 486.535 127.452 488.002 127.371C487.676 128.593 487.35 129.408 487.106 130.305C486.372 133.238 484.661 135.602 488.41 138.78C493.218 142.854 491.751 147.907 486.209 151.248C477.816 148.477 469.259 145.788 460.947 142.773C458.258 141.795 456.873 142.365 455.08 144.403C444.567 156.3 432.425 166.405 419.061 175.043C417.675 175.777 416.86 176.184 416.942 173.903Z" fill="black"/>
<path d="M367.232 65.4375C362.994 72.6903 358.838 79.8615 354.519 87.0327C353.867 88.0921 353.46 90.5369 351.504 89.4775C349.304 88.2551 351.259 86.6253 351.911 85.4029C355.904 78.2317 359.979 71.0604 364.054 63.8892C365.928 62.8298 367.069 63.0743 367.232 65.4375Z" fill="#070404"/>
<path d="M372.937 104.798C369.433 110.828 365.928 116.94 362.261 122.889C361.609 124.03 361.202 126.311 359.246 125.252C357.209 124.193 358.839 122.644 359.491 121.504C363.239 114.903 366.988 108.383 370.818 101.783C371.551 100.56 372.122 99.012 373.915 98.7675C376.278 101.212 373.1 102.761 372.937 104.798Z" fill="#060404"/>
<path d="M375.707 68.9416C375.87 71.6309 374.077 73.5052 372.936 75.5424C369.758 81.1653 366.498 86.7882 363.157 92.3297C362.505 93.4705 362.016 95.6708 359.979 94.4484C358.268 93.389 359.816 92.0037 360.386 90.9443C364.543 83.5286 368.78 76.1129 372.936 68.7787C373.914 68.4527 374.892 68.0452 375.707 68.9416Z" fill="#060404"/>
<path d="M489.306 169.909C488.165 170.806 487.106 171.865 485.476 170.724C484.417 169.991 484.254 168.931 484.661 167.872C485.313 165.753 487.024 166.079 488.654 166.405C489.306 167.465 489.795 168.606 489.306 169.909Z" fill="#0E0A09"/>
<path d="M462.332 169.665C461.925 171.05 461.191 172.191 459.561 172.028C458.095 171.865 457.117 170.806 457.198 169.339C457.28 167.872 458.339 166.894 459.887 167.057C461.517 167.139 462.169 168.198 462.332 169.665Z" fill="#190F0E"/>
<path d="M404.962 602.873C406.103 604.014 405.533 605.481 405.533 606.703C405.533 662.85 405.533 718.998 405.614 775.227C405.614 778.731 404.799 779.872 401.132 779.791C390.946 779.546 380.76 779.709 370.573 779.709C373.344 765.693 376.196 751.595 378.885 737.578C386.708 697.077 394.45 656.576 402.273 616.074C403.251 611.674 404.066 607.273 404.962 602.873Z" fill="#FEFEFE"/>
<path d="M434.544 378.446C434.544 385.862 434.544 393.196 434.544 400.448C434.544 402.486 433.403 402.567 431.855 402.404C430.47 402.323 428.921 402.241 428.758 404.116C428.595 405.99 429.981 406.723 431.692 406.56C435.033 406.234 433.892 408.679 434.055 410.39C434.3 412.428 433.648 413.487 431.366 413.161C429.818 412.917 428.188 413.161 428.188 415.28C428.188 417.073 429.655 417.399 431.04 417.317C433.648 417.154 433.811 418.703 433.566 420.74C433.322 422.451 433.566 424.407 430.714 423.918C429.166 423.673 427.536 424.081 427.536 426.037C427.536 428.074 429.329 428.318 430.796 428.318C434.137 428.237 432.914 430.6 433.077 432.23C433.322 434.349 432.425 435.245 430.225 434.838C428.595 434.593 426.966 434.838 426.966 436.794C426.966 438.668 428.514 439.157 430.144 439.075C432.507 438.831 432.67 440.053 432.588 442.009C432.181 449.425 431.855 456.922 431.692 464.338C431.611 466.701 431.122 468.005 428.514 467.516C428.106 467.434 427.699 467.434 427.292 467.516C420.935 468.249 416.29 467.516 414.579 459.53C413.194 453.173 407.408 449.914 400.644 449.669C396.569 449.588 392.495 449.017 388.583 450.403C382.227 452.684 378.071 458.144 377.908 464.745C377.745 471.916 377.663 479.088 377.745 486.34C377.826 493.838 381.575 499.297 388.746 501.661C391.272 502.476 391.354 503.616 390.783 505.735C385.894 524.315 380.923 542.895 376.115 561.475C375.463 563.92 374.567 564.979 371.796 564.898C334.88 564.816 297.965 564.816 261.049 564.898C257.627 564.898 257.138 563.757 257.138 560.742C257.219 506.876 257.219 453.01 257.219 399.145C257.219 366.874 257.301 334.522 257.138 302.251C257.138 298.91 257.953 298.014 261.375 298.014C319.234 298.095 377.011 298.095 434.87 298.014C438.211 298.014 439.434 298.584 439.026 302.17C438.456 306.733 438.456 311.378 438.374 315.942C438.374 317.898 437.722 318.55 435.767 318.305C420.12 316.512 404.474 314.801 388.909 313.09C387.442 312.927 385.975 312.764 384.427 312.682C382.716 312.519 381.412 313.09 381.33 314.964C381.249 316.92 382.634 317.409 384.264 317.572C391.843 318.387 399.34 319.202 406.919 320.017C416.372 321.076 425.743 322.217 435.196 323.113C437.559 323.358 438.13 324.173 437.885 326.373C437.559 329.633 437.396 332.892 437.559 336.152C437.722 339.248 436.5 339.574 433.729 339.33C417.35 337.782 401.051 336.559 384.672 335.174C382.879 335.011 381.249 335.174 381.004 337.374C380.76 339.574 382.553 339.982 384.264 340.145C395.591 341.123 407 342.019 418.327 342.997C423.706 343.486 429.166 344.056 434.544 344.382C436.419 344.545 436.989 345.116 436.989 347.072C437.152 357.829 437.152 357.829 426.395 357.747C412.542 357.747 398.688 357.666 384.835 357.584C383.205 357.584 381.249 357.34 380.841 359.377C380.271 362.392 382.553 362.474 384.753 362.474C400.399 362.555 415.964 362.718 431.61 362.636C435.196 362.636 436.419 363.288 436.337 367.2C436.256 371.356 434.952 373.149 430.959 374.371C417.594 378.364 404.392 382.765 391.109 387.084C389.968 387.491 388.746 387.817 387.768 388.469C386.709 389.121 386.627 390.262 387.116 391.403C387.85 393.033 389.317 392.87 390.62 392.544C394.369 391.403 398.118 390.099 401.785 388.877C412.705 385.454 423.869 381.868 434.544 378.446Z" fill="#4A5380"/>
<path d="M590.601 431.578C590.601 474.605 590.519 517.633 590.682 560.66C590.682 564.327 589.704 565.061 586.2 565.061C548.307 564.898 510.495 564.898 472.601 565.061C469.016 565.061 468.119 564.246 468.119 560.66C468.364 542.732 468.282 524.804 468.201 506.958C468.201 504.676 468.445 503.535 471.216 503.046C479.528 501.661 484.499 495.549 484.662 487.155C484.825 480.228 484.825 473.302 484.743 466.375C484.662 457.248 478.469 450.81 469.342 450.158C467.956 450.077 466.652 449.995 465.267 449.995C455.407 449.669 449.865 453.499 446.606 462.871C445.139 467.19 441.227 468.983 437.071 467.516C435.767 467.027 435.93 466.212 436.012 465.315C436.338 457.492 436.745 449.588 437.071 441.764C437.153 440.135 437.56 439.238 439.516 439.564C440.901 439.727 442.368 439.483 442.45 437.608C442.531 435.897 441.309 435.164 439.76 435.327C436.827 435.571 437.397 433.697 437.397 431.986C437.397 430.111 437.397 428.4 440.168 428.807C441.553 429.052 443.02 428.807 443.101 426.852C443.101 425.059 441.879 424.57 440.331 424.651C436.99 424.814 438.212 422.37 438.049 420.74C437.805 418.621 438.701 417.806 440.82 418.132C442.368 418.376 443.672 417.806 443.753 416.176C443.835 414.465 442.531 413.894 440.983 413.894C438.456 413.976 438.212 412.591 438.293 410.553C438.375 408.353 438.619 406.805 441.472 407.375C443.02 407.701 444.242 406.805 444.242 405.175C444.242 403.708 443.101 402.893 441.798 403.056C438.538 403.382 438.864 401.345 438.945 399.226C439.271 393.033 439.597 386.758 439.679 380.483C439.679 377.631 440.249 377.06 443.101 378.038C457.444 383.009 471.868 387.736 486.21 392.544C487.107 392.87 488.003 393.196 488.9 393.44C490.611 394.011 491.915 393.44 492.485 391.81C493.056 390.18 491.996 389.284 490.529 388.795C486.536 387.41 482.625 386.106 478.632 384.721C466.815 380.727 455.081 376.734 443.264 372.823C440.575 371.926 438.864 365.57 440.738 363.533C441.635 362.636 442.775 363.207 443.835 363.207C460.215 363.288 476.676 363.451 493.056 363.533C494.115 363.533 495.256 363.533 496.315 363.533C498.027 363.451 499.167 362.555 499.086 360.762C499.004 359.051 497.701 358.643 496.152 358.643C491.1 358.643 486.129 358.562 481.076 358.562C468.608 358.48 456.14 358.236 443.672 358.317C441.146 358.317 440.494 357.665 440.575 355.139C440.82 345.279 440.738 345.197 450.273 344.464C463.8 343.486 477.328 342.59 490.855 341.693C492.485 341.612 494.115 341.367 495.745 341.286C497.619 341.123 499.493 340.878 499.167 338.434C498.923 336.315 497.13 336.233 495.419 336.396C483.114 337.293 470.808 338.189 458.503 339.085C453.614 339.411 448.724 339.737 443.916 340.145C441.961 340.308 441.064 339.819 441.472 337.782C441.553 337.537 441.472 337.211 441.472 336.967C441.798 332.811 440.657 327.514 442.776 324.743C444.731 322.217 450.354 323.358 454.347 322.95C468.282 321.646 482.136 320.261 496.071 318.957C497.782 318.794 499.575 318.468 499.493 316.349C499.412 313.905 497.456 313.905 495.582 314.068C479.365 315.616 463.148 317.083 447.013 318.713C442.124 319.202 442.124 319.365 442.45 314.312C442.694 309.83 442.938 305.348 443.02 300.866C443.02 299.155 443.509 298.34 445.383 298.503C446.035 298.584 446.769 298.503 447.42 298.503C493.707 298.503 539.995 298.584 586.282 298.421C589.786 298.421 590.764 299.236 590.682 302.822C590.519 345.605 590.601 388.551 590.601 431.578Z" fill="#4A5380"/>
<path d="M421.669 564.979C409.037 564.979 396.406 564.898 383.775 565.061C380.76 565.061 380.189 564.49 381.004 561.475C386.057 542.895 390.946 524.315 395.673 505.735C396.325 503.209 397.466 502.638 399.829 502.638C419.876 502.964 440.004 503.127 460.051 503.209C462.822 503.209 463.311 504.187 463.311 506.713C463.229 525.049 463.229 543.303 463.311 561.638C463.311 564.49 462.333 564.979 459.807 564.979C447.175 564.898 434.463 564.979 421.669 564.979Z" fill="#4A5380"/>
<path d="M395.999 465.152C400.237 465.152 403.333 468.331 403.415 472.568C403.415 476.806 400.318 479.984 396.081 480.065C391.68 480.147 388.339 476.724 388.42 472.405C388.502 468.168 391.68 465.152 395.999 465.152Z" fill="#212C6D"/>
<path d="M465.674 465.641C469.749 465.56 473.171 468.82 473.334 472.976C473.416 477.213 470.319 480.554 466.244 480.717C461.925 480.88 458.421 477.539 458.421 473.22C458.258 468.983 461.436 465.723 465.674 465.641Z" fill="#212C6D"/>
<path d="M752.768 352.857C752.279 351.309 751.627 349.842 751.22 348.294C749.916 343.812 751.545 340.634 755.865 339.004C757.005 338.596 758.146 338.189 759.287 337.782C765.725 335.581 768.659 337.211 770.533 343.975C769.8 346.664 767.11 345.605 765.481 346.583C761.406 348.946 757.005 350.82 752.768 352.857Z" fill="#010101"/>
<path d="M721.964 236.977C721.801 238.688 720.824 239.666 719.357 239.585C717.808 239.503 716.83 238.362 716.993 236.814C717.075 235.51 717.971 234.614 719.438 234.614C720.987 234.614 721.801 235.51 721.964 236.977Z" fill="#110A0A"/>
<path d="M695.398 251.89C693.931 250.993 692.872 249.852 693.198 247.897C694.665 246.511 696.457 245.452 697.761 247.652C699.309 250.097 697.517 251.238 695.398 251.89Z" fill="#1A1312"/>
<path d="M669.483 872.365C660.275 872.365 652.533 864.705 652.533 855.577C652.533 846.45 660.193 838.79 669.402 838.79C678.936 838.79 686.597 846.369 686.515 855.74C686.434 864.868 678.773 872.365 669.483 872.365Z" fill="#5D85B1"/>
<path d="M669.483 840.583C677.714 840.502 684.478 847.265 684.478 855.496C684.478 863.727 677.877 870.49 669.565 870.572C661.334 870.653 654.652 863.971 654.57 855.577C654.652 847.184 661.09 840.583 669.483 840.583Z" fill="#FEFEFE"/>
</svg>
