<svg width="700" height="648" viewBox="0 0 700 648" fill="none" xmlns="http://www.w3.org/2000/svg">
<path d="M70.3609 362.131C72.9076 355.496 73.9145 348.447 75.5137 341.575C79.3634 325.402 83.0354 309.171 86.7667 292.998C89.8465 279.788 100.626 271.198 114.307 271.021C123.665 270.902 133.023 270.902 142.38 270.784C142.677 270.961 142.973 271.198 143.15 271.495C144.513 275.464 144.453 279.61 144.927 283.757C147.592 306.742 150.317 329.786 153.041 352.771C153.041 352.949 153.1 353.186 153.1 353.364C153.693 361.302 154.048 359.998 160.622 360.117C163.287 360.176 165.953 360.176 168.618 360.117C171.934 360.058 172.408 359.702 172.171 356.266C171.816 350.935 171.283 345.662 170.809 340.39C169.921 329.49 169.032 318.59 168.025 307.69C167.078 297.264 166.426 286.897 165.301 276.471C165.183 275.108 165.005 273.746 165.36 272.383C165.479 272.028 165.597 271.731 165.834 271.495C167.611 270.369 169.625 270.902 171.52 270.606C172.29 270.724 173.119 270.606 173.889 270.606C177.62 270.784 181.351 270.547 185.083 270.724C186.978 270.784 187.689 270.073 187.689 268.177C187.689 262.786 187.393 257.396 187.866 252.005C188.162 251.412 188.222 250.465 189.347 250.998C189.525 257.751 189.406 264.445 189.465 269.717C189.229 264.09 189.88 257.099 189.169 250.05C189.051 249.102 189.11 248.273 190.058 247.74C191.598 248.628 191.124 250.168 191.124 251.472C191.183 257.277 191.242 263.142 191.124 268.947C191.065 271.139 191.835 272.679 193.611 273.923C197.046 276.352 198.942 279.729 200.245 283.757C204.035 295.605 208.773 307.097 212.919 318.827C213.097 319.419 213.334 320.012 213.511 320.545C215.466 325.758 217.302 331.03 219.256 336.243C219.434 336.776 219.612 337.31 219.789 337.843C220.559 340.035 221.389 342.227 222.277 344.537C225.179 342.7 226.601 339.798 228.91 337.665C229.384 337.191 229.858 336.717 230.332 336.243C234.833 330.853 239.749 325.876 244.309 320.486C244.783 320.012 245.257 319.538 245.731 319.005C248.159 315.924 251.061 313.318 253.489 310.237C254.141 309.408 254.852 308.578 256.036 308.46C258.109 308.875 259.412 310.415 260.952 311.659C267.704 317.109 274.574 322.381 281.267 327.95C285.827 331.741 285.827 332.215 281.681 336.658C278.898 339.62 276.173 342.582 273.626 345.662C270.902 348.447 268.355 351.409 265.808 354.311C254.852 366.455 244.191 378.896 232.938 390.744C229.443 394.417 225.061 396.253 219.908 396.016C218.96 395.957 217.894 396.075 217.243 395.068C216.947 394.535 216.887 393.943 216.828 393.35C216.117 385.886 212.327 381.028 204.983 379.31C199.534 378.066 194.144 376.408 188.636 375.341C188.34 375.282 188.044 375.223 187.748 375.164C180.759 373.86 180.345 374.157 178.686 380.851C177.146 386.952 175.843 393.172 174.363 399.274C174.007 400.814 173.77 402.414 171.934 403.065C171.046 403.302 170.158 403.243 169.269 403.243C141.788 403.243 114.307 403.243 86.8259 403.243C86.2336 403.243 85.6414 403.243 85.0491 403.184C79.0672 401.111 74.6845 397.142 71.3086 391.928C70.7755 391.099 70.3017 390.27 69.7686 389.44C69.2356 388.137 68.821 386.775 68.288 385.531C66.452 379.903 66.6889 374.334 68.3473 368.766C69.2949 366.633 68.821 364.086 70.3609 362.131Z" fill="#6DB5DE"/>
<path d="M338.539 471.546C337.769 485.467 336.94 499.389 336.17 513.251C336.347 513.902 336.703 514.554 336.762 515.265C336.644 519.589 336.17 523.855 336.051 528.179C335.696 529.423 335.637 530.786 334.985 531.97C333.919 549.742 332.853 567.573 331.787 585.345C331.491 590.558 331.076 595.771 330.721 600.984C329.832 601.932 328.589 601.932 327.404 601.932C316.625 601.932 305.846 602.939 295.067 602.525C293.586 602.465 292.105 602.643 290.743 601.992C289.499 600.984 290.032 599.622 290.21 598.437C295.303 560.702 300.219 522.966 305.254 485.231C306.497 476.167 307.682 467.044 308.689 457.921C307.623 461.772 307.267 465.741 306.793 469.651C302.055 505.253 297.376 540.856 292.638 576.4C291.631 584.22 290.447 592.039 289.618 599.859C289.558 600.629 289.677 601.458 288.848 601.992C287.426 602.643 285.946 602.525 284.465 602.525C270.31 602.525 256.096 602.525 241.94 602.525C240.282 602.525 238.564 602.821 237.143 601.518C237.972 595.238 238.742 588.9 239.571 582.62C240.045 581.732 239.334 580.902 239.512 580.073C239.453 578.414 239.394 576.696 239.69 575.038C242 560.998 243.303 546.78 245.375 532.681C245.612 531.852 245.849 531.082 245.79 530.193C246.323 523.736 247.212 517.338 248.1 511C248.1 510.289 248.159 509.637 248.278 508.926C248.633 507.09 248.811 505.253 249.107 503.417C249.581 499.863 249.225 499.448 245.731 499.448C239.453 499.448 233.175 499.448 226.897 499.448C225.535 499.448 224.113 499.626 222.929 498.678C223.403 496.545 225.179 497.138 226.482 497.138C232.701 497.019 238.92 497.078 245.139 497.078C249.877 497.078 249.877 496.96 250.528 492.162C251.594 483.75 252.779 475.338 254.023 466.926C254.496 463.49 254.378 463.371 251.002 463.312C248.633 463.312 246.264 463.312 243.895 463.312C242.414 463.312 240.934 463.253 239.631 462.364C238.505 461.535 238.268 460.231 237.972 458.987C234.419 444.237 231.043 429.427 227.548 414.676C227.193 413.195 226.482 411.596 228.2 410.352C229.503 409.819 230.924 409.878 232.286 409.878C260.123 409.878 287.959 409.878 315.796 409.878C316.98 409.878 318.165 409.878 319.349 410.115C325.39 411.714 330.662 414.617 334.807 419.415C340.256 425.576 342.152 432.744 341.263 440.801C340.789 444.829 340.789 448.857 340.552 452.886C340.316 457.625 339.723 462.305 339.664 467.044C339.249 468.466 339.19 470.065 338.539 471.546Z" fill="#C25730"/>
<path d="M239.275 461.713C243.953 462.66 248.692 462.068 253.37 462.246C254.792 462.305 255.562 462.483 255.325 464.201C253.785 474.568 252.304 484.934 250.942 495.361C250.705 497.375 249.995 497.908 248.04 497.849C240.163 497.73 232.286 497.789 224.468 497.789C223.994 497.789 223.52 498.026 223.106 498.086C224.823 501.344 225.179 505.017 226.186 508.512C226.304 509.282 226.659 509.993 226.778 510.822C228.318 517.279 229.68 523.736 231.22 530.193C231.338 530.667 231.457 531.141 231.516 531.615C234.477 544.352 237.142 557.147 239.926 569.943C240.341 571.78 240.518 573.616 240.222 575.512C240.163 577.052 240.104 578.533 240.044 580.073C239.748 580.428 239.393 580.428 239.097 580.132C235.721 564.789 232.286 549.446 228.91 534.162C228.732 533.274 228.436 532.445 228.199 531.615C227.725 530.964 227.311 530.312 227.133 529.542C225.593 523.44 224.29 517.279 222.81 511.178C222.691 510.407 222.395 509.637 222.277 508.867C221.803 506.379 221.092 503.95 220.559 501.462C220.085 499.389 218.901 498.56 216.828 498.619C213.807 498.678 210.787 498.5 207.766 498.915C207.233 498.915 206.818 498.678 206.463 498.323C205.397 498.263 204.331 498.086 203.265 498.086C189.169 498.086 175.073 498.204 160.977 497.967C157.957 497.908 156.772 498.737 156.121 501.758C151.323 523.499 146.289 545.122 141.492 566.863C136.043 591.447 130.831 616.091 125.501 640.734C125.264 641.741 125.382 643.341 123.842 642.985C122.302 642.63 123.072 641.208 123.309 640.26C133.318 594.172 142.913 548.024 153.811 502.114C154.758 498.204 154.758 498.204 150.731 498.086C122.895 497.256 101.218 478.477 96.302 450.931C93.9922 438.135 91.6231 425.34 89.254 412.544C89.1356 411.774 89.1356 410.885 88.0695 410.767C86.4112 411.418 84.6344 411.596 82.8576 411.537C76.8757 411.477 70.8346 411.477 64.8528 411.537C60.9438 411.596 57.2718 412.425 54.2512 415.269C51.8229 417.52 50.6384 420.363 50.1646 423.562C49.6908 425.221 49.8684 426.88 49.8684 428.598C49.8684 498.678 49.8684 568.758 49.8684 638.779C49.8684 646.303 49.6908 644.644 43.5312 644.94C41.3399 645.059 40.4514 644.111 40.3922 642.038C40.3922 641.149 40.333 640.26 40.333 639.372C40.333 567.929 40.333 496.486 40.333 425.043C40.333 414.558 46.4334 405.909 55.6135 403.125C56.6795 402.829 57.7456 402.71 58.7524 402.355C59.7 402.118 60.7069 401.999 61.6545 402.118C80.6662 402.118 99.6186 403.006 118.63 402.71C127.692 402.592 136.754 402.651 145.815 402.71C168.973 402.829 192.071 401.762 215.229 402.118C255.088 402.118 294.947 402.118 334.748 402.118C361.34 401.94 387.933 402.058 414.526 401.999C424.949 401.999 435.432 402.236 445.856 402.118C446.863 402.118 447.811 402.058 448.818 402.355C449.351 402.592 450.061 402.888 449.765 403.599C448.403 406.383 447.87 409.7 444.79 411.359C443.428 411.714 442.066 411.655 440.704 411.655C424.416 411.655 408.07 411.655 391.783 411.655C390.124 411.655 388.407 411.951 386.926 410.826C371.942 410.826 356.958 410.885 341.973 410.885C341.322 411.359 340.611 411.537 339.841 411.596C333.267 411.596 326.634 412.248 320.059 410.885C294.651 410.885 269.243 410.826 243.894 410.826C238.505 410.826 233.056 410.944 227.666 410.944C226.126 411.951 224.409 411.655 222.75 411.655C188.044 411.655 153.396 411.655 118.69 411.655C113.241 411.655 113.181 411.714 114.484 416.868C115.965 422.615 117.031 428.42 118.69 434.107C121.829 444.889 128.403 452.886 138.412 458.04C140.366 459.047 142.439 459.521 144.69 459.58C157.364 460.054 170.098 460.409 182.773 460.172C200.422 459.817 218.012 461.179 235.662 460.765C236.906 460.824 238.209 460.883 239.275 461.713Z" fill="#3A3A49"/>
<path d="M58.9306 403.243C49.6912 405.435 43.7093 411.003 41.5179 420.363C41.2218 421.667 41.1626 423.088 41.1626 424.451C41.1626 496.901 41.1626 569.291 41.1034 641.741C41.1034 643.992 41.6363 645.059 44.0054 644.703C44.8938 644.585 45.7822 644.585 46.6706 644.703C48.5659 644.999 49.0989 644.052 48.9805 642.334C48.9212 641.564 48.9805 640.734 48.9805 639.964C48.9805 568.995 48.9805 498.086 48.9805 427.117C48.9805 425.754 48.5659 424.332 49.4543 423.088C50.8165 424.451 50.4611 426.228 50.4611 427.887C50.5204 444.296 50.4611 460.646 50.4611 477.055C50.4611 530.963 50.4611 584.812 50.4611 638.72C50.4611 640.971 50.0465 643.4 52.8302 644.526C53.4225 645.296 52.8894 645.71 52.2971 645.71C51.3495 645.71 50.3427 645.888 49.4543 645.473C34.0554 644.822 18.7156 645.236 3.31668 645.236C0.769933 645.236 0 644.703 0 642.038C0.0592267 569.173 0.0592123 496.368 0.0592123 423.503C0.0592123 410.47 7.34411 403.243 20.4332 403.243C31.094 403.243 41.7548 403.184 52.3564 403.125C52.771 402.828 53.2448 402.532 53.7778 402.473C55.6138 402.354 57.4499 401.762 58.9306 403.243Z" fill="#4A5380"/>
<path d="M664.639 388.374C663.573 394.476 662.507 400.518 661.441 406.62C661.027 409.108 661.027 411.655 660.612 414.143C659.605 419.949 658.776 425.754 657.473 431.441C656.821 435.173 656.17 438.905 655.341 442.637C653.682 452.649 652.083 462.66 646.812 471.665C641.423 480.906 634.138 488.133 624.78 493.346C623.181 494.235 621.582 494.946 619.924 495.657C613.231 498.856 606.064 499.922 598.78 500.455C595.7 500.692 595.581 500.811 596.233 503.772C596.707 505.905 597.358 507.978 597.714 510.111C597.773 511.059 597.832 512.007 598.247 512.895C601.326 525.099 603.932 537.48 606.657 549.802C609.973 564.908 613.409 580.014 616.488 595.179C616.725 596.127 616.37 597.075 616.37 598.022C619.45 612.536 622.589 627.05 625.609 641.564C625.787 642.452 626.853 643.755 625.195 644.17C623.536 644.585 623.714 643.044 623.536 642.037C620.338 627.346 617.199 612.655 614.001 597.904C613.586 597.075 612.757 596.423 612.698 595.416C609.855 583.805 607.545 572.135 604.998 560.465C601.445 544.174 597.714 527.942 594.041 511.651C593.864 510.526 593.745 509.341 593.272 508.215C593.094 507.682 592.916 507.09 592.739 506.497C591.021 500.159 591.969 500.574 584.861 500.574C567.863 500.574 550.806 500.574 533.808 500.574C529.248 500.574 529.189 500.633 528.063 505.076C527.649 506.675 527.293 508.334 526.82 509.933C526.701 510.585 526.405 511.237 526.287 511.888C519.89 539.672 513.908 567.514 507.808 595.297C507.63 596.127 507.156 596.778 506.564 597.371C504.55 606.849 502.478 616.387 500.464 625.865C499.99 626.931 500.938 627.938 500.523 629.005C499.161 633.981 498.865 639.194 496.792 643.992C496.555 644.288 496.318 644.466 495.963 644.525C493.949 644.644 493.831 643.163 493.949 641.8C494.067 639.964 494.541 638.187 495.015 636.41C495.844 633.329 496.2 630.19 497.029 627.109C497.443 625.747 497.858 624.443 497.976 623.022C499.575 614.432 501.708 606.02 503.366 597.43C503.425 596.601 503.781 595.89 503.899 595.061C509.94 567.218 516.04 539.316 522.378 511.533C522.496 510.881 522.792 510.289 522.851 509.637C523.266 507.623 523.858 505.609 524.273 503.595C524.865 500.87 524.628 500.514 521.726 500.514C514.441 500.455 507.216 500.514 499.931 500.514C499.22 500.514 498.569 500.514 497.858 500.455C497.325 500.455 496.851 500.455 496.318 500.455C492.646 500.159 488.856 500.277 485.717 497.73C484.887 496.604 484.828 495.36 484.828 494.057C484.769 488.133 484.769 482.209 484.828 476.345C484.887 472.79 485.598 472.079 489.27 472.079C497.562 472.02 505.794 472.02 514.086 472.079C527.471 472.139 540.856 472.553 554.241 471.724C561.882 471.25 569.64 471.724 577.281 471.605C596.884 471.25 611.099 462.186 619.864 444.77C623.595 437.365 624.602 429.427 623.655 421.133C622.766 413.61 622.47 406.027 621.7 398.445C621.463 396.194 622.411 394.476 624.188 393.113C628.274 389.855 632.361 386.597 636.448 383.339C641.186 379.488 644.739 374.927 645.628 368.647C645.983 366.278 645.805 363.967 645.332 361.598C642.133 345.84 638.817 330.142 635.678 314.325C635.382 312.962 634.967 311.659 635.322 310.237C638.165 308.638 641.067 309.941 643.851 310.237C649.833 310.889 655.104 313.436 659.842 317.168C660.612 317.938 661.382 318.708 662.211 319.478C671.983 328.72 674.767 339.975 671.865 352.949C671.865 354.252 671.332 355.437 671.273 356.74C669.674 365.626 668.074 374.571 666.298 383.457C665.824 385.057 665.705 386.893 664.639 388.374Z" fill="#3A3A49"/>
<path d="M53.0669 644.762C50.2832 645.236 49.4541 644.111 49.4541 641.267C49.5133 569.943 49.5133 498.619 49.5133 427.294C49.5133 425.932 49.5133 424.51 49.4541 423.148C49.8095 416.276 55.7912 411.004 63.4906 410.885C71.6045 410.767 79.7777 410.885 87.8916 410.885C87.0032 411.537 86.1741 412.248 85.2857 412.84C82.3244 414.913 81.1399 417.579 81.1399 421.37C81.2583 461.179 81.1991 500.988 81.1991 540.856C81.1991 542.16 81.3176 543.404 81.3768 544.707C81.7322 545.122 81.8506 545.596 81.7914 546.188C81.7321 546.543 81.6729 546.899 81.6136 547.254C81.5544 578.177 81.5544 609.1 81.6136 640.023C81.6729 640.379 81.7321 640.734 81.7914 641.09C81.8506 641.623 81.6729 642.156 81.3768 642.571C80.9622 643.281 81.4953 644.289 80.7845 644.94C78.6524 645.533 76.3426 644.762 74.2104 645.355C74.0327 645.414 73.8551 645.414 73.6182 645.414C71.9006 645.947 70.1831 645.77 68.4656 645.71C63.7867 645.592 59.0486 645.829 54.3698 645.592C53.9552 645.414 53.4222 645.236 53.0669 644.762Z" fill="#4A5380"/>
<path d="M386.868 410.944C406.412 410.944 425.957 410.944 445.442 410.885C446.39 411.951 445.857 413.136 445.62 414.262C440.704 435.173 435.848 456.144 430.991 477.056C429.392 483.987 427.734 490.858 426.194 497.789C425.957 498.856 425.779 499.922 425.187 500.87C423.943 501.225 423.706 502.114 423.469 503.358C419.975 519.826 416.244 536.295 412.69 552.764C412.276 554.718 411.328 556.199 409.374 556.97C403.155 559.517 396.995 562.183 390.836 564.73C389.77 565.204 388.644 565.796 387.46 565.145C387.401 563.96 387.282 562.775 387.282 561.649C387.282 512.718 387.282 463.727 387.282 414.795C387.164 413.432 387.341 412.129 386.868 410.944Z" fill="#4A5380"/>
<path d="M290.447 601.281C303.891 601.755 317.335 600.984 330.78 600.925C345.053 609.219 359.327 617.453 373.601 625.806C380.175 629.656 382.84 635.995 383.61 643.282C383.847 645.473 382.188 644.703 381.182 644.703C368.685 644.762 356.129 644.822 343.632 644.822C343.217 644.822 342.862 644.822 342.447 644.881C336.051 645.177 329.654 645.059 323.258 645.059C294.296 645.059 265.275 645.059 236.313 645.059C235.247 645.059 234.122 645.296 233.115 644.822C233.707 637.772 234.241 630.723 234.892 623.732C235.603 616.328 236.432 608.923 237.202 601.458C254.496 601.399 271.79 601.399 289.084 601.34C289.499 601.044 289.973 601.044 290.447 601.281Z" fill="black"/>
<path d="M387.401 565.085C394.982 562.005 402.503 558.865 410.084 555.785C411.387 555.252 411.565 554.067 411.802 552.882C415.355 536.65 418.909 520.419 422.522 504.187C422.818 503.002 422.403 501.048 424.536 500.929C429.629 501.64 434.13 504.187 438.987 505.668C440.112 506.024 441.178 506.438 442.244 506.972C443.074 507.445 443.607 508.097 443.784 509.045C444.021 520.241 444.377 531.437 443.607 542.574C442.422 544.47 442.126 546.603 442.185 548.795C442.481 558.806 441.534 568.817 441.415 578.829C441.356 584.397 441.178 590.025 440.882 595.594C440.645 600.748 436.677 603.176 432.768 605.605C428.445 605.309 424.299 604.006 420.094 603.058C410.262 600.807 400.371 598.615 390.54 596.364C389.296 596.068 387.993 596.008 387.104 594.942C378.694 592.987 370.343 590.914 361.874 589.077C359.505 588.544 358.853 587.893 359.801 585.464C362.466 578.77 366.494 573.557 373.482 570.95C378.28 569.232 382.781 567.1 387.401 565.085Z" fill="#C25730"/>
<path d="M664.64 388.374C665.173 386.834 664.64 385.116 665.528 383.635C669.26 380.14 672.339 376.052 675.597 372.083C681.164 365.33 687.205 358.932 691.173 350.935C695.556 342.049 697.807 332.748 697.866 322.974C698.103 299.989 697.984 277.004 697.925 253.96C697.925 245.015 692.832 237.847 685.192 235.655C681.519 234.588 680.749 235.181 680.69 238.913C680.69 241.875 680.69 244.837 680.69 247.799C680.69 249.635 681.342 250.761 683.119 251.412C687.857 253.13 689.633 256.566 689.633 261.542C689.515 279.433 689.515 297.264 689.633 315.154C689.693 329.431 685.014 341.812 675.301 352.297C673.879 353.837 673.109 356.207 670.563 356.385C670.74 355.2 670.918 353.956 671.096 352.771C675.241 347.143 680.217 342.167 682.704 335.414C685.132 328.898 686.672 322.204 686.672 315.213C686.672 297.738 686.672 280.262 686.672 262.846C686.672 260.121 686.376 257.514 684.007 255.618C683.296 255.085 682.526 254.374 681.638 254.73C680.631 255.144 680.809 256.211 680.809 257.04C680.749 264.03 680.809 271.08 680.809 278.07C680.809 279.077 680.809 280.025 680.809 281.032C680.749 286.008 680.039 286.719 675.182 286.778C662.448 286.838 649.774 286.778 637.04 286.778C633.487 286.778 629.933 286.719 626.38 286.838C624.958 286.778 623.892 285.949 622.885 285.06C622.175 284.409 622.471 283.935 623.181 283.52C624.721 282.928 626.32 283.105 627.86 283.105C642.845 283.105 657.829 283.105 672.813 283.105C676.959 283.105 677.137 282.928 677.137 278.781C677.137 237.847 677.137 196.853 677.137 155.918C677.137 152.009 676.959 151.772 672.932 151.772C616.252 151.772 559.513 151.772 502.833 151.772C498.747 151.772 498.569 151.949 498.569 156.155C498.569 174.816 498.569 193.476 498.569 212.137C498.569 213.795 498.806 215.513 497.858 217.053C497.325 217.527 496.792 217.527 496.259 217.113C495.252 215.691 495.489 214.092 495.489 212.551C495.489 193.18 495.489 173.868 495.489 154.497C495.489 149.224 496.022 148.691 501.234 148.691C524.628 148.691 547.964 148.691 571.358 148.691C577.162 148.691 577.162 148.691 577.162 142.767C577.162 102.958 577.162 63.2085 577.162 23.3996C577.162 17.9496 577.162 17.9496 571.891 17.9496C446.686 17.9496 321.541 17.9496 196.336 17.9496C195.625 17.9496 194.974 18.0088 194.263 17.9496C192.249 17.8311 191.361 18.7789 191.42 20.7931C191.479 21.8594 191.42 22.9849 191.42 24.0512C191.42 88.8 191.42 153.549 191.42 218.298C191.42 220.134 191.657 222.089 190.887 223.866C189.407 225.051 189.347 223.57 189.17 222.8C188.755 221.023 188.4 219.245 188.4 217.409C188.814 214.684 187.511 212.137 187.689 209.471C188.044 207.516 187.689 205.502 187.689 203.547C187.689 143.241 187.689 82.9353 187.689 22.6295C187.689 15.0468 187.926 14.8099 195.448 14.8099C321.304 14.8099 447.16 14.8099 573.016 14.8099C580.183 14.8099 580.242 14.8691 580.242 22.0963C580.242 62.4977 580.242 102.84 580.242 143.241C580.242 148.691 580.242 148.75 585.809 148.691C593.923 148.632 593.094 149.343 593.094 141.345C593.094 96.9158 593.094 52.4862 593.094 8.11581C593.094 2.60654 593.094 2.60653 587.527 2.60653C451.602 2.60653 315.677 2.60653 179.753 2.60653C174.185 2.60653 174.185 2.60654 174.185 8.05657C174.185 70.8504 174.185 133.644 174.185 196.379C174.185 198.334 174.541 200.348 173.534 202.184C173.06 202.718 172.527 202.718 171.935 202.362C171.935 201.296 171.875 200.17 171.875 199.104C171.875 134.177 171.875 69.1917 171.875 4.26524C171.875 0.0592377 171.876 0 176.258 0C314.73 0 453.201 0 591.673 0C595.7 0 595.7 -1.69486e-06 595.7 3.96904C595.7 51.3606 595.7 98.693 595.641 146.085C595.641 148.691 596.174 149.58 599.017 149.58C624.78 149.461 650.485 149.58 676.248 149.461C679.032 149.461 679.683 150.291 679.683 152.956C679.565 178.311 679.683 203.665 679.565 229.079C679.565 231.449 679.802 232.633 682.645 233.048C693.424 234.707 699.939 242.704 699.939 253.663C699.939 276.056 699.82 298.449 699.998 320.9C700.117 338.021 694.845 353.008 683.711 365.982C677.374 373.327 671.036 380.851 664.64 388.374Z" fill="#5A83AF"/>
<path d="M189.051 217.113C189.406 219.482 189.821 221.852 190.176 224.221C191.598 225.406 191.242 226.887 190.887 228.368C190.828 228.427 190.828 228.546 190.769 228.605C188.222 230.856 188.222 230.856 191.183 232.574C192.131 237.728 192.664 242.882 190.236 247.858C189.702 248.332 189.762 248.924 189.702 249.517C189.347 249.872 189.584 250.524 189.051 250.761C188.873 251.116 188.755 251.531 188.577 251.886C186.445 257.099 182.003 259.35 177.028 260.95C175.725 261.365 174.363 261.602 173.06 262.016C172.645 262.135 172.171 262.194 171.757 262.253C166.189 263.319 165.952 261.72 166.426 268.947C166.485 269.717 166.722 270.487 166.13 271.198C166.071 271.317 165.952 271.435 165.893 271.554C165.005 272.561 163.761 272.502 162.576 272.502C157.068 272.561 151.56 272.561 146.052 272.502C144.867 272.502 143.683 272.383 142.735 271.554C142.617 271.317 142.498 271.08 142.439 270.843C142.38 264.978 142.38 259.054 142.321 253.19C142.321 250.82 141.728 249.102 138.886 248.332C135.924 247.503 133.614 245.251 132.963 241.993C132.252 238.439 134.029 235.951 136.753 233.996C137.464 233.463 138.293 233.107 138.352 232.041C139.359 230.975 140.722 231.212 141.965 231.212C151.205 231.271 159.141 228.427 165.36 221.319C169.032 217.113 173.415 213.795 178.923 212.196C183.661 210.774 187.333 212.551 189.051 217.113Z" fill="#FDD1C1"/>
<path d="M53.7776 403.006C53.3038 403.006 52.8893 403.006 52.4155 403.006C52.4155 346.669 52.4154 290.273 52.4747 233.937C52.4747 231.863 51.5271 230.442 50.2833 228.961C31.2718 206.805 18.3012 181.51 11.431 153.134C6.75213 134 5.33071 114.628 6.98904 95.0201C7.04826 94.25 6.81137 93.2429 7.81822 93.006C8.70661 92.8283 9.06199 93.8946 9.47657 94.487C18.0643 105.861 25.4084 117.946 31.6271 130.801C32.1009 131.749 32.5747 132.696 33.3446 134.296C33.9369 127.069 34.4107 120.552 35.2399 114.095C37.5497 96.5011 42.1101 79.5586 48.5065 63.0308C48.8027 62.2607 48.8619 61.0759 49.9872 61.0167C51.1717 61.0167 51.1124 62.2014 51.4086 62.9716C55.2583 73.1015 58.2788 83.5277 60.7663 94.0723C61.0032 95.0201 61.2401 95.9679 61.6547 97.6859C63.6684 90.1625 65.5636 83.2907 67.8734 76.5374C72.6115 62.6161 78.4157 49.1688 85.5228 36.2545C85.9374 35.4252 86.1151 34.0034 87.2996 34.1812C88.4841 34.3589 88.1879 35.7806 88.4248 36.6692C92.393 53.4932 94.8213 70.5542 95.8874 87.7929C96.4796 97.7451 96.3019 107.697 96.3019 117.709C97.4272 117.768 97.4864 116.82 97.8418 116.228C102.047 109.889 106.548 103.788 111.523 98.0413C112.056 97.4489 112.411 96.2049 113.477 96.6196C114.544 96.975 114.188 98.1006 114.247 98.9892C114.78 122.152 111.701 144.781 104.949 166.937C97.7233 190.633 86.6481 212.433 71.8415 232.278C70.657 233.818 70.4202 235.418 70.4202 237.254C70.4202 278.899 70.4202 320.545 70.4202 362.19C70.2425 364.441 70.0648 366.633 69.2357 368.766C67.6958 367.226 68.1696 365.271 68.1696 363.434C68.1103 325.047 68.1696 286.66 68.1696 248.273C68.1696 245.014 68.1103 241.756 68.1696 238.498C68.2288 236.306 67.3404 235.24 65.0306 235.299C62.6615 235.358 60.2925 235.358 57.9234 235.299C55.4952 235.24 54.5475 236.366 54.666 238.676C54.7252 239.742 54.666 240.868 54.666 241.934C54.666 293.828 54.666 345.722 54.666 397.615C54.6068 399.452 55.0214 401.407 53.7776 403.006Z" fill="#FFF9C4"/>
<path d="M387.282 595.001C395.692 596.838 404.102 598.615 412.512 600.451C419.264 601.992 426.016 603.591 432.827 605.131C433.182 605.842 433.064 606.494 432.767 607.145C432.116 608.271 431.05 608.982 429.984 609.752C422.995 614.728 416.006 619.763 409.018 624.68C403.865 628.353 401.437 633.566 400.43 639.609C400.074 641.564 400.785 642.63 402.917 642.63C403.924 642.63 404.872 642.63 405.879 642.63C430.339 642.63 454.8 642.63 479.26 642.63C480.8 642.63 482.399 642.393 483.939 643.163C484.413 643.518 484.531 643.992 484.472 644.585C484.176 645.355 483.821 645.888 482.932 645.236C481.866 644.762 480.8 644.999 479.734 644.999C450.121 644.999 420.448 644.999 390.835 644.999C389.769 644.999 388.644 645.236 387.637 644.762C387.518 644.407 387.341 644.052 387.341 643.637C387.222 627.465 387.222 611.233 387.282 595.001Z" fill="#4A5380"/>
<path d="M616.37 597.963C615.719 597.312 616.015 596.482 615.956 595.712C617.258 594.468 618.917 594.764 620.457 594.764C630.288 594.705 640.179 594.764 650.011 594.764C653.801 594.764 654.038 594.527 654.038 590.736C654.038 566.092 654.038 541.39 654.038 516.746C654.038 512.777 653.801 512.54 649.833 512.599C632.361 512.658 614.949 512.362 597.477 512.777C596.707 512.125 597.122 511.237 597.062 510.407C598.484 509.223 600.261 509.519 601.919 509.519C617.673 509.519 633.487 509.519 649.241 509.519C653.979 509.519 654.038 509.46 654.038 504.78C654.038 503.002 654.097 501.225 654.038 499.448C653.979 496.368 653.683 496.071 650.603 496.071C641.897 496.012 633.25 496.071 624.543 496.012C623.003 496.012 621.345 496.368 620.101 495.005C621.464 494.294 622.826 493.583 624.247 492.872C632.776 491.806 641.364 492.576 649.892 492.399C653.86 492.28 654.038 492.221 654.038 488.193C654.097 475.752 653.979 463.312 654.097 450.872C654.097 448.206 654.986 445.599 654.512 442.934C655.223 439.202 655.933 435.469 656.644 431.797C658.125 433.218 657.71 435.114 657.71 436.832C657.769 458.336 657.71 479.84 657.71 501.403C657.71 537.539 657.71 573.675 657.71 609.752C657.71 611.233 657.355 612.892 658.598 614.373C659.724 612.655 659.309 610.937 659.309 609.337C659.309 548.261 659.368 487.126 659.309 426.05C659.309 422.022 660.079 417.994 659.842 413.966C660.375 411.537 660.849 409.167 661.382 406.738C661.441 408.219 661.501 409.7 661.501 411.181C661.501 478.714 661.501 546.188 661.501 613.721C661.501 617.275 659.546 618.638 656.111 617.453C654.808 616.979 655.045 615.972 654.986 615.024C654.986 609.989 654.926 604.954 655.045 599.918C655.104 598.023 654.571 597.252 652.557 597.371C650.425 597.549 648.234 597.489 646.042 597.371C644.443 597.312 644.029 597.963 644.029 599.444C644.088 606.138 644.147 612.892 643.97 619.586C643.91 621.896 645.391 621.718 646.753 622.133C652.024 623.792 655.341 627.228 656.17 632.737C656.999 638.128 655.045 642.511 650.603 645.533C646.161 648.613 641.304 648.791 636.685 646.006C632.065 643.222 629.755 638.957 630.229 633.566C630.703 627.938 634.434 623.495 639.942 622.192C642.193 621.659 642.607 620.711 642.607 618.638C642.489 612.299 642.548 606.02 642.548 599.681C642.548 598.496 642.785 597.312 640.89 597.312C633.072 597.371 625.313 597.371 617.495 597.371C617.081 597.252 616.666 597.489 616.37 597.963Z" fill="#5A83B0"/>
<path d="M189.051 217.113C184.55 211.663 181.588 211.07 175.192 214.329C171.875 215.987 168.855 218.12 166.545 220.963C159.734 229.375 150.731 232.219 140.367 232.041C139.656 232.041 139.004 232.041 138.294 231.982C137.761 227.598 137.938 223.155 138.175 218.772C138.59 211.011 145.105 204.732 152.863 204.021C159.201 203.488 165.597 203.31 171.875 202.244C172.29 202.244 172.704 202.244 173.178 202.244C180.582 199.163 187.689 202.836 188.103 210.063C188.636 212.374 189.406 214.684 189.051 217.113Z" fill="black"/>
<path d="M222.987 509.163C223.402 509.637 223.639 510.23 223.521 510.881C222.218 512.066 220.559 511.829 219.019 511.829C208.951 511.888 198.941 511.77 188.873 511.888C181.233 511.948 175.132 517.575 174.244 525.099C173.829 529.009 174.303 529.601 178.271 529.601C193.433 529.601 208.595 529.601 223.757 529.601C225.12 529.601 226.541 529.542 227.844 529.956C228.436 530.49 228.14 531.141 228.14 531.793C222.987 531.793 217.894 531.911 212.741 531.734C210.372 531.674 209.839 532.444 209.839 534.696C209.898 571.009 209.898 607.323 209.898 643.696C209.898 644.822 210.254 646.066 209.484 647.31C208.122 646.362 208.714 644.94 208.714 643.874C208.655 607.856 208.714 571.839 208.655 535.762C208.655 531.319 209.188 531.852 204.746 531.793C200.6 531.793 196.454 531.734 192.308 531.793C187.333 531.852 188.044 531.082 188.044 536.236C188.044 572.076 188.044 607.915 188.044 643.755C188.044 644.881 188.34 646.066 187.392 647.428C186.444 646.066 186.741 644.762 186.741 643.637C186.741 607.619 186.681 571.602 186.8 535.525C186.8 532.622 186.208 531.437 183.069 531.734C180.048 532.03 176.968 531.734 173.888 531.793C172.585 531.793 171.993 531.437 171.875 530.016C170.749 517.931 178.39 509.4 190.65 509.282C194.973 509.223 199.356 509.163 203.68 509.341C205.989 509.46 206.582 508.63 206.404 506.498C206.226 503.832 206.404 501.166 206.404 498.5C206.819 498.5 207.174 498.5 207.588 498.5C209.069 500.514 208.477 502.884 208.418 505.076C208.418 507.505 209.306 508.452 211.734 508.334C214.281 508.215 216.828 508.275 219.375 508.334C220.618 508.275 221.921 508.215 222.987 509.163Z" fill="#5983AF"/>
<path d="M81.5539 642.452C81.5539 642.037 81.5539 641.623 81.4947 641.149C82.1462 639.964 83.1531 639.253 84.2192 638.542C98.0193 629.716 104.89 616.92 105.364 600.748C105.66 590.084 105.423 579.421 105.423 568.818C105.423 565.382 105.186 565.145 101.691 565.145C96.5386 565.145 91.445 565.145 86.2922 565.145C82.5608 565.145 82.3239 565.382 82.3239 569.232C82.3239 591.506 82.3239 613.78 82.3239 636.114C82.3239 637.891 82.5608 639.668 81.4355 641.267C80.4286 640.556 80.8432 639.49 80.8432 638.542C80.8432 614.491 80.8432 590.44 80.8432 566.329C80.8432 560.524 80.8432 554.719 80.8432 548.913C80.8432 547.906 80.3694 546.721 81.4355 545.892C82.4424 547.017 82.3239 548.439 82.3239 549.802C82.3831 552.823 82.3239 555.903 82.3239 558.925C82.3239 560.583 83.0346 561.472 84.8115 561.472C90.7935 561.472 96.8348 561.472 102.817 561.472C104.771 561.472 105.364 560.465 105.364 558.688C105.364 555.726 105.304 552.764 105.364 549.861C105.423 547.551 104.357 546.721 102.165 546.78C96.6571 546.84 91.1489 546.84 85.6407 546.78C84.16 546.78 82.6793 546.958 81.4355 545.892C81.4355 545.477 81.4355 545.062 81.4355 544.648C89.3128 544.648 97.1902 544.648 105.067 544.589C106.785 544.589 107.496 545.003 107.496 546.899C107.437 565.856 108.029 584.812 107.259 603.71C106.548 621.363 97.5455 634.514 81.5539 642.452Z" fill="#5A83AF"/>
<path d="M613.468 595.594C613.646 596.364 613.823 597.134 614.06 597.904C613.35 597.252 612.461 597.252 611.573 597.252C576.984 597.252 542.337 597.252 507.748 597.252C507.334 597.252 506.979 597.312 506.564 597.371C506.742 596.779 506.919 596.245 507.097 595.653C508.222 594.646 509.644 594.646 511.006 594.646C543.877 594.646 576.748 594.646 609.618 594.646C610.921 594.646 612.343 594.527 613.468 595.594Z" fill="#5881AE"/>
<path d="M340.079 411.003C340.671 411.003 341.323 411.003 341.915 410.944C343.396 427.827 342.27 444.77 342.507 461.653C342.567 465.385 341.027 468.703 338.539 471.546C338.598 470.302 338.717 469.117 338.776 467.873C340.138 465.682 340.257 463.193 340.316 460.824C340.553 453.241 341.145 445.659 340.908 438.076C340.612 429.723 340.908 421.311 339.842 413.018C339.724 412.307 339.664 411.655 340.079 411.003Z" fill="#5982AE"/>
<path d="M233.115 644.822C257.28 644.822 281.385 644.881 305.549 644.881C317.869 644.881 330.188 644.881 342.448 644.881C338.479 645.829 334.452 645 330.425 645.355C329.418 645.414 327.937 644.644 327.641 646.599C327.582 647.014 326.93 647.251 326.812 646.836C325.983 644.229 323.91 645.473 322.37 645.414C318.046 645.236 313.723 645.296 309.34 645.414C308.215 645.414 306.616 644.703 306.26 646.717C306.201 647.073 305.49 647.369 305.372 646.895C304.661 644.17 302.47 645.414 301.048 645.414C279.371 645.355 257.694 645.355 236.017 645.355C235.129 645.296 234.004 645.888 233.115 644.822Z" fill="#50749B"/>
<path d="M387.519 644.822C418.672 644.822 449.825 644.763 480.919 644.763C481.63 644.763 482.341 644.703 482.815 645.355C452.135 645.355 421.515 645.355 390.835 645.355C389.769 645.296 388.525 645.77 387.519 644.822Z" fill="#6088B2"/>
<path d="M482.814 645.296C483.229 645.118 483.584 644.881 483.999 644.703C484.65 644.407 485.361 644.526 485.953 644.763C489.507 646.184 492.942 645.355 496.377 644.111L496.318 644.17C501.115 639.846 502.004 634.573 499.871 628.649C499.931 627.702 499.871 626.754 500.405 625.865C502.3 629.419 503.899 632.974 503.01 637.298C501.115 646.421 490.455 650.746 482.814 645.296Z" fill="#6088B2"/>
<path d="M336.051 515.087C336.051 514.495 336.11 513.902 336.11 513.251C341.737 517.635 342.981 523.618 342.566 530.312C342.507 531.556 341.796 531.734 340.848 531.734C338.894 531.793 336.939 531.852 334.985 531.971C334.925 530.963 334.689 529.956 335.162 529.009C335.577 529.068 335.932 529.245 336.288 529.364C339.842 530.312 340.73 529.542 340.493 525.869C340.256 521.722 337.946 518.523 336.051 515.087Z" fill="#5C84B0"/>
<path d="M53.0666 644.762C53.4812 644.762 53.8958 644.822 54.3104 644.822C55.258 645.414 56.3241 645.296 57.331 645.355C60.0555 645.355 62.7208 645.355 65.386 645.355C66.5706 645.414 67.8144 645.355 68.9397 644.881C70.5388 645.059 72.138 645.177 73.7371 645.355C65.6229 647.902 57.5087 648.08 49.3945 645.414C50.6383 644.94 52.0005 645.77 53.0666 644.762Z" fill="#5B82AE"/>
<path d="M74.3291 645.296C76.4612 644.229 78.7116 644.881 80.9029 644.881C78.7709 645.77 76.5204 645.118 74.3291 645.296Z" fill="#5B82AE"/>
<path d="M239.098 580.251C239.394 580.251 239.749 580.191 240.045 580.191C240.104 581.021 240.282 581.85 239.63 582.561C239.453 581.791 239.275 581.021 239.098 580.251Z" fill="#3F1700"/>
<path d="M273.212 345.662C275.996 341.516 279.609 338.08 282.985 334.466C284.88 332.452 284.88 331.208 282.511 329.845C281.859 329.49 281.326 328.838 280.675 328.364C281.741 324.692 284.524 322.263 287.19 319.893C290.506 316.99 294.415 314.799 298.147 312.429C299.213 311.777 300.516 310.948 301.167 313.021C301.7 319.656 301.286 326.232 301.404 332.867C301.463 337.547 301.522 337.606 306.261 337.606C329.537 337.606 352.813 337.606 376.089 337.606C380.471 337.606 380.59 337.487 380.59 333.163C380.59 303.958 380.59 274.753 380.59 245.548C380.59 241.164 380.531 241.164 376.089 241.164C352.635 241.164 329.122 241.164 305.668 241.164C301.463 241.164 301.404 241.223 301.404 245.488C301.345 255.263 301.582 265.037 301.286 274.812C301.108 276.471 300.042 277.359 298.739 278.189C293.408 281.506 288.078 284.883 282.748 288.2C281.859 288.733 280.912 289.74 279.846 288.792C279.016 288.022 279.609 286.956 279.846 286.008C280.319 284.29 280.971 282.632 281.504 280.973C282.037 279.196 281.682 277.655 280.201 276.471C278.661 275.286 277.121 275.582 275.581 276.589C274.811 277.122 274.101 278.485 272.916 277.122C272.205 275.641 272.383 274.042 272.383 272.442C272.383 260.476 272.383 248.569 272.383 236.602C272.383 227.953 275.226 225.11 283.932 225.051C343.277 225.051 402.681 225.051 462.026 225.051C471.325 225.051 480.564 225.051 489.863 225.051C491.225 225.051 492.646 225.051 494.009 225.288C498.214 226.058 500.642 228.724 500.938 232.93C500.997 233.996 500.997 235.121 500.997 236.188C500.997 271.791 500.997 307.453 500.997 343.056C500.997 344.359 501.057 345.603 500.879 346.906C500.464 350.579 497.799 353.245 494.127 353.66C492.824 353.778 491.58 353.778 490.277 353.778C421.456 353.778 352.635 353.778 283.814 353.778C282.037 353.778 280.26 353.897 278.483 353.482C274.397 352.416 272.265 349.217 273.212 345.662Z" fill="#2C2C2C"/>
<path d="M273.211 345.662C274.041 351.053 276.114 352.83 281.444 352.83C351.568 352.83 421.693 352.83 491.817 352.83C497.799 352.83 499.99 350.579 499.99 344.596C499.99 307.868 499.99 271.198 499.99 234.47C499.99 228.605 497.562 226.176 491.758 226.176C421.811 226.176 351.924 226.176 281.977 226.176C275.699 226.176 273.33 228.546 273.33 234.707C273.33 247.917 273.33 261.128 273.33 274.397C273.33 275.464 273.508 276.53 273.567 277.596C274.396 278.426 273.745 279.255 273.448 280.025C271.435 285.416 269.362 290.866 267.23 296.197C266.756 297.441 266.223 298.863 264.505 298.863C264.505 275.997 264.328 253.13 264.446 230.264C264.505 222.74 270.428 217.053 278.009 217.053C306.378 216.994 334.748 217.053 363.118 217.053C363.947 216.639 364.835 216.283 365.664 217.053C409.196 217.053 452.728 217.053 496.2 217.053C496.674 217.053 497.207 217.053 497.681 217.053C501.412 216.461 505.972 219.008 508.282 222.977C508.934 224.103 509.348 225.288 509.822 226.473C510.296 227.894 510.71 229.257 510.71 230.797C510.71 239.742 511.125 248.747 510.592 257.632C510.059 265.393 510.355 273.153 510.177 280.914C510.118 282.098 510.059 283.283 510.474 284.409C510.651 284.942 510.651 285.475 510.71 286.067C510.947 291.458 510.77 296.908 510.829 302.299C510.888 306.09 510.947 306.209 514.856 306.209C519.476 306.209 524.096 306.209 528.715 306.209C530.078 306.209 531.499 306.09 532.743 306.86C533.039 307.157 533.157 307.453 532.98 307.808C531.914 308.697 530.551 308.519 529.308 308.519C524.214 308.578 519.121 308.519 514.027 308.578C512.961 308.578 511.599 308.105 511.007 309.645C510.474 314.621 510.888 319.656 510.77 324.632C510.77 326.706 512.191 326.943 513.79 326.943C519.476 326.943 525.162 326.943 530.848 326.943C532.328 326.943 533.809 326.765 535.112 327.654C535.408 327.95 535.408 328.305 535.171 328.601C527.116 328.661 519.002 329.135 510.947 328.364C510.947 328.424 510.947 328.542 511.007 328.779C518.943 328.838 526.939 328.72 534.934 328.838C535.349 328.957 535.467 329.253 535.408 329.668C534.283 330.793 532.861 330.556 531.499 330.556C525.754 330.616 520.068 330.556 514.323 330.556C511.007 330.556 510.77 330.793 510.71 334.051C510.651 338.968 510.829 343.944 510.651 348.861C510.414 356.799 505.676 362.427 498.391 363.671C497.503 363.612 496.674 363.849 495.785 364.086C490.988 364.501 486.25 364.382 481.453 364.145C480.623 363.967 479.735 363.967 478.906 364.145C469.43 364.56 460.012 364.264 450.536 364.323C441.771 364.382 433.005 364.323 424.24 364.323C420.39 364.323 420.153 364.56 420.153 368.292C420.153 375.104 420.094 381.917 420.153 388.67C420.153 391.751 420.508 391.988 423.588 392.106C424.476 392.106 425.365 392.106 426.253 392.106C432.235 392.225 434.545 395.72 432.176 401.584C436.499 401.584 440.645 401.584 444.85 401.584C446.331 401.584 447.812 401.407 449.174 402.177C449.529 402.473 449.529 402.769 449.233 403.065C415.652 403.065 382.07 403.006 348.429 403.006C343.81 403.006 339.19 403.421 334.57 402.888C334.57 402.473 334.748 402.177 335.103 402.058C336.584 401.407 338.183 401.644 339.782 401.644C340.908 401.644 341.559 401.525 341.263 399.985C340.315 394.594 342.329 392.284 347.896 392.165C353.997 392.047 353.819 392.758 353.819 386.182C353.819 380.377 353.819 374.571 353.819 368.706C353.819 364.382 353.701 364.323 349.318 364.323C326.575 364.323 303.832 364.323 281.029 364.323C275.225 364.323 270.072 362.96 266.4 358.103C265.512 356.918 264.505 355.733 265.216 354.074C267.763 351.112 270.132 348.032 273.211 345.662Z" fill="#5494A2"/>
<path d="M53.778 403.006C53.778 347.736 53.778 292.525 53.7188 237.254C53.7188 234.588 54.4887 233.818 57.0353 233.996C60.352 234.233 63.7278 234.114 67.1036 233.996C68.6435 233.937 69.2357 234.529 69.1173 236.069C69.0581 236.839 69.1173 237.669 69.1173 238.439C69.1173 280.44 69.1173 322.5 69.1173 364.501C69.1173 365.863 69.1766 367.285 69.2358 368.647C67.7551 374.394 67.5775 380.199 69.2358 385.945C70.3018 390.625 69.8872 395.364 69.9464 400.044C69.9464 401.999 69.1765 402.888 67.1036 402.769C65.2676 402.651 63.3725 402.532 61.5365 402.888C60.7074 403.006 59.8782 403.066 59.049 403.184C57.213 403.184 55.4955 403.125 53.778 403.006Z" fill="#FFF9C4"/>
<path d="M264.564 298.863C265.749 298.152 266.282 297.027 266.697 295.783C269.006 289.681 271.316 283.639 273.626 277.596C275.699 274.812 277.772 274.101 280.082 275.286C282.332 276.411 283.102 278.84 282.096 281.861C281.385 284.053 280.615 286.245 279.549 289.326C287.011 284.586 293.822 280.262 300.574 275.878C301.167 274.693 302.351 274.456 303.476 274.101C306.793 272.975 310.05 273.035 313.19 274.575C315.973 275.878 316.092 277.3 313.486 278.899C308.984 281.684 304.424 284.349 300.1 287.43C301.403 287.371 302.351 286.601 303.358 285.949C306.675 283.816 310.11 281.921 313.426 279.788C318.224 276.708 320.178 277.063 323.85 281.565C323.969 281.98 323.969 282.395 323.791 282.809C318.105 286.423 312.183 289.681 306.852 293.828C312.597 290.273 318.875 287.489 324.146 283.165C324.561 282.987 324.976 283.046 325.39 283.283C327.759 290.747 325.982 295.664 319.112 300.048C313.841 303.425 308.57 306.86 303.476 310.533C302.47 311.066 301.7 311.955 300.456 311.896C293.171 316.516 285.471 320.604 280.733 328.305C272.56 321.789 264.328 315.272 256.154 308.815C258.938 305.498 261.722 302.18 264.564 298.863Z" fill="#FDD1C1"/>
<path d="M142.736 271.613C150.435 271.613 158.194 271.613 165.893 271.613C167.551 291.044 169.21 310.474 170.868 329.905C171.697 339.442 172.408 348.98 173.296 358.458C173.533 360.709 172.763 361.065 170.75 361.065C165.656 360.946 160.504 360.887 155.351 361.005C153.574 361.065 153.041 360.531 152.804 358.754C151.383 346.196 149.843 333.696 148.362 321.196C146.526 304.669 144.631 288.141 142.736 271.613Z" fill="#DADADA"/>
<path d="M217.834 395.364C217.598 396.786 217.301 398.148 217.065 399.57C217.361 400.222 217.065 400.755 216.768 401.288C216.354 402.058 215.762 402.532 214.932 402.769C214.577 402.769 214.222 402.828 213.866 402.769C201.133 402.769 188.458 402.769 175.724 402.769C174.658 402.769 173.533 403.184 172.585 402.414C174.54 394.12 176.672 385.827 178.449 377.533C179.041 374.927 179.87 373.623 182.832 373.979C185.26 374.275 187.747 374.394 190.116 374.927C194.973 375.993 199.77 377.474 204.627 378.54C213.274 380.436 217.124 385.767 217.834 395.364Z" fill="#FDD1C1"/>
<path d="M172.645 402.414C175.547 402.947 178.508 402.651 181.41 402.651C192.663 402.769 203.916 402.828 215.228 402.888V403.006C176.968 403.006 138.708 403.006 100.448 403.065C88.5432 403.065 76.5794 403.125 64.6749 403.125C63.6089 403.125 62.5428 403.006 61.4175 402.947C63.1943 402.236 65.0895 402.651 66.9256 402.651C68.6431 402.651 69.1169 402.058 69.0577 400.459C68.9985 395.661 69.1169 390.803 69.1169 386.005C69.8869 387.071 70.1237 388.374 70.3607 389.618C71.486 392.165 71.0714 394.831 71.1306 397.497C71.1898 401.466 71.2491 401.584 75.3357 401.584C78.297 401.584 81.2583 401.407 84.1012 402.532C112.352 402.532 140.603 402.532 168.854 402.473C170.098 402.473 171.401 402.414 172.645 402.414Z" fill="#5781AD"/>
<path d="M244.723 320.9C234.122 320.9 223.521 320.9 212.919 320.9C212.742 320.426 212.505 320.012 212.327 319.538C223.58 319.538 234.774 319.597 246.026 319.597C245.553 320.071 245.138 320.486 244.723 320.9Z" fill="#5882AE"/>
<path d="M229.384 338.021C226.067 338.021 222.692 337.961 219.375 337.961C218.901 337.665 218.783 337.25 218.783 336.717C222.751 336.717 226.66 336.717 230.628 336.776C230.391 337.369 229.976 337.784 229.384 338.021Z" fill="#5882AF"/>
<path d="M189.109 250.879C189.169 250.346 189.228 249.872 189.761 249.635C189.761 256.981 189.761 264.327 189.761 271.672C189.524 271.672 189.346 271.672 189.109 271.672C189.109 264.682 189.109 257.751 189.109 250.879Z" fill="#5882AE"/>
<path d="M171.935 270.961C171.935 267.822 171.875 264.741 171.875 261.602C172.29 261.542 172.763 261.542 173.178 261.483C173.178 264.682 173.178 267.822 173.178 271.021C172.704 271.198 172.29 271.554 171.935 270.961Z" fill="#5881AE"/>
<path d="M239.275 461.712C208.536 461.416 177.739 461.061 147 460.824C137.464 460.765 131.009 455.374 125.323 448.798C120.94 443.704 118.334 437.72 116.913 431.145C115.669 425.28 114.307 419.416 112.708 413.61C112.056 411.24 112.589 410.826 114.899 410.826C149.31 410.885 183.72 410.885 218.131 410.885C221.27 410.885 224.409 410.944 227.607 411.004C231.279 426.761 234.952 442.519 238.624 458.277C238.86 459.402 239.038 460.587 239.275 461.712Z" fill="#6DB5DE"/>
<path d="M290.446 601.281C289.973 601.281 289.558 601.34 289.084 601.34C288.255 597.252 289.617 593.343 290.091 589.433C292.697 568.995 295.421 548.617 298.146 528.179C301.048 506.616 303.95 485.053 306.793 463.43C307.089 461.357 307.326 459.343 307.563 457.269C307.681 456.322 307.681 455.018 309.102 455.315C310.287 455.552 309.932 456.736 309.813 457.566C308.984 463.904 308.155 470.243 307.266 476.641C304.779 495.183 302.291 513.725 299.863 532.267C296.843 554.837 293.881 577.407 290.92 599.918C290.92 600.451 290.624 600.866 290.446 601.281Z" fill="#FDFDFD"/>
<path d="M225.476 509.104C233.293 509.163 241.17 509.163 248.988 509.222C248.988 509.756 248.929 510.289 248.929 510.822C241.289 510.822 233.649 510.881 226.009 510.94C225.772 510.289 225.653 509.696 225.476 509.104Z" fill="#5881AE"/>
<path d="M246.204 531.971C241.051 531.437 235.899 531.852 230.747 531.734C230.687 531.319 230.628 530.904 230.569 530.489C235.84 530.489 241.111 530.43 246.381 530.43C246.441 530.963 246.618 531.497 246.204 531.971Z" fill="#5881AD"/>
<path d="M449.47 403.125C449.529 403.006 449.588 402.829 449.588 402.651C451.128 399.333 454.208 397.615 457.169 395.897C463.211 392.462 469.666 391.455 476.477 393.232C477.603 393.528 478.787 393.706 479.912 393.943C480.386 394.002 480.86 394.061 481.334 394.18C486.368 395.542 491.461 396.253 496.496 397.675C496.792 397.793 497.029 397.971 497.325 398.149C502.3 405.731 506.505 413.788 511.065 421.607C519.949 436.891 528.656 452.175 537.421 467.518C538.25 468.94 539.849 470.599 539.079 472.02C538.25 473.56 536.059 472.613 534.46 472.613C527.945 472.79 521.489 472.494 514.974 472.79C506.15 472.85 497.266 472.909 488.441 472.909C487.256 472.909 486.131 472.672 486.131 474.568C486.131 482.032 486.013 489.496 486.013 496.96C486.013 497.256 486.25 497.493 486.368 497.789C486.96 499.093 486.842 500.514 486.842 501.877C486.842 513.488 486.901 525.099 486.842 536.71C486.842 540.857 486.486 544.944 485.776 549.032C484.828 550.335 483.466 549.861 482.222 549.742C471.621 548.676 461.078 547.077 450.536 545.714C448.345 545.418 446.213 545.299 444.08 545.951C442.837 545.122 443.074 543.937 443.192 542.752C443.251 531.319 443.31 519.886 443.429 508.393C443.843 495.301 443.488 482.15 443.666 469.058C443.725 462.542 444.08 456.026 444.376 449.569C444.85 437.898 455.926 427.413 467.593 427.057C472.035 426.939 476.418 426.998 480.86 426.584C485.124 426.169 489.507 426.524 493.83 426.406C485.657 426.465 477.543 426.406 469.37 426.465C454.86 426.584 443.725 437.721 443.666 452.294C443.607 460.765 443.488 469.295 443.666 477.766C443.903 486.652 442.777 495.479 443.014 504.365C443.014 505.431 443.074 506.557 442.126 507.386C436.263 505.491 430.34 503.654 424.713 500.988C431.702 471.132 438.691 441.275 445.62 411.418C445.68 411.241 445.62 411.004 445.62 410.826C446.805 408.279 448.108 405.731 449.47 403.125Z" fill="#FDD1C1"/>
<path d="M215.229 403.006V402.888C215.288 402.769 215.347 402.651 215.466 402.592C216.532 401.703 217.776 401.644 219.079 401.644C254.259 401.644 289.499 401.644 324.68 401.644C326.457 401.644 328.234 402.295 330.011 401.999C327.701 402.177 325.391 401.644 323.081 401.644C289.085 401.703 255.029 401.703 221.033 401.644C219.493 401.644 217.835 402.058 216.532 400.755C216.71 400.34 216.887 399.985 217.065 399.57C252.542 399.57 288.019 399.63 323.555 399.57C327.642 399.57 331.373 400.4 334.808 402.532C334.808 402.651 334.808 402.769 334.808 402.888C321.6 402.947 308.452 403.065 295.244 403.125C269.777 403.184 244.25 403.125 218.783 403.125C217.598 403.125 216.414 403.065 215.229 403.006Z" fill="#5882AE"/>
<path d="M514.856 472.85C521.134 472.316 527.412 472.672 533.69 472.494C535.348 472.435 537.007 472.494 539.257 472.494C524.924 447.495 510.887 422.97 496.792 398.445C496.792 397.852 497.206 397.556 497.739 397.497C504.432 398.326 510.888 400.103 517.402 401.525C522.614 402.651 527.886 403.48 532.979 405.08C533.571 405.376 534.164 405.731 534.874 405.85C551.103 408.989 567.449 411.714 583.618 415.446C584.092 414.262 583.322 413.61 582.907 412.958C579.117 406.975 575.563 400.814 571.832 394.772C570.707 392.995 569.404 392.284 567.331 392.047C563.54 391.573 559.69 391.632 555.841 391.099C552.228 390.566 548.793 391.336 545.476 392.876C544.588 393.291 543.758 393.883 542.752 393.883C542.396 393.765 542.159 393.587 541.982 393.291C541.567 392.521 541.271 391.691 541.152 390.862C539.494 374.63 537.717 358.399 535.941 342.167C535.585 338.968 535.23 335.71 534.993 332.452C534.934 331.504 534.697 330.497 535.407 329.608C535.526 329.431 535.526 329.312 535.407 329.134C534.993 328.957 534.993 328.72 535.348 328.483C535.348 328.305 535.289 328.068 535.289 327.89C533.512 325.758 534.045 323.092 533.749 320.604C533.275 317.109 532.742 313.673 532.683 310.178C532.742 309.349 532.565 308.519 533.098 307.749C533.157 307.571 533.157 307.394 533.038 307.275C531.321 303.543 531.795 299.574 533.394 296.197C535.23 292.288 537.717 288.496 541.626 286.067C542.574 285.534 543.285 284.764 544.232 284.231C544.943 283.876 545.654 283.52 546.364 283.105C553.412 279.906 560.875 280.795 568.278 280.973C574.26 280.499 580.183 281.15 586.165 280.795C589.778 281.98 593.39 281.091 597.003 281.091C599.076 281.624 601.149 281.624 603.163 281.21C607.723 280.38 612.225 280.973 616.726 281.447C618.799 281.684 621.109 281.802 622.352 284.053C623.537 284.823 624.722 285.593 625.906 286.304C627.327 286.067 628.098 287.015 628.808 287.904C631.651 291.103 633.724 294.716 634.257 299.041C634.553 301.588 635.086 304.076 635.56 306.564C635.619 307.334 635.856 308.045 635.915 308.756C635.915 309.23 635.738 309.645 635.501 310C638.048 322.322 640.594 334.644 643.141 346.906C644.03 351.112 644.74 355.437 645.806 359.584C648.353 369.536 644.918 377.355 637.218 383.576C632.954 387.011 628.63 390.447 624.248 393.824C622.826 394.89 622.293 396.134 622.471 397.852C623.241 405.968 624.07 414.084 624.722 422.2C625.728 435.055 621.879 446.31 613.468 455.966C603.814 466.985 591.495 472.079 576.925 472.198C557.44 472.316 537.895 472.553 518.409 472.79C517.225 473.027 516.04 472.909 514.856 472.85Z" fill="#A3A9D9"/>
<path d="M497.68 499.744C497.68 502.232 497.858 504.661 497.68 507.09C497.502 509.46 498.213 510.348 500.76 510.289C508.341 510.111 515.922 510.23 523.444 510.23C523.325 510.644 523.148 511.118 523.029 511.533C515.567 511.533 508.045 511.592 500.582 511.474C498.509 511.414 497.68 511.829 497.68 514.199C497.739 540.442 497.739 566.685 497.68 592.928C497.68 595.061 498.095 596.068 500.405 595.771C501.767 595.594 503.129 595.653 504.55 595.653C504.373 596.245 504.254 596.838 504.077 597.43C503.425 598.082 502.537 598.378 501.648 598.319C498.924 598.141 498.391 599.681 498.45 601.992C498.509 605.724 498.509 609.397 498.45 613.129C498.45 614.491 498.568 615.913 497.621 617.038C496.377 618.046 494.896 617.749 493.475 617.749C491.284 617.809 490.75 618.816 491.757 620.711C493.593 622.074 496.377 621.778 497.68 624.029C497.739 624.562 497.443 624.858 497.029 625.036C496.436 625.213 495.844 625.154 495.311 624.858C493.475 623.91 491.698 623.792 489.803 624.621C488.559 621.718 488.618 618.756 489.566 615.794C496.377 616.091 496.436 616.091 496.377 609.219C496.377 572.727 496.377 536.177 496.377 499.685C496.851 499.685 497.265 499.685 497.68 499.744Z" fill="#5982AF"/>
<path d="M526.05 510.23C547.786 510.23 569.463 510.23 591.199 510.17C592.383 510.17 594.16 510.94 594.16 508.571C594.989 509.4 594.575 510.467 594.693 511.414C571.654 511.414 548.616 511.474 525.577 511.474C525.695 511.118 525.873 510.703 526.05 510.23Z" fill="#5881AE"/>
<path d="M659.783 317.998C660.967 315.391 660.138 312.607 660.256 309.882C660.316 308.519 659.013 308.875 658.243 308.875C650.662 308.875 643.081 308.875 635.5 308.934C635.322 308.341 635.144 307.749 634.967 307.097C642.607 307.69 650.247 307.334 657.828 307.275C660.671 307.275 661.974 307.808 661.619 310.948C661.323 313.732 661.559 316.635 661.559 319.479C660.967 319.005 660.375 318.471 659.783 317.998Z" fill="#5881AD"/>
<path d="M497.739 626.991C497.739 626.102 497.443 625.332 496.792 624.74C497.028 624.562 497.265 624.325 497.561 624.147C497.917 623.91 498.272 623.732 498.628 623.496C498.272 624.621 498.509 625.924 497.739 626.991Z" fill="#678BB2"/>
<path d="M68.9985 644.881C68.1101 645.71 67.1625 646.125 65.9188 645.829C62.8984 645.473 59.8189 645.473 56.7985 645.829C55.7324 646.066 54.844 645.888 54.311 644.822C59.1674 644.881 64.0829 644.881 68.9985 644.881Z" fill="#929BBA"/>
<path d="M441.889 507.445C442.303 489.377 442.481 471.369 442.481 453.3C442.481 437.069 453.675 425.813 469.903 425.636C478.076 425.517 486.249 425.873 494.423 425.28C495.252 425.221 496.14 425.339 496.259 426.347C496.436 427.768 495.252 427.531 494.423 427.531C486.249 427.709 478.076 428.242 469.903 427.946C456.222 427.472 444.613 438.965 444.672 453.123C444.732 470.598 444.317 488.015 444.317 505.49C444.317 506.616 444.732 507.919 443.251 508.571C442.777 508.097 442.362 507.801 441.889 507.445Z" fill="#FEFDFD"/>
<path d="M443.015 542.811C444.199 543.582 443.37 544.885 443.844 545.833C444.732 546.899 444.614 548.261 444.614 549.505C444.495 560.346 444.14 571.187 443.548 582.028C443.311 586.293 443.37 590.499 443.488 594.764C443.607 598.615 442.245 601.695 439.165 604.006C437.921 604.954 436.795 606.079 435.492 607.027C434.545 607.738 433.42 608.449 432.59 606.849C432.65 606.316 432.709 605.783 432.768 605.25C434.782 603.532 436.736 601.695 438.809 600.037C440.053 599.03 440.053 597.726 440.112 596.305C440.586 579.658 441.119 563.012 441.711 546.366C441.711 545.062 441.119 543.345 443.015 542.811Z" fill="#FDFCFC"/>
<path d="M171.224 230.501C170.987 231.626 170.454 232.456 169.269 232.397C168.203 232.337 167.433 231.626 167.492 230.501C167.551 229.435 168.203 228.664 169.388 228.724C170.513 228.783 171.106 229.494 171.224 230.501Z" fill="#1B100F"/>
<path d="M190.295 229.138C191.124 230.205 191.183 231.33 190.354 232.397C188.933 232.633 187.393 232.811 187.393 230.738C187.393 228.842 188.814 228.783 190.295 229.138Z" fill="#0D0A0A"/>
<path d="M432.59 606.79C433.36 607.205 434.011 607.323 434.722 606.671C436.913 604.657 439.045 602.702 441.296 600.748C442.421 599.74 442.244 598.437 442.244 597.193C442.777 580.073 443.31 563.012 443.843 545.892C444.198 544.766 444.672 544.292 446.153 544.47C456.636 545.892 467.178 547.136 477.661 548.439C480.208 548.735 482.696 548.972 485.242 549.268C486.427 549.979 486.012 551.164 486.072 552.171C487.138 573.379 487.848 594.587 489.625 615.735C489.862 618.579 490.099 621.363 490.336 624.206C490.75 626.043 490.158 628.057 491.047 629.834C491.402 630.19 491.698 630.604 491.817 631.137C492.053 632.796 491.935 634.455 491.994 636.114C491.817 637.18 492.468 638.365 491.757 639.372C491.698 643.518 491.698 643.518 487.493 643.518C486.308 643.518 485.183 643.578 483.999 643.637C462.914 643.578 441.829 643.578 420.685 643.518C414.348 643.518 408.07 643.459 401.732 643.578C399.837 643.578 399.008 643.045 399.304 641.09C400.133 634.277 402.502 628.353 408.307 624.206C416.421 618.401 424.476 612.595 432.59 606.79Z" fill="#C25730"/>
<path d="M56.7974 645.829C59.818 645.059 62.8979 645.059 65.9186 645.829C62.8979 645.888 59.818 645.829 56.7974 645.829Z" fill="#E3EAF1"/>
<path d="M387.045 64.0971C385.15 66.1705 229.443 221.852 227.903 223.333C280.97 170.254 333.978 117.176 387.045 64.0971Z" fill="#5E86B1"/>
<path d="M427.32 62.9716C386.098 104.202 344.935 145.433 303.713 186.664C304.128 187.078 304.602 187.552 305.016 187.967C346.238 146.736 387.401 105.506 428.623 64.2749C428.149 63.8602 427.734 63.3863 427.32 62.9716Z" fill="#5882AF"/>
<path d="M365.724 217.053C364.895 217.053 364.006 217.053 363.177 217.053C373.542 206.686 383.906 196.32 394.33 185.953C394.567 186.19 394.803 186.367 395.04 186.604C394.981 187.73 393.974 188.322 393.264 188.974C384.794 197.504 376.266 205.976 367.797 214.506C366.968 215.335 366.02 215.928 365.724 217.053Z" fill="#638AB4"/>
<path d="M394.093 288.852C394.093 273.686 394.152 258.462 394.034 243.297C394.034 240.631 394.685 239.683 397.469 239.742C422.403 239.861 447.338 239.861 472.272 239.742C474.937 239.742 475.589 240.572 475.589 243.119C475.529 273.805 475.529 304.491 475.589 335.177C475.589 337.724 474.996 338.613 472.272 338.613C447.219 338.494 422.166 338.554 397.173 338.613C394.685 338.613 393.975 337.784 393.975 335.355C394.152 319.834 394.093 304.313 394.093 288.852Z" fill="#DADADA"/>
<path d="M303.358 274.753C302.41 275.167 301.463 275.523 300.515 275.938C300.515 264.801 300.515 253.663 300.397 242.467C300.397 240.631 300.989 240.098 302.766 240.098C328.174 240.157 353.641 240.157 379.049 240.098C381.063 240.098 381.537 240.809 381.477 242.704C381.418 273.805 381.418 304.846 381.477 335.947C381.477 338.139 380.708 338.554 378.753 338.554C353.523 338.494 328.292 338.494 303.062 338.554C300.693 338.554 300.337 337.665 300.337 335.592C300.456 327.713 300.337 319.834 300.337 311.896C300.93 311.067 301.818 310.652 302.706 310.178C303.95 311.363 303.654 312.903 303.713 314.325C303.772 320.071 303.713 325.758 303.773 331.504C303.773 334.881 304.069 335.177 307.504 335.177C329.773 335.177 352.042 335.177 374.311 335.177C377.924 335.177 378.161 334.881 378.22 331.267C378.22 322.204 378.279 313.14 378.22 304.076C378.22 300.64 377.924 300.403 374.489 300.344C370.521 300.285 366.612 300.403 362.643 300.285C361.281 300.285 359.801 300.522 358.912 299.1C359.564 297.797 360.867 297.975 361.992 297.975C366.612 297.915 371.231 297.975 375.792 297.975C371.824 297.915 367.796 298.034 363.828 297.915C362.703 297.856 360.985 298.449 360.926 296.257C363.473 295.013 366.138 295.724 368.803 295.546C371.054 295.427 373.363 295.546 375.614 295.487C377.332 295.487 378.161 294.657 378.161 292.999C378.161 292.288 378.22 291.636 378.22 290.925C378.22 276.352 378.22 261.72 378.22 247.147C378.22 243.119 378.102 243 374.074 242.941C351.983 242.941 329.891 242.941 307.8 242.941C303.95 242.941 303.773 243.178 303.773 246.91C303.713 254.789 303.773 262.668 303.773 270.606C303.832 272.028 303.832 273.39 303.358 274.753Z" fill="#DADADA"/>
<path d="M508.874 225.939C509.94 224.992 509.407 223.688 509.407 222.622C509.466 203.784 509.466 184.886 509.348 166.048C509.348 163.146 509.881 162.138 513.02 162.198C554.656 162.316 596.292 162.316 637.869 162.198C640.593 162.198 641.363 162.909 641.363 165.693C641.245 196.083 641.245 226.473 641.363 256.922C641.363 259.706 640.534 260.417 637.869 260.358C628.215 260.239 618.561 260.358 608.907 260.417C607.901 259.765 607.604 259.054 608.671 258.166C610.092 257.514 611.573 257.692 613.053 257.692C620.338 257.692 627.623 257.692 634.908 257.692C638.343 257.692 638.639 257.396 638.639 253.96C638.698 225.465 638.698 196.971 638.639 168.418C638.639 165.1 638.343 164.863 634.434 164.863C609.381 164.863 584.388 164.863 559.335 164.863C544.824 164.863 530.373 164.863 515.863 164.863C511.717 164.863 511.539 165.041 511.539 169.188C511.539 197.208 511.539 225.229 511.539 253.249C511.539 257.573 511.658 257.692 516.04 257.751C525.102 257.751 534.164 257.751 543.225 257.751C544.706 257.751 546.187 257.633 547.667 258.047C548.852 258.58 549.859 259.173 548.97 260.654C547.549 261.602 545.95 261.365 544.351 261.365C534.46 261.365 524.628 261.365 514.737 261.365C511.065 261.365 510.888 261.602 510.888 265.215C510.888 270.073 510.829 274.871 510.888 279.729C510.947 282.809 511.243 283.105 514.323 283.105C523.385 283.165 532.446 283.105 541.567 283.165C543.107 283.165 544.765 282.869 546.068 284.113C545.713 284.705 545.121 284.764 544.528 284.764C543.107 285.297 541.685 285.475 540.205 285.475C531.38 285.475 522.496 285.475 513.671 285.475C512.428 285.475 511.065 285.653 509.999 284.705C509.289 284.113 509.407 283.283 509.407 282.513C509.407 275.582 508.933 268.651 509.525 261.779C510.355 251.946 509.644 242.053 509.999 232.219C510.118 230.027 509.762 227.954 508.874 225.939Z" fill="#5F87B2"/>
<path d="M496.317 398.267C496.377 386.656 496.377 374.986 496.436 363.375C496.91 362.723 497.561 362.901 498.213 362.901C497.561 363.79 497.739 364.797 497.739 365.744C497.739 373.327 497.857 380.91 497.68 388.492C497.62 390.98 498.509 391.395 500.7 391.336C514.441 391.277 528.241 391.277 541.982 391.336C542.159 391.928 542.337 392.461 542.515 393.054C541.508 393.587 540.442 393.469 539.317 393.469C528.004 393.469 516.692 393.587 505.438 393.409C501.707 393.35 498.45 393.35 497.502 397.912C497.265 398.089 496.969 398.326 496.732 398.504C496.613 398.385 496.436 398.326 496.317 398.267Z" fill="#5A83AF"/>
<path d="M542.456 286.304C541.686 285.357 540.619 285.771 539.731 285.771C529.84 285.712 519.89 285.771 509.999 285.771C509.999 285.416 509.999 285.06 509.999 284.646C521.489 284.646 533.038 284.705 544.529 284.705C543.877 285.297 543.166 285.83 542.456 286.304Z" fill="#5781AE"/>
<path d="M481.038 363.493C481.038 373.979 481.037 384.405 481.097 394.89C480.682 394.831 480.267 394.831 479.793 394.772C479.793 384.346 479.793 373.86 479.853 363.434C480.267 362.783 480.682 362.901 481.038 363.493Z" fill="#5882AE"/>
<path d="M533.571 309.585C532.742 308.578 531.557 308.934 530.551 308.934C523.68 308.934 516.81 308.934 509.999 308.934C510.295 307.275 511.598 307.808 512.605 307.808C519.475 307.749 526.345 307.808 533.216 307.808C533.334 308.341 533.453 308.934 533.571 309.585Z" fill="#5881AE"/>
<path d="M535.467 328.483C535.467 328.72 535.526 328.898 535.526 329.135C527.293 329.135 519.001 329.135 510.769 329.135C510.769 328.898 510.769 328.72 510.769 328.483C519.001 328.483 527.234 328.483 535.467 328.483Z" fill="#5881AE"/>
<path d="M303.358 274.753C302.588 274.042 302.766 273.094 302.766 272.265C302.766 263.083 302.825 253.96 302.707 244.778C302.707 242.763 303.181 242.053 305.313 242.053C329.062 242.112 352.812 242.112 376.503 242.053C378.576 242.053 379.168 242.645 379.168 244.718C379.109 261.068 379.109 277.419 379.168 293.828C379.168 295.842 378.694 296.553 376.562 296.553C371.35 296.434 366.138 296.612 360.926 296.671C359.268 294.124 359.505 291.221 359.386 288.437C359.031 281.151 358.261 273.923 358.024 266.637C358.024 265.689 357.906 264.682 357.313 263.734C356.425 264.682 356.425 265.926 356.247 267.052C354.115 278.781 351.924 290.51 349.673 302.24C349.436 303.602 349.614 305.853 347.896 305.794C346.593 305.794 346.712 303.543 346.534 302.24C345.468 293.709 344.52 285.179 343.395 276.708C343.277 275.878 343.395 274.93 342.625 274.101C340.789 275.938 340.197 278.248 339.072 280.262C338.006 282.158 337.176 284.172 336.11 286.067C335.696 286.778 335.281 287.845 334.215 287.608C333.267 287.371 332.971 286.364 332.853 285.475C332.438 282.158 331.905 278.84 331.491 275.523C331.195 272.976 331.076 270.428 330.247 267.94C329.062 268.236 329.062 269.243 328.826 270.014C327.759 273.094 326.753 276.174 325.45 279.136C324.976 280.203 324.739 281.447 323.436 281.861C318.106 278.011 318.106 278.011 312.242 281.565C308.57 283.816 304.839 286.067 301.167 288.319C300.338 288.792 299.39 289.681 298.62 288.556C297.791 287.252 299.213 286.897 299.982 286.482C305.076 283.342 310.169 280.203 315.559 276.945C311.65 273.864 307.623 273.686 303.358 274.753Z" fill="#2C2C2C"/>
<path d="M359.149 298.922C359.919 299.929 360.985 299.456 361.873 299.456C366.789 299.456 371.705 299.515 376.621 299.396C378.457 299.337 379.227 299.752 379.227 301.825C379.168 312.488 379.168 323.092 379.227 333.755C379.227 335.769 378.457 336.184 376.621 336.184C352.871 336.125 329.18 336.125 305.43 336.184C303.061 336.184 302.706 335.355 302.706 333.222C302.825 325.521 302.765 317.879 302.706 310.178C308.688 306.09 314.611 301.884 320.711 297.975C324.975 295.19 325.686 291.221 325.39 286.719C325.331 285.653 324.561 284.705 325.094 283.579C325.094 279.788 327.285 276.767 328.588 273.449C328.766 273.035 329.299 272.679 329.832 272.857C330.543 273.153 330.661 273.923 330.78 274.575C331.549 278.959 331.964 283.342 332.616 287.726C332.793 288.792 332.734 289.918 333.504 290.925C334.688 290.57 334.925 289.444 335.399 288.555C337.057 285.416 338.538 282.158 340.256 279.077C340.67 278.307 341.203 277.359 342.21 277.537C343.276 277.774 343.158 278.899 343.276 279.729C344.579 289.385 345.586 299.1 346.83 308.756C347.008 310.296 347.185 311.837 347.718 313.377C348.784 312.844 348.607 311.955 348.725 311.244C350.739 300.166 352.871 289.148 354.826 278.07C355.003 277.004 355.181 275.937 355.832 274.99C356.365 274.516 356.898 273.983 357.609 274.753C358.734 277.241 358.32 279.966 358.438 282.572C358.734 288.082 359.919 293.472 359.149 298.922Z" fill="#2C2C2C"/>
<path d="M356.188 275.227C353.878 287.904 351.509 300.581 349.14 313.258C348.962 314.147 349.199 315.509 347.718 315.391C346.356 315.272 346.712 313.91 346.593 313.021C345.172 301.41 343.691 289.799 342.21 277.715C340.315 280.084 339.486 282.691 338.183 285.06C337.413 286.423 336.88 287.904 335.992 289.266C335.162 290.57 335.222 293.235 333.208 292.821C331.49 292.465 332.083 289.918 331.846 288.378C331.076 283.342 330.483 278.307 329.714 272.383C327.937 276.589 326.515 280.084 325.094 283.579C324.798 283.579 324.502 283.52 324.206 283.52C323.791 283.402 323.554 283.165 323.613 282.75C323.554 282.395 323.495 282.098 323.436 281.743C325.508 277.063 327.345 272.324 328.766 267.407C329.003 266.518 329.062 265.511 330.306 265.63C331.431 265.748 331.194 266.755 331.313 267.466C332.083 273.035 332.853 278.603 333.563 284.172C333.682 285.238 333.623 286.364 334.392 287.548C336.584 283.105 338.716 278.84 340.907 274.575C341.381 273.686 341.559 272.146 342.921 272.383C344.343 272.561 344.046 274.042 344.165 275.049C345.409 285.238 346.652 295.368 348.311 305.616C349.318 300.226 350.324 294.835 351.331 289.503C352.871 281.091 354.47 272.679 356.01 264.267C356.188 263.26 355.892 261.72 357.372 261.72C359.031 261.72 358.498 263.32 358.557 264.267C359.386 275.049 360.156 285.89 360.926 296.671C364.776 297.738 368.685 296.731 372.534 297.027C374.074 297.145 375.673 297.027 377.273 297.086C378.042 297.086 379.227 296.671 379.168 298.152C379.109 299.456 378.042 298.982 377.391 298.982C371.291 299.041 365.19 299.041 359.09 299.041C357.965 297.027 358.498 294.835 358.32 292.702C357.846 286.719 357.491 280.736 357.136 274.812C356.78 274.279 356.662 273.746 357.136 273.153C356.602 273.686 356.602 274.575 356.188 275.227Z" fill="#FDFDFD"/>
<path d="M323.673 282.75C323.85 282.987 324.087 283.283 324.265 283.52C324.206 284.586 323.376 284.942 322.666 285.416C317.75 288.437 312.775 291.458 307.859 294.479C307.148 294.894 306.319 295.783 305.549 294.716C304.661 293.472 305.904 292.998 306.674 292.525C311.768 289.385 316.921 286.304 322.014 283.224C322.488 282.928 323.08 282.869 323.673 282.75Z" fill="#060403"/>
<path d="M277.299 299.219C278.187 299.752 278.72 300.048 279.135 300.403C281.741 302.655 284.346 304.906 286.893 307.157C287.485 307.69 288.551 308.282 287.782 309.289C287.071 310.178 286.182 309.586 285.472 308.934C282.807 306.624 280.141 304.313 277.476 301.944C276.943 301.47 276.41 301.055 276.706 300.226C276.884 299.929 277.121 299.574 277.299 299.219Z" fill="#090605"/>
<path d="M608.197 258.699C608.434 259.232 608.671 259.824 608.908 260.358C612.757 270.547 607.96 279.314 597.122 281.802C594.338 282.217 591.554 282.276 588.712 282.217C587.764 282.217 586.698 282.454 586.224 281.21C585.336 280.084 585.573 278.781 585.75 277.537C586.342 273.212 586.876 268.947 587.586 264.623C588.06 261.839 587.468 260.358 584.743 259.113C579.531 256.744 575.504 253.13 574.083 247.206C573.49 244.778 573.905 242.467 574.379 240.157C576.037 231.567 572.187 225.228 566.146 219.838C564.31 218.179 562.356 216.698 560.283 215.276C559.572 214.802 558.743 214.328 558.921 213.203C561.29 211.011 564.429 211.189 567.272 211.011C575.03 210.537 582.73 210.774 590.37 212.966C597.24 214.98 601.623 219.127 603.4 226.058C605.058 232.456 605.117 239.091 606.006 245.607C606.539 249.102 606.894 252.656 608.019 256.033C608.315 256.922 608.434 257.81 608.197 258.699Z" fill="black"/>
<path d="M559.157 213.499C562.888 216.342 566.856 218.949 569.936 222.563C574.26 227.598 576.274 233.167 575.207 239.92C573.668 249.635 576.866 255.026 586.105 258.817C588.533 259.824 588.948 261.068 588.593 263.379C587.704 269.303 586.934 275.227 586.164 281.21C585.691 281.861 585.039 282.158 584.151 282.158C578.998 282.039 573.845 281.98 568.693 281.861C568.989 279.136 568.811 276.352 568.929 273.627C569.048 271.376 568.337 270.191 565.909 269.836C563.007 269.362 560.105 268.651 557.38 267.466C553.886 265.926 550.51 264.09 548.911 260.239C548.911 259.528 548.437 259.054 547.904 258.639C547.134 258.225 546.66 257.573 546.423 256.803C545.002 252.005 544.706 247.147 545.535 242.171C545.89 240.098 545.713 237.846 549.622 237.787C546.305 235.655 546.305 233.403 546.838 230.856C547.193 229.02 547.549 227.183 547.549 225.288C548.674 220.193 551.517 216.402 556.196 214.032C557.203 213.499 558.15 213.084 559.157 213.499Z" fill="#FDD1C1"/>
<path d="M542.633 393.469C547.075 390.447 551.991 389.677 557.321 390.329C561.112 390.803 564.962 391.04 568.811 391.277C569.937 391.336 570.825 391.395 571.536 392.58C576.215 400.34 580.894 408.101 585.573 415.861C585.632 415.98 585.573 416.217 585.573 416.572C576.866 414.854 568.219 413.077 559.572 411.418C551.339 409.819 543.107 408.338 534.933 406.797C534.223 406.679 533.275 406.857 533.038 405.79C534.578 400.992 537.421 397.082 541.33 393.883C541.685 393.469 542.159 393.35 542.633 393.469Z" fill="#FDD1C1"/>
<path d="M602.866 322.677C604.169 322.855 604.11 324.04 604.347 324.928C606.657 333.577 608.907 342.226 611.217 350.875C612.105 354.193 612.875 357.569 613.882 360.887C614.356 362.368 614.001 363.256 612.875 364.204C607.071 369.121 601.386 374.097 595.581 379.014C594.871 379.607 594.042 380.791 593.094 379.844C591.909 378.659 593.39 377.948 594.16 377.296C599.135 372.972 604.051 368.529 609.203 364.382C611.276 362.723 611.75 361.302 611.039 358.754C607.96 347.676 605.176 336.48 602.215 325.343C601.919 324.336 601.267 323.27 602.866 322.677Z" fill="#FCFCFD"/>
<path d="M497.147 616.979C496.377 617.098 495.666 617.275 494.896 617.335C490.632 617.453 490.632 617.453 491.165 621.659C489.507 618.105 490.099 616.92 493.653 616.92C494.778 616.92 495.962 616.979 497.147 616.979Z" fill="#678BB2"/>
<path d="M491.047 631.197C491.047 630.782 490.987 630.308 490.987 629.893C494.422 630.486 495.251 632.855 495.192 635.877C494.304 637.298 493.534 638.957 491.698 639.431C491.58 638.602 491.402 637.713 491.283 636.884C493.889 634.87 492.29 633.033 491.047 631.197Z" fill="#6A8FB7"/>
<path d="M660.968 260.239C657.414 260.239 653.861 260.18 650.307 260.239C648.708 260.239 647.998 259.706 647.998 257.988C648.116 250.05 647.228 251.59 653.979 251.472C659.724 251.412 665.41 251.531 671.154 251.412C673.168 251.353 673.938 252.005 673.879 254.137C673.701 261.305 674.648 260.121 668.015 260.239C665.646 260.298 663.337 260.298 660.968 260.239Z" fill="#6A8FB7"/>
<path d="M660.909 176.889C664.344 176.889 667.779 176.948 671.214 176.83C673.05 176.771 673.879 177.304 673.82 179.318C673.701 186.19 674.412 185.005 668.253 185.064C662.448 185.123 656.644 185.005 650.84 185.123C648.708 185.183 647.82 184.59 647.879 182.339C648.057 175.823 647.405 177.008 653.15 176.948C655.815 176.83 658.362 176.889 660.909 176.889Z" fill="#678DB5"/>
<path d="M660.909 248.391C657.474 248.391 654.038 248.332 650.603 248.45C648.708 248.51 647.998 247.858 647.998 245.903C647.998 243.948 648.827 243.652 650.544 243.652C657.533 243.711 664.521 243.711 671.51 243.652C673.227 243.652 673.997 244.067 673.938 245.962C673.879 247.68 673.464 248.51 671.569 248.45C668.016 248.332 664.462 248.391 660.909 248.391Z" fill="#648BB4"/>
<path d="M665.943 212.373C663.811 212.788 663.337 211.84 663.278 210.004C663.278 207.812 664.403 207.753 666.061 207.693C667.897 207.634 668.667 208.108 668.667 210.122C668.786 212.492 667.66 212.729 665.943 212.373Z" fill="#698FB7"/>
<path d="M655.697 212.433C653.92 212.788 653.15 212.196 653.15 210.122C653.15 208.108 653.979 207.694 655.815 207.634C657.77 207.575 658.599 208.108 658.599 210.241C658.599 212.551 657.355 212.61 655.697 212.433Z" fill="#678DB6"/>
<path d="M655.696 223.037C653.919 223.392 653.208 222.681 653.149 220.726C653.09 218.475 654.097 218.297 655.933 218.238C658.066 218.179 658.539 219.008 658.599 220.963C658.599 223.274 657.296 223.155 655.696 223.037Z" fill="#6B90B7"/>
<path d="M665.943 223.037C664.048 223.392 663.337 222.622 663.278 220.667C663.159 218.238 664.521 218.357 666.239 218.238C668.252 218.12 668.667 218.949 668.726 220.845C668.785 223.037 667.66 223.274 665.943 223.037Z" fill="#698FB7"/>
<path d="M666.239 201.829C664.344 202.066 663.278 201.829 663.337 199.637C663.396 197.741 663.929 197.031 665.883 197.031C667.66 197.09 668.844 197.208 668.785 199.578C668.667 201.651 667.897 202.244 666.239 201.829Z" fill="#668CB5"/>
<path d="M655.756 197.149C657.711 196.853 658.599 197.564 658.599 199.696C658.599 201.592 657.77 202.007 656.111 201.947C654.453 201.888 653.032 202.066 653.15 199.578C653.209 197.623 653.861 196.853 655.756 197.149Z" fill="#658CB5"/>
<path d="M648.411 634.692C648.352 637.417 645.924 639.609 643.14 639.49C640.416 639.372 638.343 637.18 638.402 634.514C638.461 631.73 640.83 629.538 643.614 629.657C646.279 629.834 648.471 632.145 648.411 634.692Z" fill="#A8E6E2"/>
<path d="M460.96 299.041C464.218 299.93 467.594 299.337 470.91 299.396C472.687 299.456 473.339 299.87 473.339 301.766C473.28 312.548 473.28 323.27 473.339 334.051C473.339 335.769 472.747 336.243 471.088 336.243C446.924 336.184 422.759 336.184 398.653 336.243C396.344 336.243 396.462 334.999 396.462 333.4C396.462 314.976 396.462 296.494 396.462 278.07C396.462 266.992 396.521 255.974 396.403 244.896C396.403 242.763 396.877 241.993 399.187 241.993C422.937 242.053 446.687 242.112 470.437 241.993C472.924 241.993 473.339 242.882 473.339 245.074C473.28 261.246 473.28 277.419 473.339 293.591C473.339 295.724 472.865 296.612 470.555 296.434C467.594 296.257 464.632 296.494 461.671 296.494C458.591 294.539 457.288 291.458 456.281 288.141C458.117 283.106 457.999 278.307 454.682 273.805C452.669 271.08 450.24 268.71 446.687 268.947C442.896 269.243 439.757 271.021 438.276 274.93C437.98 275.701 437.803 276.826 436.736 276.767C435.848 276.708 435.611 275.76 435.315 275.049C434.841 273.923 434.249 272.976 433.42 272.087C429.452 267.94 424.891 267.762 420.686 271.672C415.474 276.53 414.645 283.639 418.554 290.333C419.442 291.873 420.508 293.295 421.456 294.776C422.285 296.079 421.752 296.79 420.39 297.027C418.731 297.323 417.014 296.79 415.474 297.382C417.251 298.508 419.205 297.738 421.041 297.915C422.226 298.034 423.41 297.856 424.536 298.212C427.852 300.7 431.051 303.247 434.486 305.557C436.085 306.624 437.447 306.683 439.106 305.676C443.903 302.536 448.523 299.278 452.076 294.657C453.083 293.413 453.735 291.695 455.63 291.34C458.354 293.235 459.48 296.257 460.96 299.041Z" fill="#2C2C2C"/>
<path d="M460.96 299.041C458.413 297.086 457.702 293.769 455.57 291.518C454.445 291.103 454.03 290.096 453.379 289.207C452.905 288.496 452.668 287.252 451.721 287.312C450.595 287.371 450.536 288.733 450.181 289.622C449.233 291.873 448.345 294.183 447.397 296.434C446.864 297.678 446.39 299.219 444.732 299.219C442.955 299.278 442.659 297.619 442.185 296.375C441.711 295.072 441.238 293.769 440.586 292.11C439.935 293.887 439.461 295.427 439.046 296.908C438.631 298.33 437.802 299.456 436.203 299.456C432.413 299.456 428.563 300.048 424.772 299.041C421.633 298.982 418.494 298.982 415.415 298.922C414.704 298.922 413.993 298.922 413.756 298.034C413.579 297.264 414.171 297.027 414.704 296.79C420.982 297.086 427.082 294.953 433.36 295.605C434.841 295.783 435.67 294.716 436.144 293.413C436.855 291.34 437.447 289.266 438.098 287.193C438.454 286.067 438.987 284.883 440.468 284.883C441.77 284.823 442.244 285.949 442.718 286.956C443.488 288.556 443.903 290.273 444.969 292.051C446.39 289.622 446.923 287.015 447.989 284.705C448.463 283.639 448.819 282.454 449.529 281.506C450.477 280.203 451.721 280.025 452.727 281.269C454.445 283.402 456.281 285.534 456.755 288.378C458.117 291.281 459.894 293.946 461.789 296.553C464.987 297.382 468.245 296.671 471.443 296.908C472.154 296.968 473.22 296.612 473.279 297.797C473.398 299.337 472.154 298.863 471.384 298.863C467.83 298.922 464.395 298.982 460.96 299.041Z" fill="#FDFCFC"/>
<path d="M356.188 275.227C355.951 274.22 356.188 273.39 356.958 272.561C357.55 273.272 357.372 273.923 357.195 274.634C356.839 274.871 356.543 275.049 356.188 275.227Z" fill="#8C8C8C"/>
<path d="M591.673 256.862C591.673 251.057 591.732 245.666 591.673 240.275C591.673 238.735 592.028 238.32 593.509 238.972C594.101 239.268 594.812 239.327 595.463 239.564C599.313 240.808 602.096 244.007 602.274 247.266C602.451 250.405 599.786 253.9 595.996 255.381C594.634 255.855 593.331 256.27 591.673 256.862Z" fill="#FDD1C1"/>
<path d="M547.311 256.803C542.04 253.426 539.612 248.51 540.086 242.349C540.619 235.418 544.113 229.849 548.496 224.695C548.14 227.598 547.785 230.501 547.43 233.404C547.311 234.47 547.015 235.536 548.792 235.477C549.858 235.418 550.332 236.306 550.213 237.313C550.095 238.32 549.384 239.209 548.496 238.913C546.541 238.32 546.778 239.564 546.66 240.69C545.831 246.14 545.89 251.472 547.311 256.803Z" fill="#010101"/>
<path d="M568.159 239.624C567.034 239.505 566.324 238.913 566.324 237.787C566.324 236.662 567.034 235.951 568.219 236.01C569.225 236.069 569.877 236.662 569.936 237.669C569.995 238.794 569.344 239.505 568.159 239.624Z" fill="#0C0707"/>
<path d="M664.995 210.122C665.054 209.471 665.528 209.293 666.18 209.293C666.831 209.293 667.305 209.53 667.305 210.241C667.305 211.011 666.772 211.13 666.121 211.13C665.469 211.13 664.995 210.952 664.995 210.122Z" fill="#A8E6E2"/>
<path d="M656.881 210.063C656.94 210.774 656.526 211.13 655.874 211.13C655.281 211.13 654.689 211.13 654.63 210.359C654.57 209.649 654.985 209.352 655.637 209.293C656.17 209.234 656.762 209.352 656.881 210.063Z" fill="#A8E6E2"/>
<path d="M656.881 220.608C656.881 221.319 656.526 221.674 655.815 221.674C655.163 221.674 654.63 221.437 654.63 220.667C654.63 220.075 655.045 219.838 655.578 219.778C656.23 219.66 656.763 219.778 656.881 220.608Z" fill="#A8E6E2"/>
<path d="M667.246 220.549C667.246 221.378 666.831 221.615 666.18 221.674C665.528 221.733 665.054 221.496 664.995 220.786C664.936 220.075 665.35 219.719 666.061 219.778C666.654 219.719 667.127 219.956 667.246 220.549Z" fill="#A8E6E2"/>
<path d="M666.18 200.585C665.469 200.585 664.759 200.585 664.759 199.637C664.759 198.926 665.292 198.689 665.884 198.689C666.594 198.689 667.305 198.689 667.305 199.637C667.364 200.407 666.831 200.585 666.18 200.585Z" fill="#A8E6E2"/>
<path d="M657.118 199.637C657.118 200.348 656.644 200.585 655.993 200.585C655.341 200.585 654.571 200.644 654.571 199.696C654.571 198.985 655.045 198.748 655.697 198.748C656.348 198.689 657.059 198.689 657.118 199.637Z" fill="#A8E6E2"/>
<path d="M456.696 288.378C455.333 286.304 453.971 284.29 452.668 282.217C452.254 281.565 451.898 280.736 450.891 280.914C450.121 281.091 449.944 281.802 449.707 282.454C448.226 286.304 446.686 290.096 444.909 294.657C443.725 291.577 442.836 289.148 441.83 286.778C441.534 286.127 441.415 285.12 440.349 285.179C439.342 285.238 439.224 286.067 438.987 286.838C438.217 289.503 437.388 292.11 436.558 294.776C436.262 295.842 435.907 296.731 434.426 296.731C427.852 296.671 421.219 296.79 414.645 296.79C416.895 296.671 419.087 296.553 421.633 296.434C420.449 294.657 419.264 293.058 418.198 291.34C413.815 283.994 414.289 277.241 419.442 271.85C424.832 266.104 432.709 267.525 435.907 274.753C436.203 275.345 436.44 275.997 436.736 276.648C437.388 275.345 437.802 274.042 438.513 272.916C441.77 267.822 448.108 266.815 452.727 270.606C458.235 274.99 459.775 281.98 456.696 288.378Z" fill="#FD9993"/>
<path d="M424.773 299.1C428.03 299.041 431.288 298.863 434.486 299.041C436.855 299.159 438.158 298.567 438.572 296.079C438.868 294.183 439.697 292.347 440.467 289.918C441.474 292.465 442.244 294.598 443.132 296.731C443.488 297.619 443.547 298.863 444.791 298.922C446.094 298.982 446.153 297.678 446.508 296.849C448.107 292.998 449.588 289.089 451.305 284.823C453.141 287.193 454.503 289.326 455.569 291.577C451.009 297.975 445.324 303.069 438.513 306.979C437.328 307.631 436.499 307.808 435.315 307.097C431.584 304.609 427.793 302.358 424.773 299.1Z" fill="#FD9993"/>
</svg>
