<svg width="17" height="17" viewBox="0 0 17 17" fill="none" xmlns="http://www.w3.org/2000/svg">
<path d="M14.2109 7.43768H9.5625C9.13981 7.43768 8.73443 7.26977 8.43555 6.97088C8.13666 6.672 7.96875 6.26662 7.96875 5.84393V1.1955C7.96875 1.16027 7.95476 1.12649 7.92985 1.10158C7.90494 1.07668 7.87116 1.06268 7.83594 1.06268H4.78125C4.21766 1.06268 3.67716 1.28657 3.27865 1.68508C2.88013 2.0836 2.65625 2.6241 2.65625 3.18768V13.8127C2.65625 14.3763 2.88013 14.9168 3.27865 15.3153C3.67716 15.7138 4.21766 15.9377 4.78125 15.9377H12.2187C12.7823 15.9377 13.3228 15.7138 13.7214 15.3153C14.1199 14.9168 14.3437 14.3763 14.3437 13.8127V7.57049C14.3437 7.53527 14.3298 7.50149 14.3048 7.47658C14.2799 7.45167 14.2462 7.43768 14.2109 7.43768ZM11.1562 12.7502H5.84375C5.70285 12.7502 5.56773 12.6942 5.4681 12.5946C5.36847 12.495 5.3125 12.3598 5.3125 12.2189C5.3125 12.078 5.36847 11.9429 5.4681 11.8433C5.56773 11.7436 5.70285 11.6877 5.84375 11.6877H11.1562C11.2971 11.6877 11.4323 11.7436 11.5319 11.8433C11.6315 11.9429 11.6875 12.078 11.6875 12.2189C11.6875 12.3598 11.6315 12.495 11.5319 12.5946C11.4323 12.6942 11.2971 12.7502 11.1562 12.7502ZM11.1562 10.0939H5.84375C5.70285 10.0939 5.56773 10.038 5.4681 9.93833C5.36847 9.8387 5.3125 9.70358 5.3125 9.56268C5.3125 9.42178 5.36847 9.28666 5.4681 9.18703C5.56773 9.0874 5.70285 9.03143 5.84375 9.03143H11.1562C11.2971 9.03143 11.4323 9.0874 11.5319 9.18703C11.6315 9.28666 11.6875 9.42178 11.6875 9.56268C11.6875 9.70358 11.6315 9.8387 11.5319 9.93833C11.4323 10.038 11.2971 10.0939 11.1562 10.0939Z" fill="#C5B4E3"/>
<path d="M13.9194 6.26276L9.14447 1.48782C9.13519 1.47859 9.12338 1.47231 9.11054 1.46977C9.09769 1.46723 9.08438 1.46854 9.07228 1.47355C9.06018 1.47855 9.04983 1.48702 9.04253 1.49789C9.03523 1.50876 9.0313 1.52154 9.03125 1.53463V5.84473C9.03125 5.98563 9.08722 6.12075 9.18685 6.22038C9.28648 6.32001 9.4216 6.37598 9.5625 6.37598H13.8726C13.8857 6.37593 13.8985 6.372 13.9093 6.3647C13.9202 6.3574 13.9287 6.34705 13.9337 6.33495C13.9387 6.32285 13.94 6.30954 13.9375 6.2967C13.9349 6.28385 13.9286 6.27204 13.9194 6.26276V6.26276Z" fill="#C5B4E3"/>
</svg>
